<?xml version="1.0" encoding="UTF-8" standalone="no"?>
<svg width="20px" height="30px" viewBox="0 0 20 30" version="1.1" xmlns="http://www.w3.org/2000/svg" xmlns:xlink="http://www.w3.org/1999/xlink">
    <!-- Generator: Sketch 47.1 (45422) - http://www.bohemiancoding.com/sketch -->
    <title>0</title>
    <desc>Created with Sketch.</desc>
    <defs></defs>
    <g id="页面" stroke="none" stroke-width="1" fill="none" fill-rule="evenodd">
        <path d="M19.0234375,17.9648438 C19.0234375,21.6367371 18.2291746,24.4622297 16.640625,26.4414062 C15.0520754,28.4205828 12.8450662,29.4101562 10.0195312,29.4101562 C7.20701719,29.4101562 4.99675283,28.4173276 3.38867188,26.4316406 C1.78059092,24.4459536 0.9765625,21.6237162 0.9765625,17.9648438 L0.9765625,11.6171875 C0.9765625,7.95831504 1.77082539,5.13282246 3.359375,3.140625 C4.94792461,1.14842754 7.15493379,0.15234375 9.98046875,0.15234375 C12.8060037,0.15234375 15.0195232,1.14842754 16.6210938,3.140625 C18.2226643,5.13282246 19.0234375,7.95831504 19.0234375,11.6171875 L19.0234375,17.9648438 Z M16.6796875,11.2265625 C16.6796875,8.30988125 16.1067766,6.06706514 14.9609375,4.49804688 C13.8150984,2.92902861 12.1549588,2.14453125 9.98046875,2.14453125 C7.80597871,2.14453125 6.15234941,2.92902861 5.01953125,4.49804688 C3.88671309,6.06706514 3.3203125,8.30988125 3.3203125,11.2265625 L3.3203125,18.3164062 C3.3203125,21.2070457 3.89647861,23.4498618 5.04882812,25.0449219 C6.20117764,26.6399819 7.85806211,27.4375 10.0195312,27.4375 C12.1810004,27.4375 13.8313745,26.6432371 14.9707031,25.0546875 C16.1100317,23.4661379 16.6796875,21.2200666 16.6796875,18.3164062 L16.6796875,11.2265625 Z" id="0" fill="#F9CF50"></path>
    </g>
</svg>