<?xml version="1.0" encoding="UTF-8" standalone="no"?>
<svg width="18px" height="30px" viewBox="0 0 18 30" version="1.1" xmlns="http://www.w3.org/2000/svg" xmlns:xlink="http://www.w3.org/1999/xlink">
    <!-- Generator: Sketch 47.1 (45422) - http://www.bohemiancoding.com/sketch -->
    <title>5</title>
    <desc>Created with Sketch.</desc>
    <defs></defs>
    <g id="页面" stroke="none" stroke-width="1" fill="none" fill-rule="evenodd">
        <path d="M0.69140625,16.1289062 L2.2734375,0.5625 L16.0820312,0.5625 L16.0820312,2.73046875 L4.265625,2.73046875 L3.2109375,12.8671875 C3.92708691,12.2161426 4.71483945,11.7148455 5.57421875,11.3632812 C6.43359805,11.011717 7.59895098,10.8164064 9.0703125,10.7773438 C11.4921996,10.7382811 13.4453051,11.552075 14.9296875,13.21875 C16.4140699,14.885425 17.15625,17.1249859 17.15625,19.9375 C17.15625,22.8151186 16.4368562,25.1132727 14.9980469,26.8320312 C13.5592376,28.5507898 11.3945457,29.4101562 8.50390625,29.4101562 C6.16014453,29.4101562 4.20703906,28.7558659 2.64453125,27.4472656 C1.08202344,26.1386653 0.333333008,24.2018357 0.3984375,21.6367188 L0.4375,21.5195312 L2.52734375,21.5195312 C2.52734375,23.4336033 3.07095811,24.8984324 4.15820312,25.9140625 C5.24544814,26.9296926 6.69400137,27.4375 8.50390625,27.4375 C10.6132918,27.4375 12.1920521,26.7994855 13.2402344,25.5234375 C14.2884167,24.2473895 14.8125,22.3984496 14.8125,19.9765625 C14.8125,17.8541561 14.2884167,16.1516991 13.2402344,14.8691406 C12.1920521,13.5865821 10.7239678,12.9453125 8.8359375,12.9453125 C7.01301172,12.9453125 5.62305166,13.2350231 4.66601562,13.8144531 C3.70897959,14.3938831 3.01562715,15.2695254 2.5859375,16.4414062 L0.69140625,16.1289062 Z" id="5" fill="#F9CF50"></path>
    </g>
</svg>