<?xml version="1.0" encoding="UTF-8" standalone="no"?>
<svg width="19px" height="30px" viewBox="0 0 19 30" version="1.1" xmlns="http://www.w3.org/2000/svg" xmlns:xlink="http://www.w3.org/1999/xlink">
    <!-- Generator: Sketch 47.1 (45422) - http://www.bohemiancoding.com/sketch -->
    <title>9</title>
    <desc>Created with Sketch.</desc>
    <defs></defs>
    <g id="页面" stroke="none" stroke-width="1" fill="none" fill-rule="evenodd">
        <path d="M8.98046875,27.4375 C11.1419379,27.4375 12.8606707,26.714851 14.1367188,25.2695312 C15.4127668,23.8242115 16.0507812,21.7539197 16.0507812,19.0585938 L16.0507812,16.2070312 C15.3606736,17.4049539 14.4329485,18.3294238 13.2675781,18.9804688 C12.1022077,19.6315137 10.8033926,19.9570312 9.37109375,19.9570312 C6.77993496,19.9570312 4.69336729,19.0586027 3.11132813,17.2617188 C1.52928896,15.4648348 0.73828125,13.1406393 0.73828125,10.2890625 C0.73828125,7.41144395 1.56835107,5.00261387 3.22851562,3.0625 C4.88868018,1.12238613 6.94269609,0.15234375 9.390625,0.15234375 C12.1380346,0.15234375 14.3385334,1.04751709 15.9921875,2.83789062 C17.6458416,4.62826416 18.4726562,7.22914961 18.4726562,10.640625 L18.4726562,19.0195312 C18.4726562,22.3138186 17.6002691,24.8691315 15.8554688,26.6855469 C14.1106684,28.5019622 11.8190246,29.4101562 8.98046875,29.4101562 C7.96483867,29.4101562 6.94596865,29.312501 5.92382812,29.1171875 C4.9016876,28.921874 3.92839004,28.6223979 3.00390625,28.21875 L3.43359375,26.265625 C4.31901484,26.6822937 5.19465713,26.9817699 6.06054687,27.1640625 C6.92643662,27.3463551 7.89973418,27.4375 8.98046875,27.4375 Z M9.37109375,17.984375 C11.0638105,17.984375 12.479812,17.5514366 13.6191406,16.6855469 C14.7584692,15.8196571 15.569008,14.7487043 16.0507812,13.4726562 L16.0507812,10.4648438 C16.0507812,7.76951777 15.4615944,5.7089915 14.2832031,4.28320312 C13.1048118,2.85741475 11.5065205,2.14453125 9.48828125,2.14453125 C7.65233457,2.14453125 6.13867783,2.93879414 4.94726562,4.52734375 C3.75585342,6.11589336 3.16015625,8.03644707 3.16015625,10.2890625 C3.16015625,12.4765734 3.72004648,14.3059822 4.83984375,15.7773438 C5.95964102,17.2487053 7.47004258,17.984375 9.37109375,17.984375 Z" id="9" fill="#F9CF50"></path>
    </g>
</svg>