<?xml version="1.0" encoding="UTF-8"?>
<svg width="19px" height="24px" viewBox="0 0 19 24" version="1.1" xmlns="http://www.w3.org/2000/svg" xmlns:xlink="http://www.w3.org/1999/xlink">
    <!-- Generator: Sketch 47.1 (45422) - http://www.bohemiancoding.com/sketch -->
    <title>人</title>
    <desc>Created with Sketch.</desc>
    <defs>
        <linearGradient x1="0%" y1="50%" x2="100%" y2="50%" id="linearGradient-1">
            <stop stop-color="#ECDAA0" offset="0%"></stop>
            <stop stop-color="#FDC432" offset="100%"></stop>
        </linearGradient>
    </defs>
    <g id="Symbols" stroke="none" stroke-width="1" fill="none" fill-rule="evenodd">
        <g id="人" fill="url(#linearGradient-1)" fill-rule="nonzero">
            <path d="M0,21.0106266 C0,17.2158207 2.19857846,13.9375218 5.38516292,12.3945644 C6.56134969,13.1772614 7.97006188,13.6321184 9.48553203,13.6321184 C11.0055437,13.6321184 12.4196733,13.1735108 13.5976767,12.3870968 C16.7933117,13.9263371 19,17.2092907 19,21.0106266 C19,24.9688502 2.35908724e-08,25.0239701 4.02295684e-15,21.0106266 L0,21.0106266 Z M14.0682711,10.5727572 C13.4706291,11.1463403 12.7540035,11.6055425 11.9724389,11.9161756 C11.1908415,12.2259046 10.3461098,12.3870968 9.50045939,12.3870968 C8.65480897,12.3870968 7.80915857,12.2259047 7.02847994,11.9161756 C6.24688252,11.6055103 5.53028969,11.146308 4.93264773,10.5727572 C4.33411979,10.0001103 3.85546152,9.31308251 3.53145577,8.56390879 C3.20836881,7.81476733 3.04000002,7.00438384 3.04,6.19400035 C3.04,5.38274521 3.20840162,4.57236172 3.53145577,3.82322027 C3.85542871,3.07498274 4.334087,2.38792271 4.93264773,1.81437186 C5.53028969,1.24078875 6.24688252,0.781586496 7.02847994,0.471825147 C7.80915857,0.161192123 8.654809,0 9.50045939,0 C10.3461098,0 11.1908414,0.161192123 11.9724389,0.471825147 C12.7540035,0.781586496 13.4706291,1.24078875 14.0682711,1.81437186 C14.6658802,2.38792268 15.1445385,3.07495046 15.4685443,3.82322027 C15.7915984,4.57236172 15.96,5.38274521 15.96,6.19400035 C15.96,7.00438384 15.7915656,7.81476733 15.4685443,8.56390879 C15.1445713,9.31308253 14.665913,10.0001103 14.0682711,10.5727572 Z"></path>
        </g>
    </g>
</svg>