<?xml version="1.0" encoding="UTF-8"?>
<svg width="264px" height="136px" viewBox="0 0 264 136" version="1.1" xmlns="http://www.w3.org/2000/svg" xmlns:xlink="http://www.w3.org/1999/xlink">
    <!-- Generator: Sketch 47.1 (45422) - http://www.bohemiancoding.com/sketch -->
    <title>扶뒬못_LOGO</title>
    <desc>Created with Sketch.</desc>
    <defs>
        <filter x="-11.8%" y="-20.7%" width="123.6%" height="147.7%" filterUnits="objectBoundingBox" id="filter-1">
            <feOffset dx="0" dy="4" in="SourceAlpha" result="shadowOffsetOuter1"></feOffset>
            <feGaussianBlur stdDeviation="9.5" in="shadowOffsetOuter1" result="shadowBlurOuter1"></feGaussianBlur>
            <feColorMatrix values="0 0 0 0 0   0 0 0 0 0   0 0 0 0 0  0 0 0 0.0613677536 0" type="matrix" in="shadowBlurOuter1" result="shadowMatrixOuter1"></feColorMatrix>
            <feMerge>
                <feMergeNode in="shadowMatrixOuter1"></feMergeNode>
                <feMergeNode in="SourceGraphic"></feMergeNode>
            </feMerge>
        </filter>
    </defs>
    <g id="Symbols" stroke="none" stroke-width="1" fill="none" fill-rule="evenodd">
        <g id="扶뒬못_LOGO">
            <g id="logo" filter="url(#filter-1)" transform="translate(3.000000, 4.000000)">
                <path d="M106.996105,55.3166009 C110.441919,46.3615104 118.978419,40 128.961634,40 C138.964139,40 147.516422,46.3740225 150.928917,55.3166009 C197.967346,55.0717212 223.287502,56.5606614 244.711171,61.5136665 C264.949409,66.1038207 259.248472,77.691815 246.320971,81.2524019 C220.732514,88.4218366 195.161594,87.5978253 195.161594,87.5978253 C195.161594,87.5978253 215.259545,83.7476726 226.93498,79.5310941 C235.240005,76.5478513 234.405294,74.0740299 225.300629,73.2500186 C210.649344,71.8969241 174.769039,71.7986147 151.220014,71.8665376 C148.0425,81.2524019 139.278033,88 128.961634,88 C118.654004,88 109.898304,81.2524019 106.74008,71.8665376 C83.0981141,71.7986147 47.3230252,71.8969241 32.71558,73.2500186 C23.6179298,74.0740299 22.7849723,76.5478513 31.0812296,79.5310941 C42.770693,83.7476726 62.8774117,87.5978253 62.8774117,87.5978253 C62.8774117,87.5978253 37.2556371,88.4218366 11.6741952,81.2524019 C-1.23752382,77.691815 -6.9507359,66.1038207 13.2699665,61.5136665 C34.7251997,56.5606614 59.989241,55.0717212 106.996105,55.3166009 Z" id="Fill-1" fill="#F6931D"></path>
                <polygon id="Fill-3" fill="#006BBB" points="115 26.833755 115 2.01022152 64 0 66.0472481 51 90.8442144 51 90.8442144 26.833755"></polygon>
                <polygon id="Fill-5" fill="#006BBB" points="90.8402707 77 66.0182489 77 64 128 115 125.980008 115 101.154501 90.8402707 101.154501"></polygon>
                <polygon id="Fill-7" fill="#006BBB" points="142 101.145786 142 125.973037 193 128 191.006941 77 166.173037 77 166.173037 101.145786"></polygon>
                <polygon id="Fill-9" fill="#006BBB" points="166.157344 51 190.982529 51 193 0 142 2.02472302 142 26.8515593 166.157344 26.8515593"></polygon>
            </g>
        </g>
    </g>
</svg>