<?xml version="1.0" encoding="UTF-8"?>
<svg width="1371px" height="86px" viewBox="0 0 1371 86" version="1.1" xmlns="http://www.w3.org/2000/svg" xmlns:xlink="http://www.w3.org/1999/xlink">
    <!-- Generator: Sketch 47.1 (45422) - http://www.bohemiancoding.com/sketch -->
    <title>首页_文字</title>
    <desc>Created with Sketch.</desc>
    <defs></defs>
    <g id="Symbols" stroke="none" stroke-width="1" fill="none" fill-rule="evenodd">
        <g id="首页_文字" fill="#FFFFFF">
            <g id="北科建嘉兴创新园智慧园区">
                <path d="M103.23218,75.7704011 L99.2431144,85.6431535 L69.5064443,85.6431535 C67.8946926,85.6431535 66.4038447,85.3457844 65.0338557,84.7510373 C63.6638668,84.1562902 62.4550712,83.363306 61.4074326,82.3720609 C60.359794,81.3808157 59.5337836,80.211164 58.9293767,78.8630705 C58.3249698,77.5149771 58.0227709,76.0479563 58.0227709,74.461964 L58.0227709,0.118948824 L74.5834368,0.118948824 L74.5834368,17.3665284 L101.781611,17.3665284 L101.781611,29.0235131 L74.5834368,29.0235131 L74.5834368,72.0829876 C74.5834368,73.1138825 74.9460755,73.9861652 75.6713637,74.6998617 C76.396652,75.4135582 77.2831021,75.7704011 78.3307408,75.7704011 L103.23218,75.7704011 Z M27.0772931,58.6417704 L27.0772931,29.0235131 L1.69233082,29.0235131 L1.69233082,17.3665284 L27.0772931,17.3665284 L27.0772931,0.118948824 L43.7588397,0.118948824 L43.7588397,86 L27.0772931,86 L27.0772931,70.1798064 L0,76.1272476 L0,64.5892116 L27.0772931,58.6417704 Z M113.954899,85.2863071 L116.372514,34.6141079 L126.284738,34.6141079 L123.867122,85.2863071 L113.954899,85.2863071 Z M154.8126,34.6141079 L157.109335,85.2863071 L147.197111,85.2863071 L144.779496,34.6141079 L154.8126,34.6141079 Z M209.450709,53.6459198 L219.604694,53.6459198 L219.604694,64.351314 L209.450709,64.351314 L209.450709,85.1673582 L193.010924,85.1673582 L193.010924,64.351314 L159.889593,64.351314 L159.889593,53.6459198 L193.010924,53.6459198 L193.010924,0.713692946 L209.450709,0.713692946 L209.450709,53.6459198 Z M189.384501,27.7150761 L180.801966,27.7150761 L189.384501,48.1742739 L173.307358,48.1742739 L162.66985,22.6002766 L171.252385,22.6002766 L162.66985,2.14107884 L178.626112,2.14107884 L189.384501,27.7150761 Z M141.636596,12.2517289 L141.636596,20.8160443 L156.625812,20.8160443 L156.625812,31.0456432 L141.636596,31.0456432 L141.636596,85.2863071 L128.944115,85.2863071 L128.944115,31.0456432 L113.834018,31.0456432 L113.834018,20.8160443 L128.944115,20.8160443 L128.944115,12.6085754 L115.042826,13.0843707 L115.042826,2.26002766 L157.109335,0.951590595 L157.109335,11.7759336 L141.636596,12.2517289 Z M304.185566,42.1078838 L304.185566,47.6984786 L332.229905,47.6984786 L332.229905,56.857538 L304.185566,56.857538 L304.185566,61.4965422 L333.559593,61.4965422 L333.559593,70.5366528 L304.185566,70.5366528 L304.185566,74.461964 L289.075469,74.461964 L289.075469,70.5366528 L261.03113,70.5366528 L261.03113,61.4965422 L289.075469,61.4965422 L289.075469,56.857538 L262.360818,56.857538 L262.360818,47.6984786 L289.075469,47.6984786 L289.075469,42.1078838 L263.327864,42.1078838 L263.327864,32.9488243 L289.075469,32.9488243 L289.075469,26.406639 L260.668487,26.406639 L260.668487,17.3665284 L289.075469,17.3665284 L289.075469,12.1327801 L263.327864,12.1327801 L263.327864,3.09266943 L289.075469,3.09266943 L289.075469,0 L304.185566,0 L304.185566,3.09266943 L332.592547,3.09266943 L332.592547,17.3665284 L335.010163,17.3665284 L335.010163,26.406639 L332.592547,26.406639 L332.592547,32.7109267 C332.592547,35.3278139 331.665804,37.5481698 329.812289,39.3720609 C327.958775,41.195952 325.74265,42.1078838 323.163847,42.1078838 L304.185566,42.1078838 Z M304.185566,17.3665284 L318.812139,17.3665284 L318.812139,12.1327801 L304.185566,12.1327801 L304.185566,17.3665284 Z M304.185566,32.9488243 L316.878047,32.9488243 C318.167448,32.9488243 318.812139,32.314437 318.812139,31.0456432 L318.812139,26.406639 L304.185566,26.406639 L304.185566,32.9488243 Z M241.448445,12.3706777 L228.876844,12.3706777 L228.876844,1.90318119 L259.58056,1.90318119 L248.701291,33.4246196 L259.822322,33.4246196 L250.877145,63.9944675 L260.789368,77.197787 L335.010163,77.197787 L335.010163,86 L252.206833,86 L246.646318,78.5062241 L244.470464,86 L230.327413,86 L242.415491,43.8921162 L230.206533,43.8921162 L241.448445,12.3706777 Z M388.887318,11.7759336 L344.040551,11.7759336 L344.040551,3.44951591 L388.887318,3.44951591 L388.887318,0.237897649 L405.327103,0.237897649 L405.327103,3.44951591 L450.173869,3.44951591 L450.173869,11.7759336 L405.327103,11.7759336 L405.327103,15.582296 L446.305685,15.582296 L446.305685,23.9087137 L348.029616,23.9087137 L348.029616,15.582296 L388.887318,15.582296 L388.887318,11.7759336 Z M348.271378,27.7150761 L445.943042,27.7150761 L445.943042,35.4467497 C445.943042,37.2706407 445.60055,38.9755568 444.915556,40.5615491 C444.230561,42.1475414 443.283671,43.5352638 442.074858,44.724758 C440.866044,45.9142521 439.455782,46.8460086 437.844031,47.5200553 C436.232279,48.194102 434.499672,48.5311203 432.646157,48.5311203 L348.271378,48.5311203 L348.271378,27.7150761 Z M425.876834,40.2047026 C426.924473,40.2047026 427.810923,39.8478597 428.536211,39.1341632 C429.261499,38.4204667 429.624138,37.548184 429.624138,36.5172891 L429.624138,35.922545 L364.590282,35.922545 L364.590282,40.2047026 L425.876834,40.2047026 Z M398.67866,65.1839557 L446.547446,65.1839557 L446.547446,74.5809129 C446.547446,78.1493954 445.258064,80.9050156 442.679261,82.8478562 C440.100459,84.7906967 436.95759,85.7621024 433.250561,85.7621024 L398.67866,85.7621024 L398.67866,65.1839557 Z M426.481238,77.6735823 C427.528877,77.6735823 428.415327,77.3167394 429.140615,76.6030429 C429.865903,75.8893464 430.228542,74.9774145 430.228542,73.8672199 L430.228542,73.5103734 L414.997564,73.5103734 L414.997564,77.6735823 L426.481238,77.6735823 Z M450.173869,61.615491 L344.040551,61.615491 L344.040551,53.4080221 L356.612151,53.4080221 L355.040701,51.0290456 L375.953075,51.0290456 L377.645406,53.4080221 L416.689895,53.4080221 L418.261345,51.0290456 L439.2946,51.0290456 L437.602269,53.4080221 L450.173869,53.4080221 L450.173869,61.615491 Z M377.403644,79.8146611 C377.88717,79.8146611 378.330395,79.6362397 378.733333,79.2793914 C379.136271,78.9225432 379.337737,78.4665772 379.337737,77.9114799 L379.337737,73.5103734 L365.194686,73.5103734 L360.722098,85.7621024 L344.886716,85.7621024 L349.238424,73.5103734 L347.304332,73.5103734 L347.304332,65.1839557 L352.260443,65.1839557 L352.864847,63.2807746 L368.821109,63.2807746 L368.095825,65.1839557 L395.777522,65.1839557 L395.777522,76.6030429 C395.777522,77.8718367 395.515616,79.061313 394.991797,80.1715076 C394.467977,81.2817022 393.782993,82.2531079 392.936823,83.0857538 C392.090654,83.9183997 391.083324,84.5726117 389.914804,85.0484094 C388.746284,85.5242071 387.517342,85.7621024 386.227941,85.7621024 L368.216705,85.7621024 L370.392559,79.8146611 L377.403644,79.8146611 Z M459.083377,36.1604426 L532.699767,36.1604426 L544.425202,0.356846473 L561.22763,0.356846473 L549.502195,36.1604426 L565.337576,36.1604426 L565.337576,47.9363762 L459.083377,47.9363762 L459.083377,36.1604426 Z M496.072893,54.0027663 L477.215493,85.8810512 L459.083377,85.8810512 L477.940777,54.0027663 L496.072893,54.0027663 Z M565.337576,85.8810512 L547.20546,85.8810512 L528.34806,54.0027663 L546.359295,54.0027663 L565.337576,85.8810512 Z M487.127716,31.164592 L470.325289,31.164592 L459.083377,0.237897649 L475.885804,0.237897649 L487.127716,31.164592 Z M520.974332,31.164592 L504.171905,31.164592 L492.929993,0.237897649 L509.732421,0.237897649 L520.974332,31.164592 Z M642.302959,29.7372061 L626.346697,29.7372061 L618.489446,10.2295989 L598.423238,10.2295989 L590.203346,28.6666667 L574.247084,28.6666667 L586.697803,0.118948824 L629.610477,0.118948824 L642.302959,29.7372061 Z M661.523001,5.82849239 L661.523001,69.5850622 L647.621713,69.5850622 L647.621713,5.82849239 L661.523001,5.82849239 Z M617.643281,56.2627939 C618.771507,56.2627939 619.69825,55.905951 620.423539,55.1922545 C621.148827,54.478558 621.511466,53.6062753 621.511466,52.5753804 L621.511466,44.4868603 L595.763861,44.4868603 L595.763861,70.8934993 C595.763861,72.0036939 596.146646,72.9156258 596.912228,73.6293223 C597.67781,74.3430188 598.584407,74.6998617 599.632046,74.6998617 L638.072132,74.6998617 L634.083066,86 L593.829769,86 C591.976254,86 590.243647,85.6629817 588.631895,84.988935 C587.020144,84.3148883 585.609882,83.3831318 584.401068,82.1936376 C583.192255,81.0041434 582.245365,79.616421 581.56037,78.0304288 C580.875376,76.4444365 580.532884,74.7395204 580.532884,72.9156293 L580.532884,33.3056708 L636.742443,33.3056708 L636.742443,54.4785615 C636.742443,56.3024526 636.399951,58.0073687 635.714956,59.593361 C635.029962,61.1793533 634.083072,62.5670757 632.874258,63.7565698 C631.665445,64.946064 630.255183,65.8778205 628.643431,66.5518672 C627.03168,67.2259139 625.299072,67.5629322 623.445558,67.5629322 L605.434323,67.5629322 L609.66515,56.2627939 L617.643281,56.2627939 Z M680.501283,73.0345781 C680.501283,74.8584692 680.158791,76.5435607 679.473796,78.0899032 C678.788802,79.6362456 677.841912,81.0041434 676.633098,82.1936376 C675.424284,83.3831318 674.014023,84.3148883 672.402271,84.988935 C670.790519,85.6629817 669.057912,86 667.204398,86 L657.292174,86 L661.764763,74.3430152 L662.731809,74.3430152 C663.860035,74.3430152 664.786779,73.9861723 665.512067,73.2724758 C666.237355,72.5587793 666.599994,71.6468474 666.599994,70.5366528 L666.599994,0 L680.501283,0 L680.501283,73.0345781 Z M689.652552,3.68741355 L704.641768,3.68741355 L703.070318,0.118948824 L722.773884,0.118948824 L724.345334,3.68741355 L743.202734,3.68741355 L743.202734,15.4633472 L689.652552,15.4633472 L689.652552,3.68741355 Z M708.268191,47.6984786 L708.268191,40.4426003 L689.652552,40.4426003 L689.652552,28.6666667 L695.938352,28.6666667 L691.586644,18.5560166 L707.180264,18.5560166 L711.531972,28.6666667 L721.444195,28.6666667 L725.675022,18.5560166 L741.268642,18.5560166 L736.916934,28.6666667 L743.202734,28.6666667 L743.202734,40.4426003 L724.707976,40.4426003 L724.707976,47.6984786 L743.202734,47.6984786 L743.202734,59.4744122 L724.707976,59.4744122 L724.707976,74.6998617 C724.707976,76.2065543 724.405777,77.6339259 723.80137,78.9820194 C723.196963,80.3301128 722.391099,81.5195891 721.383755,82.5504841 C720.37641,83.5813791 719.167614,84.3941879 717.757331,84.988935 C716.347049,85.5836821 714.876347,85.8810512 713.345183,85.8810512 L702.707675,85.8810512 L705.850575,77.6735823 L706.334098,77.6735823 C707.6235,77.6735823 708.268191,77.0391949 708.268191,75.7704011 L708.268191,59.4744122 L689.652552,59.4744122 L689.652552,47.6984786 L708.268191,47.6984786 Z M689.531671,85.8810512 L692.070167,63.9944675 L704.883529,63.9944675 L702.345033,85.8810512 L689.531671,85.8810512 Z M727.971757,63.9944675 L740.664238,63.9944675 L743.202734,85.8810512 L730.510253,85.8810512 L727.971757,63.9944675 Z M765.203035,12.0138313 L765.203035,23.670816 L795.66499,23.670816 L795.66499,33.7814661 L791.555043,33.7814661 L791.555043,85.7621024 L775.236139,85.7621024 L775.236139,33.7814661 L765.203035,33.7814661 L765.203035,75.7704011 L762.060135,85.8810512 L745.74123,85.8810512 L748.88413,75.7704011 L748.88413,2.85477178 L795.66499,0.237897649 L795.66499,10.3485477 L765.203035,12.0138313 Z M890.399846,62.5670816 L886.169019,70.6556017 L874.806226,70.6556017 C871.905073,70.6556017 869.447188,69.783319 867.432499,68.0387275 C865.417809,66.294136 864.410479,64.1530786 864.410479,61.615491 L864.410479,46.6279391 L850.267429,46.6279391 L842.53106,70.6556017 L829.234175,70.6556017 L836.970544,46.6279391 L825.124228,46.6279391 L825.124228,35.922545 L890.278965,35.922545 L890.278965,46.6279391 L877.586484,46.6279391 L877.586484,59.9502075 C877.586484,60.663904 877.868536,61.2784668 878.432649,61.7939142 C878.996762,62.3093617 879.72204,62.5670816 880.608503,62.5670816 L890.399846,62.5670816 Z M882.784357,28.6666667 L832.618836,28.6666667 L832.618836,18.0802213 L882.784357,18.0802213 L882.784357,28.6666667 Z M897.531811,86 L804.574497,86 L804.574497,0.118948824 L910.828696,0.118948824 L910.828696,72.9156293 C910.828696,74.7395204 910.466058,76.4444365 909.740769,78.0304288 C909.015481,79.616421 908.048444,81.0041434 906.839631,82.1936376 C905.630817,83.3831318 904.220555,84.3148883 902.608804,84.988935 C900.997052,85.6629817 899.304738,86 897.531811,86 Z M820.168117,74.2240664 L891.366892,74.2240664 C892.495118,74.2240664 893.421861,73.8672235 894.14715,73.153527 C894.872438,72.4398305 895.235077,71.5278986 895.235077,70.417704 L895.235077,11.8948824 L820.168117,11.8948824 L820.168117,74.2240664 Z M921.309654,85.8810512 L921.309654,47.3416321 L1024.54183,47.3416321 L1024.54183,70.7745505 C1024.46125,72.91564 1024.07846,74.8981006 1023.39347,76.7219917 C1022.70847,78.5458828 1021.76158,80.1318513 1020.55277,81.4799447 C1019.34395,82.8280381 1017.93369,83.8985668 1016.32194,84.6915629 C1014.71019,85.4845591 1013.01788,85.8810512 1011.24495,85.8810512 L921.309654,85.8810512 Z M938.474723,62.6860304 L1007.01412,62.6860304 L1007.01412,57.9280775 L938.474723,57.9280775 L938.474723,62.6860304 Z M938.474723,75.5325035 L1003.14594,75.5325035 C1004.27416,75.5325035 1005.20091,75.0963621 1005.92619,74.2240664 C1006.65148,73.3517707 1007.01412,72.2812419 1007.01412,71.0124481 L1007.01412,70.7745505 L938.474723,70.7745505 L938.474723,75.5325035 Z M978.002736,0.237897649 L1025.9924,0.237897649 L1025.9924,31.2835408 C1025.9924,33.1074319 1025.64991,34.812348 1024.96492,36.3983402 C1024.27992,37.9843325 1023.33303,39.3720549 1022.12422,40.5615491 C1020.9154,41.7510433 1019.50514,42.6827998 1017.89339,43.3568465 C1016.28164,44.0308932 1014.54903,44.3679115 1012.69552,44.3679115 L978.002736,44.3679115 L978.002736,0.237897649 Z M1009.18998,12.0138313 L994.805164,12.0138313 L994.805164,32.5919779 L1005.44267,32.5919779 C1006.49031,32.5919779 1007.37676,32.235135 1008.10205,31.5214385 C1008.82734,30.8077419 1009.18998,29.9354593 1009.18998,28.9045643 L1009.18998,12.0138313 Z M920.100846,44.3679115 L934.364777,32.2351314 L919.859084,32.2351314 L919.859084,20.4591978 L940.650577,20.4591978 L940.650577,16.1770401 L919.859084,16.1770401 L925.540481,0.237897649 L942.222027,0.237897649 L940.771458,4.4011065 L972.442221,4.4011065 L972.442221,16.1770401 L957.453005,16.1770401 L957.453005,20.4591978 L973.167505,20.4591978 L973.167505,32.2351314 L964.222328,32.2351314 L974.738955,44.3679115 L957.936528,44.3679115 L950.200158,35.3278008 L939.56265,44.3679115 L920.100846,44.3679115 Z M1137.65057,54.0027663 C1137.48939,57.0161515 1136.32089,59.5537011 1134.14502,61.615491 C1131.96916,63.6772809 1129.3501,64.7081604 1126.28777,64.7081604 L1038.7701,64.7081604 L1038.7701,58.4038728 L1119.39757,58.4038728 C1120.68697,58.4038728 1121.33166,57.7694854 1121.33166,56.5006916 L1121.33166,54.0027663 L1038.7701,54.0027663 L1038.7701,47.5795297 L1121.33166,47.5795297 L1121.33166,43.4163209 L1038.7701,43.4163209 L1038.7701,36.0414938 L1137.65057,36.0414938 L1137.65057,54.0027663 Z M1052.67138,0.118948824 L1068.99029,0.118948824 L1068.99029,2.85477178 L1085.55095,2.85477178 L1085.55095,9.15905947 L1068.99029,9.15905947 L1068.99029,13.3222683 L1085.55095,13.3222683 L1085.55095,19.626556 L1068.99029,19.626556 L1068.99029,23.7897649 L1085.55095,23.7897649 L1085.55095,30.0940526 L1068.99029,30.0940526 L1068.99029,33.0677732 L1052.67138,33.0677732 L1052.67138,30.0940526 L1036.11072,30.0940526 L1036.11072,23.7897649 L1052.67138,23.7897649 L1052.67138,19.626556 L1036.11072,19.626556 L1036.11072,13.3222683 L1052.67138,13.3222683 L1052.67138,9.15905947 L1036.11072,9.15905947 L1036.11072,2.85477178 L1052.67138,2.85477178 L1052.67138,0.118948824 Z M1123.6284,0.118948824 L1123.6284,2.85477178 L1140.18906,2.85477178 L1140.18906,9.15905947 L1123.6284,9.15905947 L1123.6284,13.3222683 L1140.18906,13.3222683 L1140.18906,19.626556 L1123.6284,19.626556 L1123.6284,23.7897649 L1140.18906,23.7897649 L1140.18906,30.0940526 L1123.6284,30.0940526 L1123.6284,33.0677732 L1107.30949,33.0677732 L1107.30949,30.0940526 L1090.74883,30.0940526 L1090.74883,23.7897649 L1107.30949,23.7897649 L1107.30949,19.626556 L1090.74883,19.626556 L1090.74883,13.3222683 L1107.30949,13.3222683 L1107.30949,9.15905947 L1090.74883,9.15905947 L1090.74883,2.85477178 L1107.30949,2.85477178 L1107.30949,0.118948824 L1123.6284,0.118948824 Z M1035.02279,86 L1039.01186,70.1798064 L1055.33076,70.1798064 L1051.3417,86 L1035.02279,86 Z M1137.16704,70.1798064 L1141.03523,86 L1125.07897,86 L1121.21078,70.1798064 L1137.16704,70.1798064 Z M1108.39742,76.3651452 L1091.23235,76.3651452 L1088.08945,68.0387275 L1105.25452,68.0387275 L1108.39742,76.3651452 Z M1076.96842,77.3167358 C1076.96842,78.1890316 1077.19003,78.6846467 1077.63326,78.8035961 C1078.0765,78.9225455 1078.45928,78.9820194 1078.78163,78.9820194 L1121.21078,78.9820194 L1118.43052,86 L1066.93532,86 C1065.56533,86 1064.39682,85.7819293 1063.42977,85.3457815 C1062.46272,84.9096336 1061.65686,84.33472 1061.01216,83.6210235 C1060.36746,82.907327 1059.90408,82.153992 1059.62203,81.3609959 C1059.33997,80.5679997 1059.19895,79.8146647 1059.19895,79.1009682 L1059.19895,68.0387275 L1076.96842,68.0387275 L1076.96842,77.3167358 Z M1235.89097,62.5670816 L1231.66014,70.6556017 L1220.29735,70.6556017 C1217.39619,70.6556017 1214.93831,69.783319 1212.92362,68.0387275 C1210.90893,66.294136 1209.9016,64.1530786 1209.9016,61.615491 L1209.9016,46.6279391 L1195.75855,46.6279391 L1188.02218,70.6556017 L1174.72529,70.6556017 L1182.46166,46.6279391 L1170.61535,46.6279391 L1170.61535,35.922545 L1235.77009,35.922545 L1235.77009,46.6279391 L1223.0776,46.6279391 L1223.0776,59.9502075 C1223.0776,60.663904 1223.35966,61.2784668 1223.92377,61.7939142 C1224.48788,62.3093617 1225.21316,62.5670816 1226.09962,62.5670816 L1235.89097,62.5670816 Z M1228.27548,28.6666667 L1178.10996,28.6666667 L1178.10996,18.0802213 L1228.27548,18.0802213 L1228.27548,28.6666667 Z M1243.02293,86 L1150.06562,86 L1150.06562,0.118948824 L1256.31982,0.118948824 L1256.31982,72.9156293 C1256.31982,74.7395204 1255.95718,76.4444365 1255.23189,78.0304288 C1254.5066,79.616421 1253.53956,81.0041434 1252.33075,82.1936376 C1251.12194,83.3831318 1249.71168,84.3148883 1248.09992,84.988935 C1246.48817,85.6629817 1244.79586,86 1243.02293,86 Z M1165.65924,74.2240664 L1236.85801,74.2240664 C1237.98624,74.2240664 1238.91298,73.8672235 1239.63827,73.153527 C1240.36356,72.4398305 1240.7262,71.5278986 1240.7262,70.417704 L1240.7262,11.8948824 L1165.65924,11.8948824 L1165.65924,74.2240664 Z M1277.43828,85.7621024 C1274.21478,85.7621024 1271.47484,84.6519244 1269.21839,82.4315353 C1266.96194,80.2111461 1265.83373,77.5149997 1265.83373,74.3430152 L1265.83373,0.356846473 L1371,0.356846473 L1371,11.8948824 L1283.11968,11.8948824 L1283.11968,71.4882434 C1283.11968,72.2812396 1283.38158,72.9354515 1283.9054,73.450899 C1284.42922,73.9663465 1285.05377,74.2240664 1285.77906,74.2240664 L1371,74.2240664 L1366.76917,85.7621024 L1277.43828,85.7621024 Z M1288.31755,56.7385892 C1293.07222,55.7869939 1297.44403,54.7164651 1301.43312,53.526971 C1305.4222,52.3374768 1309.18961,50.9497544 1312.73547,49.3637621 C1308.14198,45.081583 1303.99178,40.2443792 1300.28475,34.8520055 C1296.57772,29.4596319 1293.03192,23.3536533 1289.64724,16.5338866 L1307.41671,16.5338866 C1310.7208,21.6883614 1313.96441,26.2083715 1317.14762,30.0940526 C1320.33083,33.9797336 1323.7356,37.3895658 1327.36204,40.3236515 C1330.90789,37.3895658 1334.29252,33.9797336 1337.51603,30.0940526 C1340.73953,26.2083715 1344.00328,21.6883614 1347.30737,16.5338866 L1365.07684,16.5338866 C1361.69216,23.3536533 1358.12622,29.4596319 1354.37889,34.8520055 C1350.63157,40.2443792 1346.46123,45.081583 1341.86773,49.3637621 C1345.41359,50.9497544 1349.20115,52.3374768 1353.23053,53.526971 C1357.25991,54.7164651 1361.65186,55.7869939 1366.40653,56.7385892 L1366.40653,71.131397 C1358.34777,70.100502 1351.13529,68.6334812 1344.76887,66.7302905 C1338.40245,64.8270998 1332.60023,62.4877963 1327.36204,59.7123098 C1322.12385,62.4877963 1316.32163,64.8270998 1309.95521,66.7302905 C1303.58879,68.6334812 1296.37631,70.100502 1288.31755,71.131397 L1288.31755,56.7385892 Z"></path>
            </g>
        </g>
    </g>
</svg>