<?xml version="1.0" encoding="UTF-8"?>
<svg width="1372px" height="106px" viewBox="0 0 1372 106" version="1.1" xmlns="http://www.w3.org/2000/svg" xmlns:xlink="http://www.w3.org/1999/xlink">
    <!-- Generator: Sketch 47.1 (45422) - http://www.bohemiancoding.com/sketch -->
    <title>首页_文字</title>
    <desc>Created with Sketch.</desc>
    <defs>
        <linearGradient x1="50.6623626%" y1="16.3915144%" x2="51.4481972%" y2="174.078888%" id="linearGradient-1">
            <stop stop-color="#FFFFFF" offset="0%"></stop>
            <stop stop-color="#9EC0E5" offset="100%"></stop>
        </linearGradient>
    </defs>
    <g id="Symbols" stroke="none" stroke-width="1" fill="none" fill-rule="evenodd">
        <g id="首页_文字" fill="url(#linearGradient-1)">
            <path d="M25.9865654,3.92592593 C25.9865654,2.84821538 26.5153565,1.92447734 27.5729545,1.1546841 C28.6305526,0.38489085 29.8643985,0 31.2745292,0 L34.9005616,0 C36.3106924,0 37.5193577,0.38489085 38.526594,1.1546841 C39.5338302,1.92447734 40.0374408,2.84821538 40.0374408,3.92592593 L40.0374408,101.958606 C40.0374408,103.036316 39.5338302,103.979299 38.526594,104.787582 C37.5193577,105.595865 36.3106924,106 34.9005616,106 L5.1368792,106 C3.72674845,106 2.51808307,105.595865 1.51084682,104.787582 C0.503610572,103.979299 0,103.036316 0,101.958606 L0,99.4183007 C0,98.2636108 0.503610572,97.3013837 1.51084682,96.5315904 C2.51808307,95.7617972 3.72674845,95.3769063 5.1368792,95.3769063 L20.8496862,95.3769063 C22.2598169,95.3769063 23.4684823,94.9920155 24.4757185,94.2222222 C25.4829548,93.452429 25.9865654,92.4902019 25.9865654,91.335512 L25.9865654,31.0610022 C25.9865654,29.9832916 25.4829548,29.0403091 24.4757185,28.2320261 C23.4684823,27.4237432 22.2598169,27.0196078 20.8496862,27.0196078 L5.1368792,27.0196078 C3.72674845,27.0196078 2.51808307,26.6154725 1.51084682,25.8071895 C0.503610572,24.9989066 0,24.0559241 0,22.9782135 L0,20.4379085 C0,19.360198 0.503610572,18.4172154 1.51084682,17.6089325 C2.51808307,16.8006496 3.72674845,16.3965142 5.1368792,16.3965142 L20.8496862,16.3965142 C22.2598169,16.3965142 23.4684823,15.9923788 24.4757185,15.1840959 C25.4829548,14.375813 25.9865654,13.4328304 25.9865654,12.3551198 L25.9865654,3.92592593 Z M74.0314943,12.3551198 C74.0314943,13.4328304 74.5351049,14.375813 75.5423412,15.1840959 C76.5495774,15.9923788 77.7582428,16.3965142 79.1683735,16.3965142 L94.8811805,16.3965142 C96.2913112,16.3965142 97.4999766,16.8006496 98.5072129,17.6089325 C99.5144491,18.4172154 100.01806,19.360198 100.01806,20.4379085 L100.01806,22.9782135 C100.01806,24.0559241 99.5144491,24.9989066 98.5072129,25.8071895 C97.4999766,26.6154725 96.2913112,27.0196078 94.8811805,27.0196078 L79.1683735,27.0196078 C77.7582428,27.0196078 76.5495774,27.4237432 75.5423412,28.2320261 C74.5351049,29.0403091 74.0314943,29.9832916 74.0314943,31.0610022 L74.0314943,91.335512 C74.0314943,92.4902019 74.5351049,93.452429 75.5423412,94.2222222 C76.5495774,94.9920155 77.7582428,95.3769063 79.1683735,95.3769063 L94.8811805,95.3769063 C96.2913112,95.3769063 97.4999766,95.7617972 98.5072129,96.5315904 C99.5144491,97.3013837 100.01806,98.2636108 100.01806,99.4183007 L100.01806,101.958606 C100.01806,103.036316 99.5144491,103.979299 98.5072129,104.787582 C97.4999766,105.595865 96.2913112,106 94.8811805,106 L65.2685828,106 C63.858452,106 62.6497866,105.595865 61.6425504,104.787582 C60.6353141,103.979299 60.1317036,103.036316 60.1317036,101.958606 L60.1317036,3.92592593 C60.1317036,2.84821538 60.6353141,1.92447734 61.6425504,1.1546841 C62.6497866,0.38489085 63.858452,0 65.2685828,0 L68.5924458,0 C70.0025765,0 71.2616029,0.38489085 72.3695628,1.1546841 C73.4775227,1.92447734 74.0314943,2.84821538 74.0314943,3.92592593 L74.0314943,12.3551198 Z M181.150534,39.8366013 C182.560665,39.8366013 183.76933,40.2407367 184.776566,41.0490196 C185.783803,41.8573025 186.287413,42.8002851 186.287413,43.8779956 L186.287413,54.7320261 C186.287413,55.8097367 186.539219,56.7719638 187.042837,57.6187364 C187.546455,58.465509 188.201149,58.8888889 189.006938,58.8888889 C189.812727,58.8888889 190.492601,59.2737797 191.046581,60.043573 C191.600561,60.8133662 191.877547,61.7755934 191.877547,62.9302832 L191.877547,65.4705882 C191.877547,66.5482988 191.449478,67.4720368 190.593327,68.2418301 C189.737176,69.0116233 188.755135,69.3965142 187.647175,69.3965142 C186.539216,69.3965142 185.255009,69.107846 183.794516,68.5305011 C182.334023,67.9531562 181.100178,67.2411081 180.092941,66.3943355 L177.675586,64.2004357 C176.769074,63.2766838 176.013658,62.1027667 175.409316,60.6786492 C174.804974,59.2545317 174.502808,58.0036365 174.502808,56.9259259 L174.502808,43.8779956 C174.502808,42.8002851 175.006419,41.8573025 176.013655,41.0490196 C177.020891,40.2407367 178.229557,39.8366013 179.639687,39.8366013 L181.150534,39.8366013 Z M192.028631,74.3616558 C193.539486,74.3616558 194.798512,73.9767649 195.805748,73.2069717 C196.812985,72.4371784 197.316595,71.5134404 197.316595,70.4357298 L197.316595,3.92592593 C197.316595,2.84821538 197.820206,1.92447734 198.827442,1.1546841 C199.834678,0.38489085 201.144066,0 202.755644,0 L206.079507,0 C207.489637,0 208.723483,0.38489085 209.781081,1.1546841 C210.838679,1.92447734 211.367471,2.84821538 211.367471,3.92592593 L211.367471,70.4357298 C211.367471,71.5134404 211.594095,72.4371784 212.047352,73.2069717 C212.500608,73.9767649 213.130121,74.3616558 213.93591,74.3616558 C214.741699,74.3616558 215.371212,74.7850357 215.824469,75.6318083 C216.277725,76.4785808 216.50435,77.440808 216.50435,78.5185185 L216.50435,81.1742919 C216.50435,82.1750232 216.277725,83.0987612 215.824469,83.9455338 C215.371212,84.7923063 214.741699,85.2156863 213.93591,85.2156863 C213.130121,85.2156863 212.500608,85.6198217 212.047352,86.4281046 C211.594095,87.2363875 211.367471,88.1793701 211.367471,89.2570806 L211.367471,101.958606 C211.367471,103.036316 210.838679,103.979299 209.781081,104.787582 C208.723483,105.595865 207.489637,106 206.079507,106 L202.755644,106 C201.144066,106 199.834678,105.595865 198.827442,104.787582 C197.820206,103.979299 197.316595,103.036316 197.316595,101.958606 L197.316595,89.2570806 C197.316595,88.1793701 196.812985,87.2363875 195.805748,86.4281046 C194.798512,85.6198217 193.539486,85.2156863 192.028631,85.2156863 L176.920163,85.2156863 C175.409309,85.2156863 174.150282,84.7923063 173.143046,83.9455338 C172.13581,83.0987612 171.632199,82.1750232 171.632199,81.1742919 L171.632199,78.5185185 C171.632199,77.440808 172.13581,76.4785808 173.143046,75.6318083 C174.150282,74.7850357 175.409309,74.3616558 176.920163,74.3616558 L192.028631,74.3616558 Z M189.006938,35.2178649 C187.898978,35.2178649 186.614771,34.9099522 185.154278,34.2941176 C183.693786,33.6782831 182.45994,32.9469904 181.452703,32.1002179 L179.035349,29.7908497 C178.128836,28.9440771 177.37342,27.8086491 176.769078,26.3845316 C176.164737,24.9604141 175.86257,23.6710297 175.86257,22.5163399 L175.86257,8.4291939 C175.86257,7.19752471 176.366181,6.1968085 177.373417,5.42701525 C178.380653,4.657222 179.63968,4.27233115 181.150534,4.27233115 L182.359212,4.27233115 C183.870066,4.27233115 185.129092,4.657222 186.136329,5.42701525 C187.143565,6.1968085 187.647175,7.19752471 187.647175,8.4291939 L187.647175,20.4379085 C187.647175,21.5925984 187.924161,22.5548255 188.478141,23.3246187 C189.032121,24.094412 189.711995,24.4793028 190.517784,24.4793028 C191.323573,24.4793028 191.978267,24.8641937 192.481885,25.6339869 C192.985503,26.4037802 193.237309,27.3275182 193.237309,28.4052288 L193.237309,31.0610022 C193.237309,32.215692 192.83442,33.1971637 192.028631,34.0054466 C191.222842,34.8137295 190.215621,35.2178649 189.006938,35.2178649 Z M152.142275,2.4248366 C152.142275,1.73202268 152.671066,1.15468641 153.728664,0.692810458 C154.786262,0.23093451 156.020108,0 157.430239,0 L160.754102,0 C162.164233,0 163.398079,0.346401765 164.455677,1.03921569 C165.513275,1.73202961 166.042066,2.54030039 166.042066,3.46405229 C166.042066,4.38780418 165.689538,5.46549856 164.984473,6.69716776 C164.279408,7.92883695 163.42327,8.96804224 162.416033,9.81481481 L158.941086,12.4705882 C157.833126,13.3173608 156.574099,14.0101643 155.163969,14.5490196 C153.753838,15.0878749 152.494812,15.3572985 151.386852,15.3572985 C150.278892,15.3572985 149.372393,15.799923 148.667327,16.6851852 C147.962262,17.5704474 147.609735,18.5519191 147.609735,19.6296296 L147.609735,25.0566449 C147.609735,26.1343554 148.138526,27.0965825 149.196124,27.9433551 C150.253722,28.7901277 151.537929,29.2135076 153.048783,29.2135076 L160.754102,29.2135076 C162.164233,29.2135076 163.398079,29.617643 164.455677,30.4259259 C165.513275,31.2342088 166.042066,32.2156805 166.042066,33.3703704 L166.042066,35.795207 C166.042066,36.9498968 165.513275,37.9313685 164.455677,38.7396514 C163.398079,39.5479343 162.164233,39.9520697 160.754102,39.9520697 L153.048783,39.9520697 C151.537929,39.9520697 150.253722,40.3562051 149.196124,41.164488 C148.138526,41.9727709 147.609735,42.9157535 147.609735,43.9934641 L147.609735,101.958606 C147.609735,103.036316 147.106124,103.979299 146.098888,104.787582 C145.091652,105.595865 143.832625,106 142.321771,106 L138.997908,106 C137.487053,106 136.202846,105.595865 135.145248,104.787582 C134.08765,103.979299 133.558859,103.036316 133.558859,101.958606 L133.558859,43.9934641 C133.558859,42.9157535 133.055249,41.9727709 132.048012,41.164488 C131.040776,40.3562051 129.78175,39.9520697 128.270895,39.9520697 L120.716661,39.9520697 C119.30653,39.9520697 118.097865,39.5479343 117.090629,38.7396514 C116.083393,37.9313685 115.579782,36.9498968 115.579782,35.795207 L115.579782,33.3703704 C115.579782,32.2156805 116.083393,31.2342088 117.090629,30.4259259 C118.097865,29.617643 119.30653,29.2135076 120.716661,29.2135076 L128.270895,29.2135076 C129.78175,29.2135076 131.040776,28.7901277 132.048012,27.9433551 C133.055249,27.0965825 133.558859,26.1343554 133.558859,25.0566449 L133.558859,19.6296296 C133.558859,18.5519191 133.055249,17.5704474 132.048012,16.6851852 C131.040776,15.799923 129.78175,15.3572985 128.270895,15.3572985 L120.716661,15.3572985 C119.30653,15.3572985 118.097865,14.9724076 117.090629,14.2026144 C116.083393,13.4328211 115.579782,12.470594 115.579782,11.3159041 L115.579782,8.89106754 C115.579782,7.73637767 116.083393,6.754906 117.090629,5.94662309 C118.097865,5.13834019 119.30653,4.73420479 120.716661,4.73420479 L146.703227,4.73420479 C148.214081,4.73420479 149.498288,4.50327028 150.555886,4.04139434 C151.613484,3.57951839 152.142275,3.0406712 152.142275,2.4248366 Z M128.875234,101.843137 C128.875234,102.920848 128.371623,103.86383 127.364387,104.672113 C126.357151,105.480396 125.098125,105.884532 123.58727,105.884532 L121.472085,105.884532 C120.061954,105.884532 118.828108,105.480396 117.77051,104.672113 C116.712912,103.86383 116.184121,102.920848 116.184121,101.843137 L116.184121,51.7298475 C116.184121,50.5751576 116.712912,49.6129305 117.77051,48.8431373 C118.828108,48.073344 120.061954,47.6884532 121.472085,47.6884532 L123.58727,47.6884532 C125.098125,47.6884532 126.357151,48.073344 127.364387,48.8431373 C128.371623,49.6129305 128.875234,50.5751576 128.875234,51.7298475 L128.875234,101.843137 Z M159.998679,47.6884532 C161.408809,47.6884532 162.642655,48.073344 163.700253,48.8431373 C164.757851,49.6129305 165.286642,50.5751576 165.286642,51.7298475 L165.286642,101.843137 C165.286642,102.920848 164.757851,103.86383 163.700253,104.672113 C162.642655,105.480396 161.408809,105.884532 159.998679,105.884532 L158.034578,105.884532 C156.523723,105.884532 155.239516,105.480396 154.181918,104.672113 C153.12432,103.86383 152.595529,102.920848 152.595529,101.843137 L152.595529,51.7298475 C152.595529,50.5751576 153.12432,49.6129305 154.181918,48.8431373 C155.239516,48.073344 156.523723,47.6884532 158.034578,47.6884532 L159.998679,47.6884532 Z M291.442352,93.1830065 C290.032221,93.1830065 288.798376,92.9328275 287.740777,92.4324619 C286.683179,91.9320963 286.154388,91.3355154 286.154388,90.6427015 C286.154388,89.795929 285.650778,89.12237 284.643541,88.6220044 C283.636305,88.1216387 282.377279,87.8714597 280.866424,87.8714597 L263.793855,87.8714597 C262.383725,87.8714597 261.149879,87.4865688 260.092281,86.7167756 C259.034683,85.9469824 258.505891,85.0232443 258.505891,83.9455338 L258.505891,81.2897603 C258.505891,80.2120498 259.034683,79.2690672 260.092281,78.4607843 C261.149879,77.6525014 262.383725,77.248366 263.793855,77.248366 L280.866424,77.248366 C282.377279,77.248366 283.636305,76.9212088 284.643541,76.2668845 C285.650778,75.6125603 286.154388,74.7465559 286.154388,73.6688453 C286.154388,72.7450934 285.650778,71.9175781 284.643541,71.1862745 C283.636305,70.4549709 282.377279,70.0893246 280.866424,70.0893246 L263.793855,70.0893246 C262.383725,70.0893246 261.149879,69.7236783 260.092281,68.9923747 C259.034683,68.2610711 258.505891,67.3565776 258.505891,66.2788671 L258.505891,63.5076253 C258.505891,62.4299147 259.034683,61.5061767 260.092281,60.7363834 C261.149879,59.9665902 262.383725,59.5816993 263.793855,59.5816993 L280.866424,59.5816993 C282.377279,59.5816993 283.636305,59.2545421 284.643541,58.6002179 C285.650778,57.9458936 286.154388,57.1953564 286.154388,56.3485839 C286.154388,55.3478527 285.650778,54.5203373 284.643541,53.8660131 C283.636305,53.2116888 282.377279,52.8845316 280.866424,52.8845316 L263.793855,52.8845316 C262.383725,52.8845316 261.149879,52.4803962 260.092281,51.6721133 C259.034683,50.8638304 258.505891,49.9208478 258.505891,48.8431373 L258.505891,46.3028322 C258.505891,45.1481424 259.034683,44.1859153 260.092281,43.416122 C261.149879,42.6463288 262.383725,42.2614379 263.793855,42.2614379 L280.866424,42.2614379 C282.377279,42.2614379 283.636305,41.8957916 284.643541,41.164488 C285.650778,40.4331844 286.154388,39.5286909 286.154388,38.4509804 C286.154388,37.3732698 285.650778,36.4687764 284.643541,35.7374728 C283.636305,35.0061692 282.377279,34.6405229 280.866424,34.6405229 L263.793855,34.6405229 C262.383725,34.6405229 261.149879,34.2363875 260.092281,33.4281046 C259.034683,32.6198217 258.505891,31.6768391 258.505891,30.5991285 L258.505891,28.1742919 C258.505891,27.0196021 259.034683,26.0381304 260.092281,25.2298475 C261.149879,24.4215646 262.383725,24.0174292 263.793855,24.0174292 L280.866424,24.0174292 C282.377279,24.0174292 283.636305,23.6325383 284.643541,22.8627451 C285.650778,22.0929519 286.154388,21.1307247 286.154388,19.9760349 C286.154388,18.821345 285.650778,17.8783624 284.643541,17.1470588 C283.636305,16.4157552 282.377279,16.0501089 280.866424,16.0501089 L263.793855,16.0501089 C262.383725,16.0501089 261.149879,15.6652181 260.092281,14.8954248 C259.034683,14.1256316 258.505891,13.2018936 258.505891,12.124183 L258.505891,9.35294118 C258.505891,8.27523063 259.034683,7.35149259 260.092281,6.58169935 C261.149879,5.8119061 262.383725,5.42701525 263.793855,5.42701525 L280.866424,5.42701525 C282.377279,5.42701525 283.636305,5.15759166 284.643541,4.61873638 C285.650778,4.07988111 286.154388,3.42556667 286.154388,2.65577342 C286.154388,1.9629595 286.683179,1.34713414 287.740777,0.808278867 C288.798376,0.269423595 290.032221,0 291.442352,0 L294.766215,0 C296.27707,0 297.536096,0.269423595 298.543332,0.808278867 C299.550568,1.34713414 300.054179,1.9629595 300.054179,2.65577342 C300.054179,3.42556667 300.58297,4.07988111 301.640568,4.61873638 C302.698166,5.15759166 303.932012,5.42701525 305.342143,5.42701525 L326.040744,5.42701525 C327.450875,5.42701525 328.659541,5.8119061 329.666777,6.58169935 C330.674013,7.35149259 331.177624,8.27523063 331.177624,9.35294118 L331.177624,40.4139434 C331.177624,41.4916539 330.825096,42.7040601 330.120031,44.0511983 C329.414965,45.3983364 328.558827,46.4182972 327.551591,47.1111111 L323.774474,49.9978214 C322.767238,50.8445939 321.382309,51.5373975 319.619645,52.0762527 C317.856982,52.615108 316.270609,52.8845316 314.860478,52.8845316 L305.342143,52.8845316 C303.932012,52.8845316 302.698166,53.2116888 301.640568,53.8660131 C300.58297,54.5203373 300.054179,55.3478527 300.054179,56.3485839 C300.054179,57.1953564 300.58297,57.9458936 301.640568,58.6002179 C302.698166,59.2545421 303.932012,59.5816993 305.342143,59.5816993 L325.58749,59.5816993 C327.098345,59.5816993 328.357371,59.9665902 329.364607,60.7363834 C330.371844,61.5061767 330.875454,62.4299147 330.875454,63.5076253 L330.875454,66.2788671 C330.875454,67.3565776 330.371844,68.2610711 329.364607,68.9923747 C328.357371,69.7236783 327.098345,70.0893246 325.58749,70.0893246 L305.342143,70.0893246 C303.932012,70.0893246 302.698166,70.4549709 301.640568,71.1862745 C300.58297,71.9175781 300.054179,72.7450934 300.054179,73.6688453 C300.054179,74.7465559 300.58297,75.6125603 301.640568,76.2668845 C302.698166,76.9212088 303.932012,77.248366 305.342143,77.248366 L325.58749,77.248366 C327.098345,77.248366 328.357371,77.6525014 329.364607,78.4607843 C330.371844,79.2690672 330.875454,80.2120498 330.875454,81.2897603 L330.875454,83.9455338 C330.875454,85.0232443 330.371844,85.9469824 329.364607,86.7167756 C328.357371,87.4865688 327.098345,87.8714597 325.58749,87.8714597 L305.342143,87.8714597 C303.932012,87.8714597 302.698166,88.1216387 301.640568,88.6220044 C300.58297,89.12237 300.054179,89.795929 300.054179,90.6427015 C300.054179,91.3355154 299.550568,91.9320963 298.543332,92.4324619 C297.536096,92.9328275 296.27707,93.1830065 294.766215,93.1830065 L291.442352,93.1830065 Z M234.483427,95.3769063 C235.591387,95.3769063 236.472705,95.0305046 237.127409,94.3376906 C237.782112,93.6448767 238.109459,92.875095 238.109459,92.0283224 L238.109459,61.1982571 C238.109459,60.0435672 237.782112,59.0813401 237.127409,58.3115468 C236.472705,57.5417536 235.591387,57.1568627 234.483427,57.1568627 C233.576914,57.1568627 232.796318,56.7719719 232.141614,56.0021786 C231.486911,55.2323854 231.159564,54.2701583 231.159564,53.1154684 L231.159564,50.5751634 C231.159564,49.4974529 231.486911,48.5544703 232.141614,47.7461874 C232.796318,46.9379045 233.576914,46.5337691 234.483427,46.5337691 C235.591387,46.5337691 236.472705,46.1488782 237.127409,45.379085 C237.782112,44.6092917 238.109459,43.6855537 238.109459,42.6078431 L238.109459,14.5490196 C238.109459,13.4713091 237.782112,12.5283265 237.127409,11.7200436 C236.472705,10.9117607 235.591387,10.5076253 234.483427,10.5076253 C233.576914,10.5076253 232.796318,10.1227344 232.141614,9.35294118 C231.486911,8.58314793 231.159564,7.65940989 231.159564,6.58169935 L231.159564,3.92592593 C231.159564,2.84821538 231.663174,1.92447734 232.670411,1.1546841 C233.677647,0.38489085 234.886312,0 236.296443,0 L246.872371,0 C248.282502,0 249.491167,0.38489085 250.498403,1.1546841 C251.50564,1.92447734 252.00925,2.84821538 252.00925,3.92592593 L252.00925,44.6862745 C252.00925,45.7639851 251.832986,46.8416794 251.480454,47.91939 C251.127921,48.9971005 250.59913,49.8438604 249.894065,50.459695 C249.289723,50.8445916 248.987556,51.3257052 248.987556,51.9030501 C248.987556,52.480395 249.289723,53.0384868 249.894065,53.577342 C250.59913,53.9622387 251.127921,54.6935313 251.480454,55.7712418 C251.832986,56.8489524 252.00925,57.9266468 252.00925,59.0043573 L252.00925,80.4814815 C252.00925,81.6361714 252.336597,82.9063112 252.991301,84.291939 C253.646004,85.6775668 254.4266,86.7937503 255.333113,87.6405229 L260.469992,92.2592593 C261.376505,93.1060318 262.685892,93.8373244 264.398194,94.453159 C266.110496,95.0689936 267.722049,95.3769063 269.232904,95.3769063 L325.58749,95.3769063 C327.098345,95.3769063 328.357371,95.7617972 329.364607,96.5315904 C330.371844,97.3013837 330.875454,98.2636108 330.875454,99.4183007 L330.875454,101.958606 C330.875454,103.036316 330.371844,103.979299 329.364607,104.787582 C328.357371,105.595865 327.098345,106 325.58749,106 L263.491686,106 C262.081555,106 260.520362,105.711332 258.808061,105.133987 C257.095759,104.556642 255.736011,103.844594 254.728774,102.997821 L253.520097,101.958606 C252.512861,101.111833 251.329376,100.669209 249.969607,100.630719 C248.609838,100.592229 247.375992,100.996365 246.268032,101.843137 L244.606101,103.11329 C243.498141,103.960062 242.138392,104.652866 240.526814,105.191721 C238.915236,105.730576 237.404405,106 235.994274,106 C234.584143,106 233.425839,105.595865 232.519326,104.787582 C231.612813,103.979299 231.159564,103.036316 231.159564,101.958606 L231.159564,99.4183007 C231.159564,98.2636108 231.486911,97.3013837 232.141614,96.5315904 C232.796318,95.7617972 233.576914,95.3769063 234.483427,95.3769063 Z M300.054179,19.9760349 C300.054179,21.1307247 300.58297,22.0929519 301.640568,22.8627451 C302.698166,23.6325383 303.932012,24.0174292 305.342143,24.0174292 L312.140954,24.0174292 C313.551084,24.0174292 314.75975,23.6325383 315.766986,22.8627451 C316.774222,22.0929519 317.277833,21.1307247 317.277833,19.9760349 C317.277833,18.821345 316.774222,17.8783624 315.766986,17.1470588 C314.75975,16.4157552 313.551084,16.0501089 312.140954,16.0501089 L305.342143,16.0501089 C303.932012,16.0501089 302.698166,16.4157552 301.640568,17.1470588 C300.58297,17.8783624 300.054179,18.821345 300.054179,19.9760349 Z M300.054179,38.4509804 C300.054179,39.5286909 300.58297,40.4331844 301.640568,41.164488 C302.698166,41.8957916 303.932012,42.2614379 305.342143,42.2614379 L312.140954,42.2614379 C313.551084,42.2614379 314.75975,41.8957916 315.766986,41.164488 C316.774222,40.4331844 317.277833,39.5286909 317.277833,38.4509804 C317.277833,37.3732698 316.774222,36.4687764 315.766986,35.7374728 C314.75975,35.0061692 313.551084,34.6405229 312.140954,34.6405229 L305.342143,34.6405229 C303.932012,34.6405229 302.698166,35.0061692 301.640568,35.7374728 C300.58297,36.4687764 300.054179,37.3732698 300.054179,38.4509804 Z M351.120802,63.5076253 C352.430209,63.5076253 353.512972,63.1997126 354.369122,62.583878 C355.225273,61.9680434 355.653342,61.2752399 355.653342,60.5054466 C355.653342,59.6586741 355.225273,58.946626 354.369122,58.369281 C353.512972,57.7919361 352.430209,57.503268 351.120802,57.503268 C349.912118,57.503268 348.904897,57.0991326 348.099108,56.2908497 C347.293319,55.4825668 346.890431,54.5395842 346.890431,53.4618736 L346.890431,35.1023965 C346.890431,33.9477066 347.394041,32.9854795 348.401277,32.2156863 C349.408514,31.445893 350.66754,31.0610022 352.178394,31.0610022 L442.37595,31.0610022 C443.786081,31.0610022 444.994746,31.445893 446.001982,32.2156863 C447.009218,32.9854795 447.512829,33.9477066 447.512829,35.1023965 L447.512829,45.956427 C447.512829,47.1111169 447.135121,48.3235231 446.379694,49.5936819 C445.624267,50.8638408 444.642226,51.8453124 443.433543,52.5381264 L441.318357,54.1546841 C440.210397,54.9244773 439.278718,55.8867045 438.52329,57.0413943 C437.767863,58.1960842 437.390155,59.2352895 437.390155,60.1590414 C437.390155,61.0827933 437.893766,61.8718195 438.901002,62.5261438 C439.908238,63.1804681 441.116904,63.5076253 442.527034,63.5076253 C443.836442,63.5076253 444.994746,63.8925161 446.001982,64.6623094 C447.009218,65.4321026 447.512829,66.3558407 447.512829,67.4335512 L447.512829,69.0501089 C447.512829,70.2047988 447.009218,71.1670259 446.001982,71.9368192 C444.994746,72.7066124 443.786081,73.0915033 442.37595,73.0915033 L351.876225,73.0915033 C350.466094,73.0915033 349.257429,72.7066124 348.250193,71.9368192 C347.242956,71.1670259 346.739346,70.2047988 346.739346,69.0501089 L346.739346,67.4335512 C346.739346,66.3558407 347.167415,65.4321026 348.023566,64.6623094 C348.879717,63.8925161 349.912118,63.5076253 351.120802,63.5076253 Z M384.812686,17.7821351 C386.222817,17.7821351 387.481843,17.4934669 388.589803,16.916122 C389.697763,16.3387771 390.251734,15.626729 390.251734,14.7799564 C390.251734,13.9331839 389.697763,13.2211358 388.589803,12.6437908 C387.481843,12.0664459 386.222817,11.7777778 384.812686,11.7777778 L351.876225,11.7777778 C350.466094,11.7777778 349.257429,11.3736424 348.250193,10.5653595 C347.242956,9.75707657 346.739346,8.81409399 346.739346,7.73638344 L346.739346,7.15904139 C346.739346,6.00435153 347.242956,5.0421244 348.250193,4.27233115 C349.257429,3.50253791 350.466094,3.11764706 351.876225,3.11764706 L384.812686,3.11764706 C386.222817,3.11764706 387.481843,2.96369072 388.589803,2.65577342 C389.697763,2.34785612 390.251734,2.00145436 390.251734,1.61655773 C390.251734,1.15468179 390.755345,0.769790937 391.762581,0.461873638 C392.769817,0.15395634 393.978483,0 395.388614,0 L398.863561,0 C400.273692,0 401.507538,0.15395634 402.565136,0.461873638 C403.622734,0.769790937 404.151525,1.15468179 404.151525,1.61655773 C404.151525,2.00145436 404.680316,2.34785612 405.737914,2.65577342 C406.795512,2.96369072 408.029358,3.11764706 409.439489,3.11764706 L442.37595,3.11764706 C443.786081,3.11764706 444.994746,3.50253791 446.001982,4.27233115 C447.009218,5.0421244 447.512829,6.00435153 447.512829,7.15904139 L447.512829,7.73638344 C447.512829,8.81409399 447.009218,9.75707657 446.001982,10.5653595 C444.994746,11.3736424 443.786081,11.7777778 442.37595,11.7777778 L409.439489,11.7777778 C408.029358,11.7777778 406.795512,12.0664459 405.737914,12.6437908 C404.680316,13.2211358 404.151525,13.9331839 404.151525,14.7799564 C404.151525,15.626729 404.680316,16.3387771 405.737914,16.916122 C406.795512,17.4934669 408.029358,17.7821351 409.439489,17.7821351 L442.37595,17.7821351 C443.786081,17.7821351 444.994746,18.1862705 446.001982,18.9945534 C447.009218,19.8028363 447.512829,20.7458189 447.512829,21.8235294 L447.512829,22.4008715 C447.512829,23.5555613 447.009218,24.5177885 446.001982,25.2875817 C444.994746,26.0573749 443.786081,26.4422658 442.37595,26.4422658 L351.876225,26.4422658 C350.466094,26.4422658 349.257429,26.0573749 348.250193,25.2875817 C347.242956,24.5177885 346.739346,23.5555613 346.739346,22.4008715 L346.739346,21.8235294 C346.739346,20.7458189 347.242956,19.8028363 348.250193,18.9945534 C349.257429,18.1862705 350.466094,17.7821351 351.876225,17.7821351 L384.812686,17.7821351 Z M447.512829,94.5686275 C447.512829,95.646338 447.135121,96.8202551 446.379694,98.0904139 C445.624267,99.3605728 444.642226,100.419023 443.433543,101.265795 L440.260764,103.459695 C439.152804,104.07553 437.692334,104.652866 435.879308,105.191721 C434.066283,105.730576 432.454729,106 431.044599,106 L406.56888,106 C405.158749,106 403.950084,105.595865 402.942848,104.787582 C401.935611,103.979299 401.432001,103.036316 401.432001,101.958606 L401.432001,81.2897603 C401.432001,80.2120498 401.935611,79.2690672 402.942848,78.4607843 C403.950084,77.6525014 405.158749,77.248366 406.56888,77.248366 L442.37595,77.248366 C443.786081,77.248366 444.994746,77.6525014 446.001982,78.4607843 C447.009218,79.2690672 447.512829,80.2120498 447.512829,81.2897603 L447.512829,94.5686275 Z M350.063209,96.3006536 C351.171169,96.3006536 352.077668,95.9157627 352.782733,95.1459695 C353.487799,94.3761763 353.840326,93.4139491 353.840326,92.2592593 L353.840326,91.6819172 C353.840326,90.6042067 353.487799,89.6612241 352.782733,88.8529412 C352.077668,88.0446583 351.171169,87.6405229 350.063209,87.6405229 C349.156696,87.6405229 348.3761,87.2363875 347.721396,86.4281046 C347.066693,85.6198217 346.739346,84.6768391 346.739346,83.5991285 L346.739346,83.1372549 C346.739346,81.982565 347.066693,81.0010934 347.721396,80.1928105 C348.3761,79.3845275 349.156696,78.9803922 350.063209,78.9803922 C351.171169,78.9803922 352.052487,78.8649249 352.707191,78.6339869 C353.361894,78.403049 353.689241,78.1336254 353.689241,77.8257081 C353.689241,77.4408114 354.192852,77.1136542 355.200088,76.8442266 C356.207324,76.5747989 357.41599,76.4400871 358.82612,76.4400871 L362.452153,76.4400871 C363.963007,76.4400871 365.222034,76.5747989 366.22927,76.8442266 C367.236506,77.1136542 367.740117,77.4408114 367.740117,77.8257081 C367.740117,78.1336254 368.243727,78.403049 369.250964,78.6339869 C370.2582,78.8649249 371.517226,78.9803922 373.028081,78.9803922 L391.913666,78.9803922 C393.323797,78.9803922 394.557643,79.3845275 395.615241,80.1928105 C396.672839,81.0010934 397.20163,81.982565 397.20163,83.1372549 L397.20163,94.3376906 C397.20163,95.4923805 396.798741,96.7047867 395.992952,97.9749455 C395.187163,99.2451044 394.230303,100.303554 393.122343,101.150327 L390.10065,103.459695 C388.891966,104.07553 387.381134,104.652866 385.568109,105.191721 C383.755084,105.730576 382.14353,106 380.733399,106 L377.86279,106 C376.351936,106 375.067729,105.595865 374.010131,104.787582 C372.952533,103.979299 372.423742,103.036316 372.423742,101.958606 L372.423742,100.22658 C372.423742,99.148869 372.952533,98.2251309 374.010131,97.4553377 C375.067729,96.6855444 376.351936,96.3006536 377.86279,96.3006536 C379.373645,96.3006536 380.657852,95.9157627 381.71545,95.1459695 C382.773048,94.3761763 383.301839,93.4139491 383.301839,92.2592593 L383.301839,91.6819172 C383.301839,90.6042067 382.773048,89.6612241 381.71545,88.8529412 C380.657852,88.0446583 379.373645,87.6405229 377.86279,87.6405229 L373.028081,87.6405229 C371.517226,87.6405229 370.2582,88.0446583 369.250964,88.8529412 C368.243727,89.6612241 367.740117,90.6042067 367.740117,91.6819172 L367.740117,94.3376906 C367.740117,95.4923805 367.337228,96.7047867 366.531439,97.9749455 C365.72565,99.2451044 364.76879,100.303554 363.66083,101.150327 L360.639137,103.459695 C359.531177,104.07553 358.095887,104.652866 356.333223,105.191721 C354.57056,105.730576 352.984186,106 351.574056,106 C350.163925,106 349.005621,105.595865 348.099108,104.787582 C347.192595,103.979299 346.739346,103.036316 346.739346,101.958606 L346.739346,100.22658 C346.739346,99.148869 347.066693,98.2251309 347.721396,97.4553377 C348.3761,96.6855444 349.156696,96.3006536 350.063209,96.3006536 Z M360.790221,44.2244009 C360.790221,45.1481528 361.293832,45.9756681 362.301068,46.7069717 C363.308304,47.4382753 364.567331,47.8039216 366.078185,47.8039216 L428.17399,47.8039216 C429.684844,47.8039216 430.94387,47.4382753 431.951107,46.7069717 C432.958343,45.9756681 433.461954,45.1481528 433.461954,44.2244009 C433.461954,43.2236697 432.958343,42.3769098 431.951107,41.6840959 C430.94387,40.9912819 429.684844,40.6448802 428.17399,40.6448802 L366.078185,40.6448802 C364.567331,40.6448802 363.308304,40.9912819 362.301068,41.6840959 C361.293832,42.3769098 360.790221,43.2236697 360.790221,44.2244009 Z M369.553133,60.5054466 C369.553133,61.2752399 370.081924,61.9680434 371.139522,62.583878 C372.19712,63.1997126 373.430966,63.5076253 374.841097,63.5076253 L418.051316,63.5076253 C419.461447,63.5076253 420.695293,63.1997126 421.752891,62.583878 C422.810489,61.9680434 423.33928,61.2752399 423.33928,60.5054466 C423.33928,59.6586741 422.810489,58.946626 421.752891,58.369281 C420.695293,57.7919361 419.461447,57.503268 418.051316,57.503268 L374.841097,57.503268 C373.430966,57.503268 372.19712,57.7919361 371.139522,58.369281 C370.081924,58.946626 369.553133,59.6586741 369.553133,60.5054466 Z M433.461954,90.9891068 C433.461954,89.9113962 432.958343,88.9876582 431.951107,88.2178649 C430.94387,87.4480717 429.684844,87.0631808 428.17399,87.0631808 L420.77084,87.0631808 C419.259986,87.0631808 417.975779,87.4480717 416.918181,88.2178649 C415.860583,88.9876582 415.331792,89.9113962 415.331792,90.9891068 L415.331792,92.2592593 C415.331792,93.4139491 415.860583,94.3761763 416.918181,95.1459695 C417.975779,95.9157627 419.259986,96.3006536 420.77084,96.3006536 L428.17399,96.3006536 C429.684844,96.3006536 430.94387,95.9157627 431.951107,95.1459695 C432.958343,94.3761763 433.461954,93.4139491 433.461954,92.2592593 L433.461954,90.9891068 Z M462.319128,52.5381264 C462.319128,51.4604158 462.822738,50.5366778 463.829975,49.7668845 C464.837211,48.9970913 466.045876,48.6122004 467.456007,48.6122004 L557.200308,48.6122004 C558.711163,48.6122004 559.99537,48.9970913 561.052968,49.7668845 C562.110566,50.5366778 562.639357,51.4604158 562.639357,52.5381264 L562.639357,55.1938998 C562.639357,56.3485897 562.110566,57.3108168 561.052968,58.08061 C559.99537,58.8504033 558.711163,59.2352941 557.200308,59.2352941 L467.456007,59.2352941 C466.045876,59.2352941 464.837211,58.8504033 463.829975,58.08061 C462.822738,57.3108168 462.319128,56.3485897 462.319128,55.1938998 L462.319128,52.5381264 Z M472.441802,0 C473.851932,0 475.060598,0.38489085 476.067834,1.1546841 C477.07507,1.92447734 477.578681,2.84821538 477.578681,3.92592593 L477.578681,26.9041394 C477.578681,28.0588293 478.107472,29.0210564 479.16507,29.7908497 C480.222668,30.5606429 481.456514,30.9455338 482.866645,30.9455338 L485.737254,30.9455338 C487.248108,30.9455338 488.507134,31.3304246 489.514371,32.1002179 C490.521607,32.8700111 491.025217,33.7937492 491.025217,34.8714597 L491.025217,37.6427015 C491.025217,38.7204121 490.521607,39.6633947 489.514371,40.4716776 C488.507134,41.2799605 487.248108,41.6840959 485.737254,41.6840959 L480.14712,41.6840959 C478.73699,41.6840959 477.150616,41.3954277 475.387953,40.8180828 C473.625289,40.2407379 472.189999,39.5286898 471.082039,38.6819172 L467.304922,36.0261438 C466.39841,35.2563505 465.567452,34.1979007 464.812025,32.8507625 C464.056598,31.5036243 463.67889,30.2912182 463.67889,29.2135076 L463.67889,3.92592593 C463.67889,2.84821538 464.182501,1.92447734 465.189737,1.1546841 C466.196973,0.38489085 467.455999,0 468.966854,0 L472.441802,0 Z M508.702125,0 C510.112256,0 511.346102,0.38489085 512.4037,1.1546841 C513.461298,1.92447734 513.990089,2.84821538 513.990089,3.92592593 L513.990089,26.9041394 C513.990089,28.0588293 514.4937,29.0210564 515.500936,29.7908497 C516.508172,30.5606429 517.716838,30.9455338 519.126968,30.9455338 L522.148662,30.9455338 C523.558793,30.9455338 524.767458,31.3304246 525.774694,32.1002179 C526.781931,32.8700111 527.285541,33.7937492 527.285541,34.8714597 L527.285541,37.6427015 C527.285541,38.7204121 526.781931,39.6633947 525.774694,40.4716776 C524.767458,41.2799605 523.558793,41.6840959 522.148662,41.6840959 L516.256359,41.6840959 C514.846229,41.6840959 513.259855,41.3954277 511.497192,40.8180828 C509.734528,40.2407379 508.349599,39.5286898 507.342363,38.6819172 L503.716331,36.0261438 C502.709095,35.2563505 501.852957,34.1979007 501.147891,32.8507625 C500.442826,31.5036243 500.090298,30.2912182 500.090298,29.2135076 L500.090298,3.92592593 C500.090298,2.84821538 500.593909,1.92447734 501.601145,1.1546841 C502.608381,0.38489085 503.817047,0 505.227178,0 L508.702125,0 Z M533.782183,34.8714597 C533.782183,33.7937492 534.336154,32.8700111 535.444114,32.1002179 C536.552074,31.3304246 537.8111,30.9455338 539.221231,30.9455338 L541.940755,30.9455338 C543.45161,30.9455338 544.735817,30.5606429 545.793415,29.7908497 C546.851013,29.0210564 547.379804,28.0588293 547.379804,26.9041394 L547.379804,3.92592593 C547.379804,2.84821538 547.883415,1.92447734 548.890651,1.1546841 C549.897887,0.38489085 551.156913,0 552.667768,0 L555.840546,0 C557.351401,0 558.635608,0.38489085 559.693206,1.1546841 C560.750804,1.92447734 561.279595,2.84821538 561.279595,3.92592593 L561.279595,29.2135076 C561.279595,30.2912182 560.901887,31.5036243 560.14646,32.8507625 C559.391032,34.1979007 558.459353,35.2563505 557.351393,36.0261438 L553.725361,38.6819172 C552.718124,39.5286898 551.333195,40.2407379 549.570532,40.8180828 C547.807868,41.3954277 546.221495,41.6840959 544.811364,41.6840959 L539.221231,41.6840959 C537.8111,41.6840959 536.552074,41.2799605 535.444114,40.4716776 C534.336154,39.6633947 533.782183,38.7204121 533.782183,37.6427015 L533.782183,34.8714597 Z M562.639357,101.958606 C562.639357,103.036316 562.110566,103.979299 561.052968,104.787582 C559.99537,105.595865 558.711163,106 557.200308,106 L554.480784,106 C553.070653,106 551.48428,105.730576 549.721617,105.191721 C547.958953,104.652866 546.574024,103.960062 545.566788,103.11329 L541.789671,100.22658 C540.681711,99.5337656 539.775212,98.5138048 539.070146,97.1666667 C538.365081,95.8195285 538.012554,94.6071223 538.012554,93.5294118 L538.012554,68.9346405 C538.012554,67.85693 538.541345,66.9139474 539.598943,66.1056645 C540.656541,65.2973816 541.940748,64.8932462 543.451602,64.8932462 L546.775465,64.8932462 C548.185596,64.8932462 549.419442,65.2973816 550.47704,66.1056645 C551.534638,66.9139474 552.063429,67.85693 552.063429,68.9346405 L552.063429,91.2200436 C552.063429,92.3747334 552.56704,93.3562051 553.574276,94.164488 C554.581512,94.9727709 555.790178,95.3769063 557.200308,95.3769063 C558.711163,95.3769063 559.99537,95.7617972 561.052968,96.5315904 C562.110566,97.3013837 562.639357,98.2636108 562.639357,99.4183007 L562.639357,101.958606 Z M462.319128,99.4183007 C462.319128,98.2636108 462.822738,97.3013837 463.829975,96.5315904 C464.837211,95.7617972 466.045876,95.3769063 467.456007,95.3769063 C468.966861,95.3769063 470.251068,94.9727709 471.308666,94.164488 C472.366265,93.3562051 472.895056,92.3747334 472.895056,91.2200436 L472.895056,68.9346405 C472.895056,67.85693 473.423847,66.9139474 474.481445,66.1056645 C475.539043,65.2973816 476.772889,64.8932462 478.183019,64.8932462 L481.657967,64.8932462 C483.068098,64.8932462 484.276763,65.2973816 485.284,66.1056645 C486.291236,66.9139474 486.794846,67.85693 486.794846,68.9346405 L486.794846,93.5294118 C486.794846,94.6071223 486.442319,95.8195285 485.737254,97.1666667 C485.032188,98.5138048 484.17605,99.5337656 483.168814,100.22658 L479.542782,103.11329 C478.434822,103.960062 476.999532,104.652866 475.236868,105.191721 C473.474205,105.730576 471.83747,106 470.326616,106 L467.456007,106 C466.045876,106 464.837211,105.595865 463.829975,104.787582 C462.822738,103.979299 462.319128,103.036316 462.319128,101.958606 L462.319128,99.4183007 Z M638.181698,101.843137 C638.181698,102.920848 637.678087,103.86383 636.670851,104.672113 C635.663615,105.480396 634.404589,105.884532 632.893734,105.884532 L585.906398,105.884532 C584.395544,105.884532 583.136517,105.480396 582.129281,104.672113 C581.122045,103.86383 580.618434,102.920848 580.618434,101.843137 L580.618434,48.6122004 C580.618434,47.6114692 581.122045,46.7839539 582.129281,46.1296296 C583.136517,45.4753054 584.395544,45.1481481 585.906398,45.1481481 L631.987226,45.1481481 C633.397357,45.1481481 634.555661,45.5522835 635.462174,46.3605664 C636.368686,47.1688494 636.821936,48.1118319 636.821936,49.1895425 L636.821936,78.5185185 C636.821936,79.5962291 636.318325,80.5199671 635.311089,81.2897603 C634.303853,82.0595536 633.095187,82.4444444 631.685057,82.4444444 L610.835371,82.4444444 C609.42524,82.4444444 608.216574,82.0595536 607.209338,81.2897603 C606.202102,80.5199671 605.698491,79.5962291 605.698491,78.5185185 L605.698491,75.9782135 C605.698491,74.8235236 606.202102,73.8612965 607.209338,73.0915033 C608.216574,72.32171 609.42524,71.9368192 610.835371,71.9368192 L617.634181,71.9368192 C619.044312,71.9368192 620.278158,71.5326838 621.335756,70.7244009 C622.393354,69.916118 622.922145,68.9731354 622.922145,67.8954248 L622.922145,59.8126362 C622.922145,58.7349256 622.393354,57.7726985 621.335756,56.9259259 C620.278158,56.0791534 619.044312,55.6557734 617.634181,55.6557734 L599.806189,55.6557734 C598.295334,55.6557734 597.036308,56.0791534 596.029072,56.9259259 C595.021835,57.7726985 594.518225,58.7349256 594.518225,59.8126362 L594.518225,91.2200436 C594.518225,92.3747334 595.021835,93.3369606 596.029072,94.1067538 C597.036308,94.8765471 598.295334,95.2614379 599.806189,95.2614379 L632.893734,95.2614379 C634.404589,95.2614379 635.663615,95.6463288 636.670851,96.416122 C637.678087,97.1859153 638.181698,98.1481424 638.181698,99.3028322 L638.181698,101.843137 Z M672.477921,106 L649.059795,106 C647.649664,106 646.390638,105.595865 645.282678,104.787582 C644.174718,103.979299 643.620747,103.036316 643.620747,101.958606 L643.620747,99.4183007 C643.620747,98.2636108 644.174718,97.3013837 645.282678,96.5315904 C646.390638,95.7617972 647.649664,95.3769063 649.059795,95.3769063 L658.57813,95.3769063 C660.088985,95.3769063 661.348011,94.9920155 662.355247,94.2222222 C663.362483,93.452429 663.866094,92.4902019 663.866094,91.335512 L663.866094,3.92592593 C663.866094,2.84821538 664.369705,1.92447734 665.376941,1.1546841 C666.384177,0.38489085 667.643204,0 669.154058,0 L672.477921,0 C673.888052,0 675.121898,0.38489085 676.179496,1.1546841 C677.237094,1.92447734 677.765885,2.84821538 677.765885,3.92592593 L677.765885,101.843137 C677.765885,102.920848 677.237094,103.86383 676.179496,104.672113 C675.121898,105.480396 673.888052,105.923021 672.477921,106 Z M591.496531,39.9520697 L581.827112,39.9520697 C580.719152,39.9520697 579.787472,39.5479343 579.032045,38.7396514 C578.276618,37.9313685 577.89891,36.9883859 577.89891,35.9106754 L577.89891,33.3703704 C577.89891,32.2926598 578.125535,31.3496772 578.578791,30.5413943 C579.032047,29.7331114 579.611199,29.328976 580.316265,29.328976 C581.122054,29.328976 581.751567,28.9248406 582.204823,28.1165577 C582.65808,27.3082748 582.884704,26.3652922 582.884704,25.2875817 L582.884704,3.69498911 C582.884704,2.61727856 583.413495,1.73202961 584.471093,1.03921569 C585.528692,0.346401765 586.762537,0 588.172668,0 L628.210109,0 C629.62024,0 630.828905,0.38489085 631.836141,1.1546841 C632.843378,1.92447734 633.346988,2.84821538 633.346988,3.92592593 L633.346988,25.2875817 C633.346988,26.3652922 633.573613,27.3082748 634.026869,28.1165577 C634.480126,28.9248406 635.109639,29.328976 635.915428,29.328976 C636.419046,29.328976 636.922657,29.7331114 637.426275,30.5413943 C637.929893,31.3496772 638.181698,32.2926598 638.181698,33.3703704 L638.181698,35.9106754 C638.181698,36.9883859 637.829171,37.9313685 637.124105,38.7396514 C636.41904,39.5479343 635.46218,39.9520697 634.253496,39.9520697 L624.735161,39.9520697 C623.325031,39.9520697 622.116365,39.5479343 621.109129,38.7396514 C620.101893,37.9313685 619.598282,36.9883859 619.598282,35.9106754 L619.598282,14.5490196 C619.598282,13.4713091 619.069491,12.5283265 618.011893,11.7200436 C616.954295,10.9117607 615.720449,10.5076253 614.310318,10.5076253 L602.072459,10.5076253 C600.662328,10.5076253 599.403302,10.9117607 598.295342,11.7200436 C597.187382,12.5283265 596.63341,13.4713091 596.63341,14.5490196 L596.63341,35.9106754 C596.63341,36.9883859 596.1298,37.9313685 595.122564,38.7396514 C594.115327,39.5479343 592.906662,39.9520697 591.496531,39.9520697 Z M657.520537,81.8671024 C657.520537,82.9448129 657.016927,83.868551 656.009691,84.6383442 C655.002454,85.4081375 653.743428,85.7930283 652.232574,85.7930283 L649.059795,85.7930283 C647.649664,85.7930283 646.390638,85.4081375 645.282678,84.6383442 C644.174718,83.868551 643.620747,82.9448129 643.620747,81.8671024 L643.620747,3.92592593 C643.620747,2.84821538 644.174718,1.92447734 645.282678,1.1546841 C646.390638,0.38489085 647.649664,0 649.059795,0 L652.232574,0 C653.743428,0 655.002454,0.38489085 656.009691,1.1546841 C657.016927,1.92447734 657.520537,2.84821538 657.520537,3.92592593 L657.520537,81.8671024 Z M709.342583,59.8126362 C710.752714,59.8126362 712.011741,59.4854789 713.1197,58.8311547 C714.22766,58.1768304 714.781632,57.3878042 714.781632,56.4640523 C714.781632,55.5403004 714.22766,54.7320296 713.1197,54.0392157 C712.011741,53.3464018 710.752714,53 709.342583,53 L698.615571,53 C697.20544,53 695.996775,52.6151092 694.989539,51.8453159 C693.982302,51.0755227 693.478692,50.1517846 693.478692,49.0740741 L693.478692,46.5337691 C693.478692,45.3790792 693.88158,44.4168521 694.687369,43.6470588 C695.493158,42.8772656 696.450018,42.4923747 697.557978,42.4923747 C698.665938,42.4923747 699.597618,42.0882393 700.353045,41.2799564 C701.108472,40.4716735 701.48618,39.5286909 701.48618,38.4509804 L701.48618,34.7559913 C701.48618,33.6013014 701.108472,32.6390743 700.353045,31.869281 C699.597618,31.0994878 698.665938,30.7145969 697.557978,30.7145969 C696.450018,30.7145969 695.493158,30.3104616 694.687369,29.5021786 C693.88158,28.6938957 693.478692,27.7509132 693.478692,26.6732026 L693.478692,24.1328976 C693.478692,22.9782077 693.982302,22.0159806 694.989539,21.2461874 C695.996775,20.4763941 697.20544,20.0915033 698.615571,20.0915033 L743.789891,20.0915033 C745.200022,20.0915033 746.408687,20.4763941 747.415923,21.2461874 C748.42316,22.0159806 748.92677,22.9782077 748.92677,24.1328976 L748.92677,26.6732026 C748.92677,27.7509132 748.549062,28.6938957 747.793635,29.5021786 C747.038208,30.3104616 746.156889,30.7145969 745.149653,30.7145969 C744.041693,30.7145969 743.110014,31.0994878 742.354586,31.869281 C741.599159,32.6390743 741.221451,33.6013014 741.221451,34.7559913 L741.221451,38.4509804 C741.221451,39.5286909 741.599159,40.4716735 742.354586,41.2799564 C743.110014,42.0882393 744.041693,42.4923747 745.149653,42.4923747 C746.156889,42.4923747 747.038208,42.8772656 747.793635,43.6470588 C748.549062,44.4168521 748.92677,45.3790792 748.92677,46.5337691 L748.92677,49.0740741 C748.92677,50.1517846 748.42316,51.0755227 747.415923,51.8453159 C746.408687,52.6151092 745.200022,53 743.789891,53 L733.818302,53 C732.408171,53 731.174325,53.3464018 730.116727,54.0392157 C729.059129,54.7320296 728.530338,55.5403004 728.530338,56.4640523 C728.530338,57.3878042 729.059129,58.1768304 730.116727,58.8311547 C731.174325,59.4854789 732.408171,59.8126362 733.818302,59.8126362 L743.789891,59.8126362 C745.200022,59.8126362 746.408687,60.197527 747.415923,60.9673203 C748.42316,61.7371135 748.92677,62.6608515 748.92677,63.7385621 L748.92677,66.2788671 C748.92677,67.3565776 748.42316,68.3188048 747.415923,69.1655773 C746.408687,70.0123499 745.200022,70.4357298 743.789891,70.4357298 L733.818302,70.4357298 C732.408171,70.4357298 731.174325,70.8206207 730.116727,71.5904139 C729.059129,72.3602072 728.530338,73.2839452 728.530338,74.3616558 L728.530338,101.958606 C728.530338,103.036316 728.001547,103.979299 726.943949,104.787582 C725.886351,105.595865 724.652505,106 723.242374,106 L719.918511,106 C718.50838,106 717.299715,105.595865 716.292479,104.787582 C715.285243,103.979299 714.781632,103.036316 714.781632,101.958606 L714.781632,74.3616558 C714.781632,73.2839452 714.22766,72.3602072 713.1197,71.5904139 C712.011741,70.8206207 710.752714,70.4357298 709.342583,70.4357298 L698.615571,70.4357298 C697.20544,70.4357298 695.996775,70.0123499 694.989539,69.1655773 C693.982302,68.3188048 693.478692,67.3565776 693.478692,66.2788671 L693.478692,63.7385621 C693.478692,62.6608515 693.982302,61.7371135 694.989539,60.9673203 C695.996775,60.197527 697.20544,59.8126362 698.615571,59.8126362 L709.342583,59.8126362 Z M713.875124,38.4509804 C713.875124,39.5286909 714.403915,40.4716735 715.461513,41.2799564 C716.519111,42.0882393 717.752957,42.4923747 719.163088,42.4923747 L723.242374,42.4923747 C724.753229,42.4923747 726.037436,42.0882393 727.095034,41.2799564 C728.152632,40.4716735 728.681423,39.5286909 728.681423,38.4509804 L728.681423,34.7559913 C728.681423,33.6013014 728.152632,32.6390743 727.095034,31.869281 C726.037436,31.0994878 724.753229,30.7145969 723.242374,30.7145969 L719.163088,30.7145969 C717.752957,30.7145969 716.519111,31.0994878 715.461513,31.869281 C714.403915,32.6390743 713.875124,33.6013014 713.875124,34.7559913 L713.875124,38.4509804 Z M755.272327,9.35294118 C755.272327,8.27523063 755.801118,7.35149259 756.858716,6.58169935 C757.916314,5.8119061 759.15016,5.42701525 760.560291,5.42701525 L774.157912,5.42701525 C775.668767,5.42701525 776.927793,5.15759166 777.935029,4.61873638 C778.942265,4.07988111 779.445876,3.42556667 779.445876,2.65577342 C779.445876,1.9629595 779.949487,1.34713414 780.956723,0.808278867 C781.963959,0.269423595 783.222986,0 784.73384,0 L787.906618,0 C789.417473,0 790.676499,0.346401765 791.683735,1.03921569 C792.690972,1.73202961 793.194582,2.61727856 793.194582,3.69498911 C793.194582,4.77269965 792.842055,5.94661674 792.136989,7.2167756 C791.431924,8.48693446 790.525425,9.54538429 789.417465,10.3921569 L785.791433,13.2788671 C784.88492,13.971681 783.550352,14.6067509 781.787689,15.1840959 C780.025025,15.7614408 778.438652,16.0501089 777.028521,16.0501089 L773.100319,16.0501089 C771.690189,16.0501089 770.456343,16.4349998 769.398745,17.204793 C768.341147,17.9745863 767.812355,18.8983243 767.812355,19.9760349 L767.812355,31.1764706 C767.812355,32.2541811 768.341147,33.1971637 769.398745,34.0054466 C770.456343,34.8137295 771.690189,35.2178649 773.100319,35.2178649 L787.906618,35.2178649 C789.417473,35.2178649 790.676499,35.6027558 791.683735,36.372549 C792.690972,37.1423423 793.194582,38.1045694 793.194582,39.2592593 L793.194582,41.7995643 C793.194582,42.8772748 792.892416,43.8202574 792.288074,44.6285403 C791.683732,45.4368232 790.978677,45.8409586 790.172888,45.8409586 C789.367099,45.8409586 788.712406,46.2258495 788.208788,46.9956427 C787.705169,47.7654359 787.453364,48.689174 787.453364,49.7668845 L787.453364,101.958606 C787.453364,103.036316 786.949754,103.979299 785.942517,104.787582 C784.935281,105.595865 783.726616,106 782.316485,106 L781.561062,106 C780.150931,106 778.942265,105.595865 777.935029,104.787582 C776.927793,103.979299 776.424182,103.036316 776.424182,101.958606 L776.424182,49.7668845 C776.424182,48.689174 776.021294,47.7654359 775.215505,46.9956427 C774.409716,46.2258495 773.352134,45.8409586 772.042727,45.8409586 C770.934767,45.8409586 769.952726,46.2258495 769.096575,46.9956427 C768.240424,47.7654359 767.812355,48.689174 767.812355,49.7668845 L767.812355,93.5294118 C767.812355,94.6071223 767.459828,95.838773 766.754763,97.2244009 C766.049697,98.6100287 765.24392,99.7262122 764.337408,100.572985 L761.617883,102.882353 C760.509924,103.729126 759.326439,104.460418 758.067393,105.076253 C756.808348,105.692087 755.775946,106 754.970157,106 C754.063645,106 753.283048,105.595865 752.628345,104.787582 C751.973641,103.979299 751.646294,103.036316 751.646294,101.958606 L751.646294,99.4183007 C751.646294,98.2636108 751.822558,97.3013837 752.175091,96.5315904 C752.527624,95.7617972 753.006054,95.3769063 753.610395,95.3769063 C754.114013,95.3769063 754.516902,94.9920155 754.819073,94.2222222 C755.121244,93.452429 755.272327,92.4902019 755.272327,91.335512 L755.272327,9.35294118 Z M740.012774,75.7472767 C741.523628,75.7472767 742.807835,76.1321675 743.865433,76.9019608 C744.923031,77.671754 745.451822,78.5954921 745.451822,79.6732026 L745.451822,91.335512 C745.451822,92.4902019 745.602906,93.452429 745.905077,94.2222222 C746.207247,94.9920155 746.610136,95.3769063 747.113754,95.3769063 C747.617372,95.3769063 748.045441,95.7617972 748.397974,96.5315904 C748.750506,97.3013837 748.92677,98.2636108 748.92677,99.4183007 L748.92677,101.958606 C748.92677,103.036316 748.624604,103.979299 748.020262,104.787582 C747.41592,105.595865 746.610143,106 745.602907,106 C744.797118,106 743.764716,105.711332 742.505671,105.133987 C741.246626,104.556642 740.113502,103.844594 739.106266,102.997821 L736.235657,100.457516 C735.329144,99.6107438 734.548548,98.5138048 733.893844,97.1666667 C733.239141,95.8195285 732.911794,94.6071223 732.911794,93.5294118 L732.911794,79.6732026 C732.911794,78.5954921 733.440585,77.671754 734.498183,76.9019608 C735.555781,76.1321675 736.789627,75.7472767 738.199758,75.7472767 L740.012774,75.7472767 Z M693.478692,9.23747277 C693.478692,8.15976222 693.982302,7.23602418 694.989539,6.46623094 C695.996775,5.69643769 697.20544,5.31154684 698.615571,5.31154684 L729.8901,5.31154684 C731.300231,5.31154684 732.534077,5.04212325 733.591675,4.50326797 C734.649273,3.9644127 735.178064,3.34858734 735.178064,2.65577342 C735.178064,1.88598017 735.681675,1.25091027 736.688911,0.750544662 C737.696147,0.250179052 738.904813,0 740.314943,0 L743.789891,0 C745.200022,0 746.408687,0.346401765 747.415923,1.03921569 C748.42316,1.73202961 748.92677,2.61727856 748.92677,3.69498911 C748.92677,4.77269965 748.574243,5.9273722 747.869177,7.15904139 C747.164112,8.39071059 746.307974,9.3914268 745.300738,10.16122 L741.523621,13.1633987 C740.516384,13.8562126 739.131455,14.4912825 737.368792,15.0686275 C735.606129,15.6459724 734.019755,15.9346405 732.609624,15.9346405 L698.615571,15.9346405 C697.20544,15.9346405 695.996775,15.5305051 694.989539,14.7222222 C693.982302,13.9139393 693.478692,12.9709567 693.478692,11.8932462 L693.478692,9.23747277 Z M693.478692,99.4183007 C693.478692,98.2636108 693.654955,97.3013837 694.007488,96.5315904 C694.360021,95.7617972 694.78809,95.3769063 695.291708,95.3769063 C695.795326,95.3769063 696.198215,94.9920155 696.500385,94.2222222 C696.802556,93.452429 696.953639,92.4902019 696.953639,91.335512 L696.953639,79.6732026 C696.953639,78.5954921 697.482431,77.671754 698.540029,76.9019608 C699.597627,76.1321675 700.881834,75.7472767 702.392688,75.7472767 L704.356789,75.7472767 C705.76692,75.7472767 706.975585,76.1321675 707.982821,76.9019608 C708.990058,77.671754 709.493668,78.5954921 709.493668,79.6732026 L709.493668,93.5294118 C709.493668,94.6071223 709.141141,95.838773 708.436075,97.2244009 C707.73101,98.6100287 706.975594,99.7262122 706.169805,100.572985 L703.299196,102.882353 C702.392683,103.729126 701.28474,104.460418 699.975333,105.076253 C698.665926,105.692087 697.608344,106 696.802555,106 C695.795319,106 694.989542,105.595865 694.3852,104.787582 C693.780858,103.979299 693.478692,103.036316 693.478692,101.958606 L693.478692,99.4183007 Z M809.058474,3.92592593 C809.058474,2.84821538 809.562084,1.92447734 810.569321,1.1546841 C811.576557,0.38489085 812.785222,0 814.195353,0 L904.695078,0 C906.105208,0 907.313874,0.38489085 908.32111,1.1546841 C909.328346,1.92447734 909.831957,2.84821538 909.831957,3.92592593 L909.831957,93.4139434 C909.831957,94.4916539 909.479429,95.7040601 908.774364,97.0511983 C908.069299,98.3983364 907.213161,99.4182972 906.205924,100.111111 L902.428807,103.11329 C901.320848,103.960062 899.885557,104.652866 898.122894,105.191721 C896.360231,105.730576 894.773857,106 893.363726,106 L814.195353,106 C812.785222,106 811.576557,105.846044 810.569321,105.538126 C809.562084,105.230209 809.058474,104.845318 809.058474,104.383442 L809.058474,3.92592593 Z M895.781081,14.664488 C895.781081,13.5867775 895.277471,12.6437949 894.270235,11.835512 C893.262998,11.0272291 892.003972,10.6230937 890.493117,10.6230937 L828.397313,10.6230937 C826.886459,10.6230937 825.627432,11.0272291 824.620196,11.835512 C823.61296,12.6437949 823.109349,13.5867775 823.109349,14.664488 L823.109349,91.2200436 C823.109349,92.3747334 823.61296,93.3369606 824.620196,94.1067538 C825.627432,94.8765471 826.886459,95.2614379 828.397313,95.2614379 L890.493117,95.2614379 C892.003972,95.2614379 893.262998,94.8765471 894.270235,94.1067538 C895.277471,93.3369606 895.781081,92.3747334 895.781081,91.2200436 L895.781081,14.664488 Z M833.232023,78.0566449 C834.642154,78.0566449 835.800458,77.671754 836.706971,76.9019608 C837.613483,76.1321675 838.066733,75.1699404 838.066733,74.0152505 L838.066733,57.2723312 C838.066733,56.1946206 837.613483,55.2708826 836.706971,54.5010893 C835.800458,53.7312961 834.642154,53.3464052 833.232023,53.3464052 C832.023339,53.3464052 830.965757,52.9422698 830.059245,52.1339869 C829.152732,51.325704 828.699482,50.3827214 828.699482,49.3050109 L828.699482,46.5337691 C828.699482,45.4560585 829.228274,44.5323205 830.285872,43.7625272 C831.34347,42.992734 832.577316,42.6078431 833.987446,42.6078431 L885.054069,42.6078431 C886.4642,42.6078431 887.672865,42.992734 888.680101,43.7625272 C889.687338,44.5323205 890.190948,45.4560585 890.190948,46.5337691 L890.190948,49.3050109 C890.190948,50.3827214 889.762879,51.325704 888.906728,52.1339869 C888.050578,52.9422698 886.967815,53.3464052 885.658408,53.3464052 C884.449724,53.3464052 883.366961,53.7312961 882.410087,54.5010893 C881.453213,55.2708826 880.974783,56.1946206 880.974783,57.2723312 L880.974783,74.0152505 C880.974783,75.1699404 881.453213,76.1321675 882.410087,76.9019608 C883.366961,77.671754 884.449724,78.0566449 885.658408,78.0566449 C886.967815,78.0566449 888.050578,78.4607803 888.906728,79.2690632 C889.762879,80.0773461 890.190948,81.0588178 890.190948,82.2135076 L890.190948,84.7538126 C890.190948,85.9085025 889.687338,86.8707296 888.680101,87.6405229 C887.672865,88.4103161 886.4642,88.795207 885.054069,88.795207 L883.392137,88.795207 C881.982007,88.795207 880.420814,88.5257834 878.708512,87.9869281 C876.996211,87.4480728 875.636462,86.7552693 874.629226,85.9084967 L870.701024,83.1372549 C869.693788,82.3674617 868.83765,81.3090118 868.132585,79.9618736 C867.427519,78.6147355 867.074992,77.4023293 867.074992,76.3246187 L867.074992,57.2723312 C867.074992,56.1946206 866.546201,55.2708826 865.488603,54.5010893 C864.431005,53.7312961 863.197159,53.3464052 861.787028,53.3464052 L857.254487,53.3464052 C855.743633,53.3464052 854.484607,53.7312961 853.47737,54.5010893 C852.470134,55.2708826 851.966524,56.1946206 851.966524,57.2723312 L851.966524,76.3246187 C851.966524,77.4023293 851.613996,78.6147355 850.908931,79.9618736 C850.203865,81.3090118 849.347727,82.3674617 848.340491,83.1372549 L844.563374,85.9084967 C843.455414,86.7552693 842.045305,87.4480728 840.333003,87.9869281 C838.620701,88.5257834 837.009148,88.795207 835.498293,88.795207 L833.987446,88.795207 C832.577316,88.795207 831.34347,88.4103161 830.285872,87.6405229 C829.228274,86.8707296 828.699482,85.9085025 828.699482,84.7538126 L828.699482,82.2135076 C828.699482,81.0588178 829.152732,80.0773461 830.059245,79.2690632 C830.965757,78.4607803 832.023339,78.0566449 833.232023,78.0566449 Z M890.190948,26.211329 C890.190948,27.2890395 889.687338,28.2127776 888.680101,28.9825708 C887.672865,29.7523641 886.4642,30.1372549 885.054069,30.1372549 L833.987446,30.1372549 C832.577316,30.1372549 831.34347,29.7523641 830.285872,28.9825708 C829.228274,28.2127776 828.699482,27.2890395 828.699482,26.211329 L828.699482,23.5555556 C828.699482,22.477845 829.228274,21.554107 830.285872,20.7843137 C831.34347,20.0145205 832.577316,19.6296296 833.987446,19.6296296 L885.054069,19.6296296 C886.4642,19.6296296 887.672865,20.0145205 888.680101,20.7843137 C889.687338,21.554107 890.190948,22.477845 890.190948,23.5555556 L890.190948,26.211329 Z M1024.50523,45.8409586 C1024.50523,46.9186692 1024.1527,48.1118308 1023.44764,49.4204793 C1022.74257,50.7291278 1021.83607,51.7683331 1020.72811,52.5381264 L1017.10208,55.540305 C1016.19557,56.2331189 1014.861,56.8681888 1013.09834,57.4455338 C1011.33567,58.0228787 1009.7493,58.3115468 1008.33917,58.3115468 L987.791653,58.3115468 C986.381522,58.3115468 985.172857,57.926656 984.165621,57.1568627 C983.158384,56.3870695 982.654774,55.4633315 982.654774,54.3856209 L982.654774,7.15904139 C982.654774,6.00435153 983.158384,5.0421244 984.165621,4.27233115 C985.172857,3.50253791 986.381522,3.11764706 987.791653,3.11764706 L1019.21727,3.11764706 C1020.6274,3.11764706 1021.86124,3.50253791 1022.91884,4.27233115 C1023.97644,5.0421244 1024.50523,6.00435153 1024.50523,7.15904139 L1024.50523,45.8409586 Z M1010.60544,17.6666667 C1010.60544,16.5889561 1010.10183,15.6652181 1009.09459,14.8954248 C1008.08736,14.1256316 1006.82833,13.7407407 1005.31748,13.7407407 L1001.69144,13.7407407 C1000.28131,13.7407407 999.047467,14.1256316 997.989869,14.8954248 C996.932271,15.6652181 996.40348,16.5889561 996.40348,17.6666667 L996.40348,43.7625272 C996.40348,44.8402378 996.932271,45.7832204 997.989869,46.5915033 C999.047467,47.3997862 1000.28131,47.8039216 1001.69144,47.8039216 L1005.31748,47.8039216 C1006.82833,47.8039216 1008.08736,47.3997862 1009.09459,46.5915033 C1010.10183,45.7832204 1010.60544,44.8402378 1010.60544,43.7625272 L1010.60544,17.6666667 Z M927.508865,65.3551198 C927.508865,64.20043 928.012475,63.2382028 929.019711,62.4684096 C930.026948,61.6986163 931.285974,61.3137255 932.796829,61.3137255 L1016.49774,61.3137255 C1018.0086,61.3137255 1019.26762,61.6986163 1020.27486,62.4684096 C1021.2821,63.2382028 1021.78571,64.20043 1021.78571,65.3551198 L1021.78571,93.6448802 C1021.78571,94.7225907 1021.408,95.9157524 1020.65257,97.2244009 C1019.89714,98.5330494 1019.01583,99.6107438 1018.00859,100.457516 L1014.38256,103.11329 C1013.47604,103.960062 1012.14148,104.652866 1010.37881,105.191721 C1008.61615,105.730576 1007.02978,106 1005.61965,106 L932.796829,106 C931.285974,106 930.026948,105.595865 929.019711,104.787582 C928.012475,103.979299 927.508865,103.036316 927.508865,101.958606 L927.508865,65.3551198 Z M1002.59795,95.3769063 C1004.10881,95.3769063 1005.36783,95.0305046 1006.37507,94.3376906 C1007.38231,93.6448767 1007.88592,92.875095 1007.88592,92.0283224 C1007.88592,91.1815499 1007.38231,90.4310127 1006.37507,89.7766885 C1005.36783,89.1223642 1004.10881,88.795207 1002.59795,88.795207 L946.696619,88.795207 C945.185765,88.795207 943.926739,89.1223642 942.919502,89.7766885 C941.912266,90.4310127 941.408655,91.1815499 941.408655,92.0283224 C941.408655,92.875095 941.912266,93.6448767 942.919502,94.3376906 C943.926739,95.0305046 945.185765,95.3769063 946.696619,95.3769063 L1002.59795,95.3769063 Z M946.696619,71.9368192 C945.185765,71.9368192 943.926739,72.3024655 942.919502,73.0337691 C941.912266,73.7650726 941.408655,74.592588 941.408655,75.5163399 C941.408655,76.5940504 941.912266,77.4792994 942.919502,78.1721133 C943.926739,78.8649272 945.185765,79.211329 946.696619,79.211329 L1002.59795,79.211329 C1004.10881,79.211329 1005.36783,78.8649272 1006.37507,78.1721133 C1007.38231,77.4792994 1007.88592,76.5940504 1007.88592,75.5163399 C1007.88592,74.592588 1007.38231,73.7650726 1006.37507,73.0337691 C1005.36783,72.3024655 1004.10881,71.9368192 1002.59795,71.9368192 L946.696619,71.9368192 Z M938.538046,2.88671024 C938.538046,3.73348281 939.041657,4.44553088 940.048893,5.02287582 C941.05613,5.60022075 942.264795,5.88888889 943.674926,5.88888889 L971.474507,5.88888889 C972.884638,5.88888889 974.118484,6.29302428 975.176082,7.10130719 C976.23368,7.9095901 976.762471,8.85257268 976.762471,9.93028322 L976.762471,12.4705882 C976.762471,13.5482988 976.23368,14.4912814 975.176082,15.2995643 C974.118484,16.1078472 972.884638,16.5119826 971.474507,16.5119826 L962.86268,16.5119826 C961.45255,16.5119826 960.269065,16.916118 959.31219,17.7244009 C958.355316,18.5326838 957.876886,19.4756664 957.876886,20.5533769 L957.876886,21.8235294 C957.876886,22.9782193 958.355316,23.9596909 959.31219,24.7679739 C960.269065,25.5762568 961.45255,25.9803922 962.86268,25.9803922 L971.474507,25.9803922 C972.884638,25.9803922 974.118484,26.365283 975.176082,27.1350763 C976.23368,27.9048695 976.762471,28.8670966 976.762471,30.0217865 L976.762471,32.4466231 C976.762471,33.601313 976.23368,34.5827846 975.176082,35.3910675 C974.118484,36.1993504 972.884638,36.6034858 971.474507,36.6034858 L964.675697,36.6034858 C963.265566,36.6034858 962.283525,36.9113985 961.729545,37.5272331 C961.175565,38.1430677 961.301468,38.9513385 962.107257,39.9520697 L965.128951,44.1089325 C965.834016,45.1096637 966.891598,45.9756681 968.301729,46.7069717 C969.71186,47.4382753 971.071608,47.8039216 972.381015,47.8039216 C973.589699,47.8039216 974.6221,48.1888124 975.478251,48.9586057 C976.334402,49.7283989 976.762471,50.6521369 976.762471,51.7298475 L976.762471,54.3856209 C976.762471,55.4633315 976.23368,56.3870695 975.176082,57.1568627 C974.118484,57.926656 972.884638,58.3115468 971.474507,58.3115468 L963.618104,58.3115468 C962.207973,58.3115468 960.747502,57.9651451 959.236648,57.2723312 C957.725794,56.5795172 956.668211,55.6942683 956.06387,54.6165577 L952.891091,49.9978214 C952.387473,48.9970901 951.682418,48.496732 950.775906,48.496732 C949.869393,48.496732 949.113977,48.9970901 948.509636,49.9978214 L945.185772,54.7320261 C944.682154,55.7327574 943.674933,56.5795172 942.164079,57.2723312 C940.653224,57.9651451 939.192754,58.3115468 937.782623,58.3115468 L929.775135,58.3115468 C928.365004,58.3115468 927.156339,57.926656 926.149103,57.1568627 C925.141866,56.3870695 924.638256,55.4633315 924.638256,54.3856209 L924.638256,51.7298475 C924.638256,50.6521369 925.066325,49.7283989 925.922475,48.9586057 C926.778626,48.1888124 927.91175,47.8039216 929.321881,47.8039216 C930.530564,47.8039216 931.814771,47.4382753 933.17454,46.7069717 C934.534309,45.9756681 935.617072,45.1096637 936.422861,44.1089325 L938.991301,39.9520697 C939.79709,39.0283178 939.948173,38.2392916 939.444555,37.5849673 C938.940936,36.9306431 937.933715,36.6034858 936.422861,36.6034858 L929.775135,36.6034858 C928.365004,36.6034858 927.156339,36.1993504 926.149103,35.3910675 C925.141866,34.5827846 924.638256,33.601313 924.638256,32.4466231 L924.638256,30.0217865 C924.638256,28.8670966 925.141866,27.9048695 926.149103,27.1350763 C927.156339,26.365283 928.365004,25.9803922 929.775135,25.9803922 L938.689131,25.9803922 C940.099262,25.9803922 941.333108,25.5762568 942.390706,24.7679739 C943.448304,23.9596909 943.977095,22.9782193 943.977095,21.8235294 L943.977095,20.5533769 C943.977095,19.4756664 943.549026,18.5326838 942.692875,17.7244009 C941.836724,16.916118 940.854684,16.5119826 939.746724,16.5119826 C938.638764,16.5119826 937.329377,16.242559 935.818522,15.7037037 C934.307668,15.1648484 933.048641,14.510534 932.041405,13.7407407 L928.264288,10.9694989 C927.257052,10.1227263 926.400914,9.02578742 925.695848,7.67864924 C924.990783,6.33151106 924.638256,5.0806158 924.638256,3.92592593 C924.638256,2.84821538 925.141866,1.92447734 926.149103,1.1546841 C927.156339,0.38489085 928.365004,0 929.775135,0 L933.250083,0 C934.760937,0 936.019963,0.288668137 937.0272,0.866013072 C938.034436,1.44335801 938.538046,2.11691699 938.538046,2.88671024 Z M1092.64442,78.2875817 C1094.05455,78.2875817 1095.26322,78.5377608 1096.27045,79.0381264 C1097.27769,79.538492 1097.7813,80.1350728 1097.7813,80.8278867 C1097.7813,81.5207006 1098.33527,82.1172814 1099.44323,82.6176471 C1100.55119,83.1180127 1101.81022,83.3681917 1103.22035,83.3681917 L1111.37892,83.3681917 C1112.88978,83.3681917 1114.1488,83.7723271 1115.15604,84.58061 C1116.16328,85.3888929 1116.66689,86.3703646 1116.66689,87.5250545 L1116.66689,89.0261438 C1116.66689,90.1038543 1116.16328,91.0275924 1115.15604,91.7973856 C1114.1488,92.5671789 1112.88978,92.9520697 1111.37892,92.9520697 L1100.50083,92.9520697 C1099.0907,92.9520697 1097.50432,92.6826461 1095.74166,92.1437908 C1093.97899,91.6049356 1092.5437,90.9506211 1091.43574,90.1808279 L1087.80971,87.2941176 C1086.70175,86.5243244 1085.77007,85.5620973 1085.01465,84.4074074 C1084.25922,83.2527175 1083.88151,82.2135122 1083.88151,81.2897603 C1083.88151,80.4429878 1084.43548,79.7309397 1085.54344,79.1535948 C1086.6514,78.5762498 1087.91043,78.2875817 1089.32056,78.2875817 L1092.64442,78.2875817 Z M1040.21804,100.457516 C1040.21804,99.3028265 1040.3943,98.3405993 1040.74683,97.5708061 C1041.09937,96.8010129 1041.5778,96.416122 1042.18214,96.416122 C1042.78648,96.416122 1043.29009,96.0119866 1043.69299,95.2037037 C1044.09588,94.3954208 1044.29732,93.4524382 1044.29732,92.3747277 L1044.29732,82.328976 C1044.29732,81.1742862 1044.80093,80.212059 1045.80817,79.4422658 C1046.81541,78.6724725 1048.02407,78.2875817 1049.4342,78.2875817 L1052.90915,78.2875817 C1054.31928,78.2875817 1055.52795,78.6724725 1056.53518,79.4422658 C1057.54242,80.212059 1058.04603,81.1742862 1058.04603,82.328976 L1058.04603,93.5294118 C1058.04603,94.6071223 1057.6935,95.8195285 1056.98844,97.1666667 C1056.28337,98.5138048 1055.42723,99.5337656 1054.42,100.22658 L1050.64288,103.11329 C1049.63564,103.960062 1048.42698,104.652866 1047.01685,105.191721 C1045.60672,105.730576 1044.44841,106 1043.5419,106 C1042.63539,106 1041.85479,105.595865 1041.20009,104.787582 C1040.54538,103.979299 1040.21804,103.036316 1040.21804,101.958606 L1040.21804,100.457516 Z M1071.49257,78.2875817 C1072.9027,78.2875817 1074.16172,78.6724725 1075.26968,79.4422658 C1076.37764,80.212059 1076.93162,81.1742862 1076.93162,82.328976 L1076.93162,92.3747277 C1076.93162,93.4524382 1077.43523,94.3954208 1078.44246,95.2037037 C1079.4497,96.0119866 1080.65836,96.416122 1082.06849,96.416122 L1111.37892,96.416122 C1112.88978,96.416122 1114.1488,96.8010129 1115.15604,97.5708061 C1116.16328,98.3405993 1116.66689,99.3028265 1116.66689,100.457516 L1116.66689,101.958606 C1116.66689,103.036316 1116.16328,103.979299 1115.15604,104.787582 C1114.1488,105.595865 1112.88978,106 1111.37892,106 L1079.50006,106 C1078.08992,106 1076.47837,105.730576 1074.66535,105.191721 C1072.85232,104.652866 1071.44221,103.960062 1070.43497,103.11329 L1066.65786,100.111111 C1065.5499,99.4952765 1064.66858,98.4945603 1064.01388,97.1089325 C1063.35917,95.7233046 1063.03182,94.4916539 1063.03182,93.4139434 L1063.03182,82.328976 C1063.03182,81.1742862 1063.53544,80.212059 1064.54267,79.4422658 C1065.54991,78.6724725 1066.80893,78.2875817 1068.31979,78.2875817 L1071.49257,78.2875817 Z M1121.35051,66.2788671 C1122.65992,66.2788671 1123.8434,66.0864217 1124.901,65.7015251 C1125.9586,65.3166284 1126.48739,64.8547594 1126.48739,64.3159041 C1126.48739,63.8540282 1125.9586,63.4498928 1124.901,63.1034858 C1123.8434,62.7570789 1122.65992,62.583878 1121.35051,62.583878 L1045.35492,62.583878 C1043.94479,62.583878 1042.73612,62.1797426 1041.72888,61.3714597 C1040.72165,60.5631768 1040.21804,59.5817051 1040.21804,58.4270153 L1040.21804,58.08061 C1040.21804,56.9259202 1040.72165,55.963693 1041.72888,55.1938998 C1042.73612,54.4241065 1043.94479,54.0392157 1045.35492,54.0392157 L1121.35051,54.0392157 C1122.65992,54.0392157 1123.8434,53.8852593 1124.901,53.577342 C1125.9586,53.2694247 1126.48739,52.8845339 1126.48739,52.422658 C1126.48739,51.8838027 1125.9586,51.4219337 1124.901,51.037037 C1123.8434,50.6521404 1122.65992,50.459695 1121.35051,50.459695 L1045.35492,50.459695 C1043.94479,50.459695 1042.73612,50.0748041 1041.72888,49.3050109 C1040.72165,48.5352176 1040.21804,47.6114796 1040.21804,46.5337691 L1040.21804,45.1481481 C1040.21804,43.9934583 1040.72165,43.0119866 1041.72888,42.2037037 C1042.73612,41.3954208 1043.94479,40.9912854 1045.35492,40.9912854 L1051.54939,40.9912854 C1053.06024,40.9912854 1054.31927,40.8180845 1055.32651,40.4716776 C1056.33374,40.1252706 1056.83735,39.7211352 1056.83735,39.2592593 C1056.83735,38.7973833 1056.33374,38.4124925 1055.32651,38.1045752 C1054.31927,37.7966579 1053.06024,37.6427015 1051.54939,37.6427015 L1045.35492,37.6427015 C1043.94479,37.6427015 1042.73612,37.2385661 1041.72888,36.4302832 C1040.72165,35.6220003 1040.21804,34.6405286 1040.21804,33.4858388 L1040.21804,33.0239651 C1040.21804,31.9462546 1040.72165,31.003272 1041.72888,30.1949891 C1042.73612,29.3867062 1043.94479,28.9825708 1045.35492,28.9825708 L1051.54939,28.9825708 C1053.06024,28.9825708 1054.31927,28.8093699 1055.32651,28.462963 C1056.33374,28.116556 1056.83735,27.6354424 1056.83735,27.0196078 C1056.83735,26.4037732 1056.33374,25.9034151 1055.32651,25.5185185 C1054.31927,25.1336219 1053.06024,24.9411765 1051.54939,24.9411765 L1045.35492,24.9411765 C1043.94479,24.9411765 1042.73612,24.5562856 1041.72888,23.7864924 C1040.72165,23.0166991 1040.21804,22.0929611 1040.21804,21.0152505 L1040.21804,20.4379085 C1040.21804,19.360198 1040.72165,18.4172154 1041.72888,17.6089325 C1042.73612,16.8006496 1043.94479,16.3965142 1045.35492,16.3965142 L1051.54939,16.3965142 C1053.06024,16.3965142 1054.31927,16.1848242 1055.32651,15.7614379 C1056.33374,15.3380516 1056.83735,14.8569381 1056.83735,14.3180828 C1056.83735,13.7792275 1056.33374,13.298114 1055.32651,12.8747277 C1054.31927,12.4513414 1053.06024,12.2396514 1051.54939,12.2396514 L1045.35492,12.2396514 C1043.94479,12.2396514 1042.73612,11.8547606 1041.72888,11.0849673 C1040.72165,10.3151741 1040.21804,9.35294695 1040.21804,8.19825708 L1040.21804,7.85185185 C1040.21804,6.77414131 1040.72165,5.81191418 1041.72888,4.96514161 C1042.73612,4.11836904 1043.94479,3.69498911 1045.35492,3.69498911 L1051.54939,3.69498911 C1053.06024,3.69498911 1054.31927,3.52178822 1055.32651,3.17538126 C1056.33374,2.8289743 1056.83735,2.38634983 1056.83735,1.84749455 C1056.83735,1.23165996 1057.34096,0.769790937 1058.3482,0.461873638 C1059.35544,0.15395634 1060.61446,0 1062.12532,0 L1065.75135,0 C1067.06076,0 1068.24424,0.15395634 1069.30184,0.461873638 C1070.35944,0.769790937 1070.88823,1.23165996 1070.88823,1.84749455 C1070.88823,2.38634983 1071.39184,2.8289743 1072.39907,3.17538126 C1073.40631,3.52178822 1074.61498,3.69498911 1076.02511,3.69498911 L1082.21958,3.69498911 C1083.73043,3.69498911 1084.98946,4.11836904 1085.9967,4.96514161 C1087.00393,5.81191418 1087.50754,6.77414131 1087.50754,7.85185185 L1087.50754,8.19825708 C1087.50754,9.35294695 1087.00393,10.3151741 1085.9967,11.0849673 C1084.98946,11.8547606 1083.73043,12.2396514 1082.21958,12.2396514 L1076.02511,12.2396514 C1074.61498,12.2396514 1073.40631,12.4513414 1072.39907,12.8747277 C1071.39184,13.298114 1070.88823,13.7792275 1070.88823,14.3180828 C1070.88823,14.8569381 1071.39184,15.3380516 1072.39907,15.7614379 C1073.40631,16.1848242 1074.61498,16.3965142 1076.02511,16.3965142 L1082.21958,16.3965142 C1083.73043,16.3965142 1084.98946,16.8006496 1085.9967,17.6089325 C1087.00393,18.4172154 1087.50754,19.360198 1087.50754,20.4379085 L1087.50754,21.0152505 C1087.50754,22.0929611 1087.00393,23.0166991 1085.9967,23.7864924 C1084.98946,24.5562856 1083.73043,24.9411765 1082.21958,24.9411765 L1076.02511,24.9411765 C1074.61498,24.9411765 1073.40631,25.1336219 1072.39907,25.5185185 C1071.39184,25.9034151 1070.88823,26.4037732 1070.88823,27.0196078 C1070.88823,27.6354424 1071.39184,28.116556 1072.39907,28.462963 C1073.40631,28.8093699 1074.61498,28.9825708 1076.02511,28.9825708 L1082.21958,28.9825708 C1083.73043,28.9825708 1084.98946,29.3867062 1085.9967,30.1949891 C1087.00393,31.003272 1087.50754,31.9462546 1087.50754,33.0239651 L1087.50754,33.4858388 C1087.50754,34.6405286 1087.00393,35.6220003 1085.9967,36.4302832 C1084.98946,37.2385661 1083.73043,37.6427015 1082.21958,37.6427015 L1076.02511,37.6427015 C1074.61498,37.6427015 1073.40631,37.7966579 1072.39907,38.1045752 C1071.39184,38.4124925 1070.88823,38.7973833 1070.88823,39.2592593 C1070.88823,39.7211352 1071.39184,40.1252706 1072.39907,40.4716776 C1073.40631,40.8180845 1074.61498,40.9912854 1076.02511,40.9912854 L1104.42903,40.9912854 C1105.93988,40.9912854 1107.19891,40.8180845 1108.20614,40.4716776 C1109.21338,40.1252706 1109.71699,39.7211352 1109.71699,39.2592593 C1109.71699,38.7973833 1109.21338,38.4124925 1108.20614,38.1045752 C1107.19891,37.7966579 1105.93988,37.6427015 1104.42903,37.6427015 L1098.23456,37.6427015 C1096.82442,37.6427015 1095.61576,37.2385661 1094.60852,36.4302832 C1093.60129,35.6220003 1093.09768,34.6405286 1093.09768,33.4858388 L1093.09768,33.0239651 C1093.09768,31.9462546 1093.60129,31.003272 1094.60852,30.1949891 C1095.61576,29.3867062 1096.82442,28.9825708 1098.23456,28.9825708 L1104.42903,28.9825708 C1105.93988,28.9825708 1107.19891,28.8093699 1108.20614,28.462963 C1109.21338,28.116556 1109.71699,27.6354424 1109.71699,27.0196078 C1109.71699,26.4037732 1109.21338,25.9034151 1108.20614,25.5185185 C1107.19891,25.1336219 1105.93988,24.9411765 1104.42903,24.9411765 L1098.23456,24.9411765 C1096.82442,24.9411765 1095.61576,24.5562856 1094.60852,23.7864924 C1093.60129,23.0166991 1093.09768,22.0929611 1093.09768,21.0152505 L1093.09768,20.4379085 C1093.09768,19.360198 1093.60129,18.4172154 1094.60852,17.6089325 C1095.61576,16.8006496 1096.82442,16.3965142 1098.23456,16.3965142 L1104.42903,16.3965142 C1105.93988,16.3965142 1107.19891,16.1848242 1108.20614,15.7614379 C1109.21338,15.3380516 1109.71699,14.8569381 1109.71699,14.3180828 C1109.71699,13.7792275 1109.21338,13.298114 1108.20614,12.8747277 C1107.19891,12.4513414 1105.93988,12.2396514 1104.42903,12.2396514 L1098.23456,12.2396514 C1096.82442,12.2396514 1095.61576,11.8547606 1094.60852,11.0849673 C1093.60129,10.3151741 1093.09768,9.35294695 1093.09768,8.19825708 L1093.09768,7.85185185 C1093.09768,6.77414131 1093.60129,5.81191418 1094.60852,4.96514161 C1095.61576,4.11836904 1096.82442,3.69498911 1098.23456,3.69498911 L1104.42903,3.69498911 C1105.93988,3.69498911 1107.19891,3.52178822 1108.20614,3.17538126 C1109.21338,2.8289743 1109.71699,2.38634983 1109.71699,1.84749455 C1109.71699,1.23165996 1110.2206,0.769790937 1111.22784,0.461873638 C1112.23507,0.15395634 1113.4941,0 1115.00496,0 L1118.32882,0 C1119.83967,0 1121.0987,0.15395634 1122.10594,0.461873638 C1123.11317,0.769790937 1123.61678,1.23165996 1123.61678,1.84749455 C1123.61678,2.38634983 1124.12039,2.8289743 1125.12763,3.17538126 C1126.13487,3.52178822 1127.39389,3.69498911 1128.90475,3.69498911 L1135.09922,3.69498911 C1136.50935,3.69498911 1137.74319,4.11836904 1138.80079,4.96514161 C1139.85839,5.81191418 1140.38718,6.77414131 1140.38718,7.85185185 L1140.38718,8.19825708 C1140.38718,9.35294695 1139.85839,10.3151741 1138.80079,11.0849673 C1137.74319,11.8547606 1136.50935,12.2396514 1135.09922,12.2396514 L1128.90475,12.2396514 C1127.39389,12.2396514 1126.13487,12.4513414 1125.12763,12.8747277 C1124.12039,13.298114 1123.61678,13.7792275 1123.61678,14.3180828 C1123.61678,14.8569381 1124.12039,15.3380516 1125.12763,15.7614379 C1126.13487,16.1848242 1127.39389,16.3965142 1128.90475,16.3965142 L1135.09922,16.3965142 C1136.50935,16.3965142 1137.74319,16.8006496 1138.80079,17.6089325 C1139.85839,18.4172154 1140.38718,19.360198 1140.38718,20.4379085 L1140.38718,21.0152505 C1140.38718,22.0929611 1139.85839,23.0166991 1138.80079,23.7864924 C1137.74319,24.5562856 1136.50935,24.9411765 1135.09922,24.9411765 L1128.90475,24.9411765 C1127.39389,24.9411765 1126.13487,25.1336219 1125.12763,25.5185185 C1124.12039,25.9034151 1123.61678,26.4037732 1123.61678,27.0196078 C1123.61678,27.6354424 1124.12039,28.116556 1125.12763,28.462963 C1126.13487,28.8093699 1127.39389,28.9825708 1128.90475,28.9825708 L1135.09922,28.9825708 C1136.50935,28.9825708 1137.74319,29.3867062 1138.80079,30.1949891 C1139.85839,31.003272 1140.38718,31.9462546 1140.38718,33.0239651 L1140.38718,33.4858388 C1140.38718,34.6405286 1139.85839,35.6220003 1138.80079,36.4302832 C1137.74319,37.2385661 1136.50935,37.6427015 1135.09922,37.6427015 L1128.90475,37.6427015 C1127.39389,37.6427015 1126.13487,37.7966579 1125.12763,38.1045752 C1124.12039,38.4124925 1123.61678,38.7973833 1123.61678,39.2592593 C1123.61678,39.7211352 1124.12039,40.1252706 1125.12763,40.4716776 C1126.13487,40.8180845 1127.39389,40.9912854 1128.90475,40.9912854 L1135.09922,40.9912854 C1136.50935,40.9912854 1137.76838,41.3954208 1138.87634,42.2037037 C1139.9843,43.0119866 1140.53827,43.9934583 1140.53827,45.1481481 L1140.53827,64.2004357 C1140.53827,65.3551256 1140.13538,66.5675318 1139.32959,67.8376906 C1138.5238,69.1078495 1137.6173,70.1662993 1136.61006,71.0130719 L1133.2862,73.2069717 C1132.07752,73.8997856 1130.56669,74.515611 1128.75366,75.0544662 C1126.94064,75.5933215 1125.32908,75.8627451 1123.91895,75.8627451 L1045.35492,75.8627451 C1043.94479,75.8627451 1042.73612,75.4586097 1041.72888,74.6503268 C1040.72165,73.8420439 1040.21804,72.8990613 1040.21804,71.8213508 L1040.21804,70.204793 C1040.21804,69.1270825 1040.72165,68.2033444 1041.72888,67.4335512 C1042.73612,66.663758 1043.94479,66.2788671 1045.35492,66.2788671 L1121.35051,66.2788671 Z M1129.20692,78.2875817 C1130.71777,78.2875817 1131.9768,78.6724725 1132.98403,79.4422658 C1133.99127,80.212059 1134.49488,81.1742862 1134.49488,82.328976 L1134.49488,92.3747277 C1134.49488,93.4524382 1134.79705,94.3954208 1135.40139,95.2037037 C1136.00573,96.0119866 1136.71078,96.416122 1137.51657,96.416122 C1138.32236,96.416122 1139.02742,96.8010129 1139.63176,97.5708061 C1140.2361,98.3405993 1140.53827,99.3028265 1140.53827,100.457516 L1140.53827,101.958606 C1140.53827,103.036316 1140.1102,103.979299 1139.25405,104.787582 C1138.3979,105.595865 1137.31513,106 1136.00573,106 C1134.89777,106 1133.53802,105.730576 1131.92644,105.191721 C1130.31486,104.652866 1129.05584,103.960062 1128.14932,103.11329 L1124.37221,100.22658 C1123.26425,99.5337656 1122.35775,98.5138048 1121.65268,97.1666667 C1120.94762,95.8195285 1120.59509,94.6071223 1120.59509,93.5294118 L1120.59509,82.328976 C1120.59509,81.1742862 1121.12388,80.212059 1122.18148,79.4422658 C1123.23908,78.6724725 1124.47292,78.2875817 1125.88305,78.2875817 L1129.20692,78.2875817 Z M1155.79782,3.92592593 C1155.79782,2.84821538 1156.30143,1.92447734 1157.30867,1.1546841 C1158.3159,0.38489085 1159.52457,0 1160.9347,0 L1251.43442,0 C1252.84455,0 1254.05322,0.38489085 1255.06046,1.1546841 C1256.06769,1.92447734 1256.5713,2.84821538 1256.5713,3.92592593 L1256.5713,93.4139434 C1256.5713,94.4916539 1256.21878,95.7040601 1255.51371,97.0511983 C1254.80864,98.3983364 1253.95251,99.4182972 1252.94527,100.111111 L1249.16815,103.11329 C1248.06019,103.960062 1246.6249,104.652866 1244.86224,105.191721 C1243.09958,105.730576 1241.5132,106 1240.10307,106 L1160.9347,106 C1159.52457,106 1158.3159,105.846044 1157.30867,105.538126 C1156.30143,105.230209 1155.79782,104.845318 1155.79782,104.383442 L1155.79782,3.92592593 Z M1242.52043,14.664488 C1242.52043,13.5867775 1242.01682,12.6437949 1241.00958,11.835512 C1240.00234,11.0272291 1238.74332,10.6230937 1237.23246,10.6230937 L1175.13666,10.6230937 C1173.6258,10.6230937 1172.36678,11.0272291 1171.35954,11.835512 C1170.35231,12.6437949 1169.8487,13.5867775 1169.8487,14.664488 L1169.8487,91.2200436 C1169.8487,92.3747334 1170.35231,93.3369606 1171.35954,94.1067538 C1172.36678,94.8765471 1173.6258,95.2614379 1175.13666,95.2614379 L1237.23246,95.2614379 C1238.74332,95.2614379 1240.00234,94.8765471 1241.00958,94.1067538 C1242.01682,93.3369606 1242.52043,92.3747334 1242.52043,91.2200436 L1242.52043,14.664488 Z M1179.97137,78.0566449 C1181.3815,78.0566449 1182.5398,77.671754 1183.44632,76.9019608 C1184.35283,76.1321675 1184.80608,75.1699404 1184.80608,74.0152505 L1184.80608,57.2723312 C1184.80608,56.1946206 1184.35283,55.2708826 1183.44632,54.5010893 C1182.5398,53.7312961 1181.3815,53.3464052 1179.97137,53.3464052 C1178.76269,53.3464052 1177.7051,52.9422698 1176.79859,52.1339869 C1175.89208,51.325704 1175.43883,50.3827214 1175.43883,49.3050109 L1175.43883,46.5337691 C1175.43883,45.4560585 1175.96762,44.5323205 1177.02522,43.7625272 C1178.08282,42.992734 1179.31666,42.6078431 1180.72679,42.6078431 L1231.79341,42.6078431 C1233.20355,42.6078431 1234.41221,42.992734 1235.41945,43.7625272 C1236.42668,44.5323205 1236.93029,45.4560585 1236.93029,46.5337691 L1236.93029,49.3050109 C1236.93029,50.3827214 1236.50223,51.325704 1235.64607,52.1339869 C1234.78992,52.9422698 1233.70716,53.3464052 1232.39775,53.3464052 C1231.18907,53.3464052 1230.10631,53.7312961 1229.14943,54.5010893 C1228.19256,55.2708826 1227.71413,56.1946206 1227.71413,57.2723312 L1227.71413,74.0152505 C1227.71413,75.1699404 1228.19256,76.1321675 1229.14943,76.9019608 C1230.10631,77.671754 1231.18907,78.0566449 1232.39775,78.0566449 C1233.70716,78.0566449 1234.78992,78.4607803 1235.64607,79.2690632 C1236.50223,80.0773461 1236.93029,81.0588178 1236.93029,82.2135076 L1236.93029,84.7538126 C1236.93029,85.9085025 1236.42668,86.8707296 1235.41945,87.6405229 C1234.41221,88.4103161 1233.20355,88.795207 1231.79341,88.795207 L1230.13148,88.795207 C1228.72135,88.795207 1227.16016,88.5257834 1225.44786,87.9869281 C1223.73556,87.4480728 1222.37581,86.7552693 1221.36857,85.9084967 L1217.44037,83.1372549 C1216.43313,82.3674617 1215.577,81.3090118 1214.87193,79.9618736 C1214.16687,78.6147355 1213.81434,77.4023293 1213.81434,76.3246187 L1213.81434,57.2723312 C1213.81434,56.1946206 1213.28555,55.2708826 1212.22795,54.5010893 C1211.17035,53.7312961 1209.9365,53.3464052 1208.52637,53.3464052 L1203.99383,53.3464052 C1202.48298,53.3464052 1201.22395,53.7312961 1200.21672,54.5010893 C1199.20948,55.2708826 1198.70587,56.1946206 1198.70587,57.2723312 L1198.70587,76.3246187 C1198.70587,77.4023293 1198.35334,78.6147355 1197.64828,79.9618736 C1196.94321,81.3090118 1196.08707,82.3674617 1195.07984,83.1372549 L1191.30272,85.9084967 C1190.19476,86.7552693 1188.78465,87.4480728 1187.07235,87.9869281 C1185.36005,88.5257834 1183.74849,88.795207 1182.23764,88.795207 L1180.72679,88.795207 C1179.31666,88.795207 1178.08282,88.4103161 1177.02522,87.6405229 C1175.96762,86.8707296 1175.43883,85.9085025 1175.43883,84.7538126 L1175.43883,82.2135076 C1175.43883,81.0588178 1175.89208,80.0773461 1176.79859,79.2690632 C1177.7051,78.4607803 1178.76269,78.0566449 1179.97137,78.0566449 Z M1236.93029,26.211329 C1236.93029,27.2890395 1236.42668,28.2127776 1235.41945,28.9825708 C1234.41221,29.7523641 1233.20355,30.1372549 1231.79341,30.1372549 L1180.72679,30.1372549 C1179.31666,30.1372549 1178.08282,29.7523641 1177.02522,28.9825708 C1175.96762,28.2127776 1175.43883,27.2890395 1175.43883,26.211329 L1175.43883,23.5555556 C1175.43883,22.477845 1175.96762,21.554107 1177.02522,20.7843137 C1178.08282,20.0145205 1179.31666,19.6296296 1180.72679,19.6296296 L1231.79341,19.6296296 C1233.20355,19.6296296 1234.41221,20.0145205 1235.41945,20.7843137 C1236.42668,21.554107 1236.93029,22.477845 1236.93029,23.5555556 L1236.93029,26.211329 Z M1372,84.6383442 C1372,85.7930341 1371.49639,86.7745058 1370.48915,87.5827887 C1369.48192,88.3910716 1368.22289,88.795207 1366.71204,88.795207 L1356.58936,88.795207 C1355.07851,88.795207 1353.49213,88.4680497 1351.83019,87.8137255 C1350.16826,87.1594012 1348.93441,86.370375 1348.12862,85.4466231 L1334.98425,72.8605664 C1334.17846,72.0137939 1333.12088,71.5904139 1331.81147,71.5904139 C1330.50207,71.5904139 1329.44449,72.0137939 1328.6387,72.8605664 L1316.40084,85.4466231 C1315.59505,86.370375 1314.3612,87.1594012 1312.69926,87.8137255 C1311.03732,88.4680497 1309.50131,88.795207 1308.09118,88.795207 L1297.81742,88.795207 C1296.40729,88.795207 1295.17344,88.3910716 1294.11585,87.5827887 C1293.05825,86.7745058 1292.52946,85.7930341 1292.52946,84.6383442 L1292.52946,82.2135076 C1292.52946,81.0588178 1293.05825,80.0773461 1294.11585,79.2690632 C1295.17344,78.4607803 1296.40729,78.0566449 1297.81742,78.0566449 L1301.44345,78.0566449 C1302.85358,78.0566449 1304.3896,77.7294877 1306.05154,77.0751634 C1307.71348,76.4208391 1308.99768,75.6318129 1309.9042,74.708061 L1320.02687,64.2004357 C1320.83266,63.3536632 1321.23555,62.2952133 1321.23555,61.0250545 C1321.23555,59.7548956 1320.73194,58.6579567 1319.7247,57.7342048 L1302.04779,40.4139434 C1301.14128,39.5671708 1300.3355,38.4124982 1299.63044,36.9498911 C1298.92537,35.4872839 1298.57284,34.2171441 1298.57284,33.1394336 L1298.57284,24.4793028 C1298.57284,23.4015923 1299.12682,22.4393652 1300.23478,21.5925926 C1301.34274,20.74582 1302.60176,20.3224401 1304.01189,20.3224401 L1307.33576,20.3224401 C1308.84661,20.3224401 1310.10564,20.74582 1311.11287,21.5925926 C1312.12011,22.4393652 1312.62372,23.4015923 1312.62372,24.4793028 L1312.62372,29.2135076 C1312.62372,30.2912182 1312.95107,31.561358 1313.60577,33.0239651 C1314.26047,34.4865723 1314.99071,35.6412449 1315.7965,36.4880174 L1328.48761,48.8431373 C1329.39412,49.6899098 1330.45171,50.1132898 1331.66039,50.1132898 C1332.86907,50.1132898 1333.87629,49.6899098 1334.68208,48.8431373 L1346.46669,36.6034858 C1347.27248,35.6797339 1347.97753,34.4865723 1348.58187,33.0239651 C1349.18622,31.561358 1349.48838,30.2912182 1349.48838,29.2135076 L1349.48838,24.4793028 C1349.48838,23.4015923 1349.99199,22.4393652 1350.99923,21.5925926 C1352.00647,20.74582 1353.26549,20.3224401 1354.77635,20.3224401 L1358.10021,20.3224401 C1359.61106,20.3224401 1360.89527,20.74582 1361.95287,21.5925926 C1363.01047,22.4393652 1363.53926,23.4015923 1363.53926,24.4793028 L1363.53926,33.1394336 C1363.53926,34.2171441 1363.21191,35.4872839 1362.55721,36.9498911 C1361.9025,38.4124982 1361.12191,39.6056599 1360.21539,40.5294118 L1343.445,57.6187364 C1342.63921,58.5424883 1342.23632,59.6201827 1342.23632,60.8518519 C1342.23632,62.083521 1342.68957,63.1997045 1343.59608,64.2004357 L1354.32309,74.8235294 C1355.33033,75.670302 1356.63972,76.4208391 1358.25129,77.0751634 C1359.86287,77.7294877 1361.3737,78.0566449 1362.78383,78.0566449 L1366.71204,78.0566449 C1368.22289,78.0566449 1369.48192,78.4607803 1370.48915,79.2690632 C1371.49639,80.0773461 1372,81.0588178 1372,82.2135076 L1372,84.6383442 Z M1290.71644,10.6230937 C1289.20559,10.6230937 1287.94656,11.0272291 1286.93932,11.835512 C1285.93209,12.6437949 1285.42848,13.5867775 1285.42848,14.664488 L1285.42848,91.2200436 C1285.42848,92.3747334 1285.93209,93.3369606 1286.93932,94.1067538 C1287.94656,94.8765471 1289.20559,95.2614379 1290.71644,95.2614379 L1366.56095,95.2614379 C1368.07181,95.2614379 1369.33083,95.6655733 1370.33807,96.4738562 C1371.3453,97.2821391 1371.84892,98.2636108 1371.84892,99.4183007 L1371.84892,101.958606 C1371.84892,103.036316 1371.3453,103.979299 1370.33807,104.787582 C1369.33083,105.595865 1368.07181,106 1366.56095,106 L1287.84583,106 C1286.4357,106 1284.82415,105.730576 1283.01112,105.191721 C1281.1981,104.652866 1279.83835,103.960062 1278.93184,103.11329 L1275.00363,100.22658 C1273.9964,99.5337656 1273.14026,98.5138048 1272.43519,97.1666667 C1271.73013,95.8195285 1271.3776,94.6071223 1271.3776,93.5294118 L1271.3776,3.92592593 C1271.3776,2.84821538 1271.88121,1.92447734 1272.88845,1.1546841 C1273.89568,0.38489085 1275.10435,0 1276.51448,0 L1366.56095,0 C1368.07181,0 1369.33083,0.38489085 1370.33807,1.1546841 C1371.3453,1.92447734 1371.84892,2.84821538 1371.84892,3.92592593 L1371.84892,6.58169935 C1371.84892,7.73638922 1371.3453,8.69861634 1370.33807,9.46840959 C1369.33083,10.2382028 1368.07181,10.6230937 1366.56095,10.6230937 L1290.71644,10.6230937 Z" id="北科建嘉兴创新园智慧园区"></path>
        </g>
    </g>
</svg>