<?xml version="1.0" encoding="UTF-8"?>
<svg width="16px" height="18px" viewBox="0 0 16 18" version="1.1" xmlns="http://www.w3.org/2000/svg" xmlns:xlink="http://www.w3.org/1999/xlink">
    <!-- Generator: Sketch 47.1 (45422) - http://www.bohemiancoding.com/sketch -->
    <title>表</title>
    <desc>Created with Sketch.</desc>
    <defs>
        <linearGradient x1="0%" y1="50%" x2="100%" y2="50%" id="linearGradient-1">
            <stop stop-color="#FFD347" offset="0%"></stop>
            <stop stop-color="#B0861C" offset="100%"></stop>
        </linearGradient>
    </defs>
    <g id="Symbols" stroke="none" stroke-width="1" fill="none" fill-rule="evenodd">
        <g id="表" fill="url(#linearGradient-1)" fill-rule="nonzero">
            <path d="M14.6440678,1.21826039 C14.6440678,1.21909134 14.6441552,1.2196055 14.6440678,1.21991455 L14.6440678,1.21826039 Z M14.6440678,14.5861297 C14.6440678,14.58588 14.6457354,14.5842028 14.6440678,14.5840607 L14.6440678,14.5861297 Z M4.78823272,1.22033898 C4.78726067,1.22033898 4.78705701,1.81533198 4.78705701,1.81533198 C4.78705701,2.15231928 4.51387482,2.42550147 4.17688752,2.42550147 C3.83990021,2.42550147 3.56671803,2.15231928 3.56671803,1.81533198 L3.56671803,1.21981209 C3.56671803,0.545768764 4.11408217,0 4.78823272,0 L14.6428921,0 C15.3168545,0 15.8644068,0.544428141 15.8644068,1.21826039 L15.8644068,14.5861297 C15.8644068,15.2600125 15.3196924,15.8043901 14.6438257,15.8043901 L14.0880608,15.8043901 C13.7510735,15.8043901 13.4778913,15.5312079 13.4778913,15.1942206 C13.4778913,14.8572333 13.7510735,14.5840511 14.0880608,14.5840511 L14.6438257,14.5840511 C14.6439133,14.5840511 14.6440678,1.21991455 14.6440678,1.21991455 C14.6439753,1.22024164 4.78823272,1.22033898 4.78823272,1.22033898 Z M0,4.5777712 C0,3.73459805 0.682698607,3.05084746 1.52568618,3.05084746 L11.6081401,3.05084746 C12.2802945,3.05084746 12.8259366,3.59784903 12.8259366,4.26864128 L12.8259366,16.7822062 C12.8259366,17.4541358 12.2779659,18 11.6081401,18 L1.21779654,18 C0.545642135,18 0,17.4529984 0,16.7822062 L0,4.5777712 Z M3.46409861,7.62711864 L9.44375963,7.62711864 C9.78074694,7.62711864 10.0539291,7.35393646 10.0539291,7.01694915 C10.0539291,6.67996185 9.78074694,6.40677966 9.44375963,6.40677966 L3.46409861,6.40677966 C3.12711131,6.40677966 2.85392912,6.67996185 2.85392912,7.01694915 C2.85392912,7.35393646 3.12711131,7.62711864 3.46409861,7.62711864 Z M3.46409861,10.9780495 L9.44375963,10.9780495 C9.78074694,10.9780495 10.0539291,10.7048673 10.0539291,10.36788 C10.0539291,10.0308927 9.78074694,9.75771048 9.44375963,9.75771048 L3.46409861,9.75771048 C3.12711131,9.75771048 2.85392912,10.0308927 2.85392912,10.36788 C2.85392912,10.7048673 3.12711131,10.9780495 3.46409861,10.9780495 Z M3.49183359,14.3389831 L9.47149461,14.3389831 C9.80848191,14.3389831 10.0816641,14.0658009 10.0816641,13.7288136 C10.0816641,13.3918263 9.80848191,13.1186441 9.47149461,13.1186441 L3.49183359,13.1186441 C3.15484629,13.1186441 2.8816641,13.3918263 2.8816641,13.7288136 C2.8816641,14.0658009 3.15484629,14.3389831 3.49183359,14.3389831 Z"></path>
        </g>
    </g>
</svg>