<?xml version="1.0" encoding="UTF-8"?>
<svg preserveAspectRatio="none"  width="1920px" height="198px" viewBox="0 0 1920 198" version="1.1" xmlns="http://www.w3.org/2000/svg" xmlns:xlink="http://www.w3.org/1999/xlink">
    <!-- Generator: Sketch 46.2 (44496) - http://www.bohemiancoding.com/sketch -->
    <title>导航栏_LOOG背景</title>
    <desc>Created with Sketch.</desc>
    <defs>
        <linearGradient x1="8.33780809%" y1="53.5141468%" x2="87.3706497%" y2="53.5141468%" id="linearGradient-1">
            <stop stop-color="#00002A" offset="0%"></stop>
            <stop stop-color="#03FFFF" offset="54.2729592%"></stop>
            <stop stop-color="#00002A" offset="100%"></stop>
        </linearGradient>
        <polygon id="path-2" points="0 168 354 168 420 97 1920 98.2992261 1921 0 0 0"></polygon>
        <filter x="-1.8%" y="-15.2%" width="103.7%" height="142.3%" filterUnits="objectBoundingBox" id="filter-4">
            <feMorphology radius="0.5" operator="dilate" in="SourceAlpha" result="shadowSpreadOuter1"></feMorphology>
            <feOffset dx="0" dy="10" in="shadowSpreadOuter1" result="shadowOffsetOuter1"></feOffset>
            <feGaussianBlur stdDeviation="10" in="shadowOffsetOuter1" result="shadowBlurOuter1"></feGaussianBlur>
            <feComposite in="shadowBlurOuter1" in2="SourceAlpha" operator="out" result="shadowBlurOuter1"></feComposite>
            <feColorMatrix values="0 0 0 0 0.0117647059   0 0 0 0 1   0 0 0 0 1  0 0 0 0.193217844 0" type="matrix" in="shadowBlurOuter1"></feColorMatrix>
        </filter>
        <linearGradient x1="50%" y1="0%" x2="50%" y2="74.6907552%" id="linearGradient-5">
            <stop stop-color="#80EEF0" offset="0%"></stop>
            <stop stop-color="#CBFAFE" offset="100%"></stop>
        </linearGradient>
        <path d="M15.5,28 C9.07900391,28 3.875,22.628125 3.875,16 C3.875,9.371875 9.07900391,4 15.5,4 C21.9209961,4 27.125,9.371875 27.125,16 C27.125,22.628125 21.9209961,28 15.5,28 L15.5,28 Z M19.0624268,22.2929688 C18.6718994,22.5273438 18.1723877,22.3890625 17.9453369,21.9859375 C17.7182861,21.5828125 17.8522461,21.0671875 18.2427734,20.8328125 C19.0601563,20.3429688 19.7458496,19.6421875 20.2249268,18.8007812 C20.717627,17.9359375 20.9787354,16.946875 20.9787354,15.9367188 C20.9787354,14.4273438 20.4088379,13.0070313 19.3734863,11.9382812 C18.3381348,10.8695312 16.962207,10.28125 15.5,10.28125 C14.037793,10.28125 12.6618652,10.8695313 11.6265137,11.9382813 C10.5911621,13.0070313 10.0212646,14.4273438 10.0212646,15.9367188 C10.0212646,16.946875 10.282373,17.9359375 10.7750732,18.8007812 C11.2541504,19.6398438 11.9398438,20.3429688 12.7572266,20.8328125 C13.1477539,21.0671875 13.2817139,21.5828125 13.0546631,21.9859375 C12.8276123,22.3890625 12.3281006,22.5273438 11.9375732,22.2929688 C10.8772461,21.6578125 9.98947754,20.7484375 9.3673584,19.6585938 C8.7270752,18.5359375 8.38649902,17.2492188 8.38649902,15.9367188 C8.38649902,13.975 9.12668457,12.1328125 10.4708252,10.7453125 C11.8149658,9.3578125 13.599585,8.59375 15.5,8.59375 C17.400415,8.59375 19.1850342,9.3578125 20.5291748,10.7453125 C21.8733154,12.1328125 22.613501,13.975 22.613501,15.9367188 C22.613501,17.246875 22.2751953,18.5335938 21.6326416,19.6585938 C21.0105225,20.7460938 20.1227539,21.6578125 19.0624268,22.2929688 L19.0624268,22.2929688 Z M15.5,16.75 C15.9518311,16.75 16.3173828,17.1273438 16.3173828,17.59375 L16.3173828,22.65625 C16.3173828,23.1226562 15.9518311,23.5 15.5,23.5 C15.0481689,23.5 14.6826172,23.1226562 14.6826172,22.65625 L14.6826172,17.59375 C14.6826172,17.1273438 15.0481689,16.75 15.5,16.75 L15.5,16.75 Z" id="path-6"></path>
        <filter x="-25.8%" y="-25.0%" width="151.6%" height="150.0%" filterUnits="objectBoundingBox" id="filter-7">
            <feOffset dx="0" dy="0" in="SourceAlpha" result="shadowOffsetOuter1"></feOffset>
            <feGaussianBlur stdDeviation="2" in="shadowOffsetOuter1" result="shadowBlurOuter1"></feGaussianBlur>
            <feColorMatrix values="0 0 0 0 0.0117647059   0 0 0 0 1   0 0 0 0 1  0 0 0 1 0" type="matrix" in="shadowBlurOuter1"></feColorMatrix>
        </filter>
    </defs>
    <g id="Symbols" stroke="none" stroke-width="1" fill="none" fill-rule="evenodd">
        <g id="导航栏_LOOG背景">
            <rect id="Rectangle-2" stroke="url(#linearGradient-1)" fill-opacity="0.4" fill="#05144B" opacity="0.3" x="0" y="0" width="1920" height="180"></rect>
            <mask id="mask-3" fill="white">
                <use xlink:href="#path-2"></use>
            </mask>
            <g id="Mask">
                <use fill="black" fill-opacity="1" filter="url(#filter-4)" xlink:href="#path-2"></use>
                <use stroke="url(#linearGradient-1)" stroke-width="1" fill-opacity="0.4" fill="#05144B" fill-rule="evenodd" xlink:href="#path-2"></use>
            </g>
            <text id="LOGO" font-family="PingFangSC-Medium, PingFang SC" font-size="40" font-weight="400" fill="#FFFFFF">
                <tspan x="90" y="126">深圳科技园</tspan>
            </text>
            <!-- <g id="退出登录" transform="translate(1783.000000, 62.000000)" opacity="0.7">
                <g transform="translate(15.500000, 16.000000) scale(1, -1) translate(-15.500000, -16.000000) ">
                    <use fill="black" fill-opacity="1" filter="url(#filter-7)" xlink:href="#path-6"></use>
                    <use fill="url(#linearGradient-5)" fill-rule="evenodd" xlink:href="#path-6"></use>
                </g>
            </g> -->
        </g>
    </g>
</svg>
