<?xml version="1.0" encoding="UTF-8"?>
<svg width="111px" height="188px" viewBox="0 0 111 188" version="1.1" xmlns="http://www.w3.org/2000/svg" xmlns:xlink="http://www.w3.org/1999/xlink">
    <!-- Generator: Sketch 47.1 (45422) - http://www.bohemiancoding.com/sketch -->
    <title>水滴</title>
    <desc>Created with Sketch.</desc>
    <defs></defs>
    <g id="Symbols" stroke="none" stroke-width="1" fill="none" fill-rule="evenodd" fill-opacity="0.3">
        <g id="水滴" fill="#FFFFFF">
            <path d="M57.540868,1.57472682 C57.2789,-0.524908939 53.8220364,-0.524908939 53.5609966,1.57472682 C44.8406418,71.7318012 0.705882353,86.0742921 0.705882353,133.881668 C0.705882353,163.76429 25.8093294,188 55.5451314,188 C85.2690996,188 110.372547,163.76429 110.372547,133.881668 C110.38438,86.0742921 66.2486929,71.7318012 57.540868,1.57472682 Z M68.1197162,167.111111 C65.4976884,167.111111 63.372549,164.980028 63.372549,162.35791 C63.372549,159.735793 65.4976884,157.604056 68.1197162,157.604056 C74.6552755,157.604056 79.9796271,152.292257 79.9796271,145.753201 C79.9796271,143.130865 82.1038643,141 84.7258921,141 C86.6888605,141 88.3865812,142.193694 89.1020282,143.900653 C89.345172,144.470148 89.4836601,145.106117 89.4836601,145.764098 C89.460654,157.525595 79.8871513,167.111111 68.1197162,167.111111 Z"></path>
        </g>
    </g>
</svg>