<?xml version="1.0" encoding="UTF-8" standalone="no"?>
<svg width="19px" height="29px" viewBox="0 0 19 29" version="1.1" xmlns="http://www.w3.org/2000/svg" xmlns:xlink="http://www.w3.org/1999/xlink">
    <!-- Generator: Sketch 47.1 (45422) - http://www.bohemiancoding.com/sketch -->
    <title>2</title>
    <desc>Created with Sketch.</desc>
    <defs></defs>
    <g id="页面" stroke="none" stroke-width="1" fill="none" fill-rule="evenodd">
        <path d="M18.3320312,29 L0.67578125,29 L0.67578125,27.203125 L9.9921875,16.6367188 C11.7109461,14.6966049 12.9251267,13.0722722 13.6347656,11.7636719 C14.3444046,10.4550716 14.6992188,9.20182891 14.6992188,8.00390625 C14.6992188,6.23306406 14.2011769,4.81380742 13.2050781,3.74609375 C12.2089794,2.67838008 10.7994883,2.14453125 8.9765625,2.14453125 C6.81509336,2.14453125 5.17448477,2.74348359 4.0546875,3.94140625 C2.93489023,5.13932891 2.375,6.74087539 2.375,8.74609375 L0.20703125,8.74609375 L0.16796875,8.62890625 C0.102864258,6.25910273 0.871085742,4.25391445 2.47265625,2.61328125 C4.07422676,0.972648047 6.24217383,0.15234375 8.9765625,0.15234375 C11.4244914,0.15234375 13.3841072,0.855461719 14.8554688,2.26171875 C16.3268303,3.66797578 17.0625,5.55597773 17.0625,7.92578125 C17.0625,9.48828906 16.5709685,11.0735597 15.5878906,12.6816406 C14.6048128,14.2897216 13.2343838,16.0833234 11.4765625,18.0625 L3.64453125,26.9296875 L3.68359375,27.0273438 L18.3320312,27.0273438 L18.3320312,29 Z" id="2" fill="#F9CF50"></path>
    </g>
</svg>