<?xml version="1.0" encoding="UTF-8"?>
<svg width="20px" height="20px" viewBox="0 0 20 20" version="1.1" xmlns="http://www.w3.org/2000/svg" xmlns:xlink="http://www.w3.org/1999/xlink">
    <!-- Generator: Sketch 47.1 (45422) - http://www.bohemiancoding.com/sketch -->
    <title>扶뒬못</title>
    <desc>Created with Sketch.</desc>
    <defs></defs>
    <g id="Symbols" stroke="none" stroke-width="1" fill="none" fill-rule="evenodd" fill-opacity="0.35">
        <g id="扶뒬못" fill-rule="nonzero" fill="#FFFFFF">
            <path d="M17.1221546,20 L12.4582752,20 C12.1170157,20 11.8895094,19.7694524 11.8895094,19.4236311 L11.8895094,13.7175793 L8.07877864,13.7175793 L8.07877864,19.4236311 C8.07877864,19.7694524 7.85127233,20 7.51001286,20 L3.01676319,20 C2.67550372,20 2.44799741,19.7694524 2.44799741,19.4236311 L2.44799741,11.3544669 L0.571070327,11.3544669 C0.343564014,11.3544669 0.116057702,11.2391931 0.0591811235,11.0086455 C-0.0545720328,10.778098 0.00230454538,10.5475504 0.17293428,10.3746398 L9.78507599,0.172910663 C9.89882914,0.0576368876 10.0694589,0 10.183212,0 C10.3538418,0 10.4675949,0.0576368876 10.5813481,0.172910663 L19.8522303,10.5475504 C20.02286,10.7204611 20.02286,10.9510086 19.9659835,11.1815562 C19.9091069,11.4121037 19.6816006,11.5273775 19.4540943,11.5273775 L17.5771672,11.5273775 L17.6909203,19.4236311 C17.6909203,19.5965418 17.6340438,19.7118156 17.5202906,19.8270893 C17.4065375,19.9423631 17.2927843,20 17.1221546,20 Z"></path>
        </g>
    </g>
</svg>