<?xml version="1.0" encoding="UTF-8"?>
<svg width="228px" height="174px" viewBox="0 0 228 174" version="1.1" xmlns="http://www.w3.org/2000/svg" xmlns:xlink="http://www.w3.org/1999/xlink">
    <!-- Generator: Sketch 47.1 (45422) - http://www.bohemiancoding.com/sketch -->
    <title>扶뒬못_LOGO</title>
    <desc>Created with Sketch.</desc>
    <defs>
        <filter x="-59.0%" y="-76.1%" width="218.0%" height="254.6%" filterUnits="objectBoundingBox" id="filter-1">
            <feOffset dx="0" dy="2" in="SourceAlpha" result="shadowOffsetOuter1"></feOffset>
            <feGaussianBlur stdDeviation="44.5" in="shadowOffsetOuter1" result="shadowBlurOuter1"></feGaussianBlur>
            <feColorMatrix values="0 0 0 0 0.102524846   0 0 0 0 0.109543553   0 0 0 0 0.438509779  0 0 0 0.656165082 0" type="matrix" in="shadowBlurOuter1" result="shadowMatrixOuter1"></feColorMatrix>
            <feMerge>
                <feMergeNode in="shadowMatrixOuter1"></feMergeNode>
                <feMergeNode in="SourceGraphic"></feMergeNode>
            </feMerge>
        </filter>
    </defs>
    <g id="Symbols" stroke="none" stroke-width="1" fill="none" fill-rule="evenodd">
        <g id="扶뒬못_LOGO">
            <g filter="url(#filter-1)">
                <path d="M94.1399838,48.0829299 C97.1717659,40.4337901 104.682562,35 113.466244,35 C122.266898,35 129.79158,40.4444775 132.794047,48.0829299 C174.180572,47.8737618 196.458384,49.1455649 215.307891,53.3762568 C233.114403,57.2970135 228.098462,67.195092 216.724265,70.2364266 C194.210391,76.3603188 171.711945,75.6564758 171.711945,75.6564758 C171.711945,75.6564758 189.395026,72.3678037 199.667598,68.7661428 C206.974733,66.2179564 206.240317,64.1049006 198.229623,63.4010576 C185.338764,62.2452893 153.769659,62.1613167 133.050167,62.2193342 C130.254448,70.2364266 122.543075,76 113.466244,76 C104.397127,76 96.6934695,70.2364266 93.9147217,62.2193342 C73.113457,62.1613167 41.6369253,62.2452893 28.7846382,63.4010576 C20.7801166,64.1049006 20.047243,66.2179564 27.3466632,68.7661428 C37.6315787,72.3678037 55.3223739,75.6564758 55.3223739,75.6564758 C55.3223739,75.6564758 32.7791846,76.3603188 10.2714818,70.2364266 C-1.0888291,67.195092 -6.11556996,57.2970135 11.6755132,53.3762568 C30.552792,49.1455649 52.7812314,47.8737618 94.1399838,48.0829299 Z" id="Fill-1" fill="#F6931D"></path>
                <polygon id="Fill-3" fill="#0066B3" points="100 23.6768426 100 1.77372487 56 0 57.7662533 45 79.1597144 45 79.1597144 23.6768426"></polygon>
                <polygon id="Fill-5" fill="#0066B3" points="79.1563119 68 57.7412344 68 56 113 100 111.217654 100 89.3127948 79.1563119 89.3127948"></polygon>
                <polygon id="Fill-7" fill="#0066B3" points="124 89.3051056 124 111.211503 168 113 166.280498 68 144.85517 68 144.85517 89.3051056"></polygon>
                <polygon id="Fill-9" fill="#0066B3" points="144.84163 45 166.259437 45 168 0 124 1.78652031 124 23.6925523 144.84163 23.6925523"></polygon>
                <path d="M29.4605171,141.238994 L41,139.353774 L39.6893697,145.690252 L29.4605171,147.221698 L29.4605171,168.691824 L40.5032414,168.660377 L38.117863,173.941824 L22.3168789,174 L22.3168789,134 L29.4605171,134.040881 L29.4605171,141.238994 Z M11.233539,140.97956 L11.233539,134.040881 L18.3506209,134 L18.3506209,168.386792 L11.1460595,174 L1.30149184,173.941824 L1.30149184,168.660377 L11.233539,168.691824 L11.233539,146.25 L1,146.25 L1,140.97956 L11.233539,140.97956 Z" id="Fill-12" fill="#87C7FF"></path>
                <path d="M104.899574,164.001184 L107.972253,169.358933 L136,169.38419 L133.819644,174 L104.149141,174 L102.820117,171.752082 L102.072836,174 L96,174 L99.1199748,163.668101 L96.2774712,158.739729 L100.326029,158.739729 L101.431184,155.026876 L96.996374,155.012668 L96.996374,150.557875 L101.139524,139.490351 L97.4046981,139.490351 L97.4046981,134.277833 L107.683746,134.326769 L107.683746,138.732626 L103.297809,150.01326 L107.434652,150.01326 L107.434652,155.072655 L104.899574,164.001184 Z M124.806558,141.643553 L127.053129,141.643553 L127.053129,139.575595 L124.806558,139.575595 L124.806558,141.643553 Z M124.806558,148.663562 L127.053129,148.663562 L127.053129,145.901022 L124.806558,145.901022 L124.806558,148.663562 Z M118.249724,161.134457 L118.249724,159.197522 L110.064323,159.197522 L110.064323,155.072655 L118.249724,155.072655 L118.249724,152.821579 L109.463661,152.821579 L109.463661,148.663562 L118.249724,148.663562 L118.249724,145.901022 L109.630774,145.901022 L109.630774,141.643553 L118.249724,141.643553 L118.249724,139.575595 L109.832571,139.575595 L109.832571,135.433364 L118.249724,135.433364 L118.249724,134 L124.806558,134 L124.806558,135.433364 L133.606811,135.433364 L133.606811,141.643553 L135.563298,141.643553 L134.109727,145.931015 L133.606811,145.901022 L133.606811,148.622519 L127.80041,152.821579 L124.806558,152.821579 L124.806558,155.131063 L134.488097,155.131063 L132.61359,159.197522 L124.806558,159.197522 L124.806558,161.134457 L135.750907,161.134457 L133.978874,165.287738 L124.806558,165.287738 L124.806558,166.395911 L118.249724,169.234224 L118.249724,165.287738 L109.671764,165.287738 L109.671764,161.134457 L118.249724,161.134457 Z" id="Fill-14" fill="#87C7FF"></path>
                <path d="M196.75913,169.289484 L221.188828,169.289484 L221.188828,139.779442 L196.75913,139.779442 L196.75913,169.289484 Z M228,168.963649 L221.072128,174 L190,174 L190,172.851743 L190,138.769039 L190,135 L228,135 L228,168.963649 Z M210.614874,151.075594 L204.17588,165.294867 L197.572875,165.294867 L203.986637,151.075594 L210.614874,151.075594 Z M218.44165,144.386568 L220.969622,144.386568 L219.638612,149.037556 L218.44165,149.037556 L218.44165,162.846401 L211.991617,167.542818 L208.637284,167.542818 L208.637284,163.050048 L211.991617,163.050048 L211.991617,149.037556 L197.572875,149.037556 L197.572875,144.386568 L211.991617,144.386568 L211.991617,141.717224 L218.44165,141.717224 L218.44165,144.386568 Z" id="Fill-16" fill="#87C7FF"></path>
                <polygon id="Fill-18" fill="#87C7FF" points="47 172 48.4211982 149 53 149 51.7308756 172"></polygon>
                <polygon id="Fill-19" fill="#87C7FF" points="77.8525708 134 83.3029598 134 83.3029598 162.228483 86 162.037051 84.4479025 167.038981 83.3029598 167.147047 83.3029598 171.579313 77.8525708 174 77.8525708 167.373987 68 168.128908 68 163.238132 77.8525708 162.512543"></polygon>
                <polygon id="Fill-20" fill="#87C7FF" points="66.7083232 149 68 172 63.222846 172 62 149"></polygon>
                <polygon id="Fill-21" fill="#87C7FF" points="61.2358024 147.976258 61.2358024 172.001624 54.9663813 174 54.9663813 147.976258 47 147.976258 47 143.326786 54.9663813 143.326786 54.9663813 140.1266 47.3819024 140.825722 47.3819024 135.755539 69 134 67.6037232 138.91551 61.2358024 139.620819 61.2358024 143.326786 69 143.326786 66.6083576 147.976258"></polygon>
                <polygon id="Fill-22" fill="#87C7FF" points="68 143 78 143 78 137 68 137"></polygon>
                <polygon id="Fill-23" fill="#87C7FF" points="68 155 78 155 78 149 68 149"></polygon>
                <polygon id="Fill-24" fill="#87C7FF" points="142 174 148.072262 165 155 165 149.379771 174"></polygon>
                <polygon id="Fill-25" fill="#87C7FF" points="177.113352 165 183 174 175.788511 173.966341 170 165"></polygon>
                <path d="M151.903073,152.39477 L161.251268,152.39477 L161.251268,150.935377 L151.903073,150.935377 L151.903073,152.39477 Z M143.98736,164.10124 L143.98736,160.027802 L159.735053,160.027802 L159.735053,158.707763 L166.71022,158.707763 L166.71022,160.027802 L183,160.027802 L181.004354,164.10124 L166.71022,164.10124 L166.71022,171.732045 L159.735053,174 L159.735053,164.10124 L143.98736,164.10124 Z M144.95669,158.3181 L144.95669,142.858944 L142,142.858944 L146.917157,133.5712 L154.061825,133.5712 L153.263886,135.269487 L160.578057,135.269487 L160.578057,133.030627 L168.549447,133 L168.549447,135.269487 L182.253523,135.269487 L180.225895,139.425618 L168.172065,139.425618 L168.172065,141.093278 L182.125597,141.093278 L179.978038,145.221845 L168.172065,145.221845 L168.172065,146.819061 L182.010463,146.819061 L179.978038,150.935377 L168.172065,150.935377 L168.172065,152.39477 L181.944901,152.39477 L179.902882,156.457488 L151.903073,156.457488 L151.903073,156.901585 L144.95669,158.3181 Z M151.903073,141.093278 L161.251268,141.093278 L161.251268,139.425618 L151.903073,139.425618 L151.903073,141.093278 Z M151.903073,146.819061 L161.251268,146.819061 L161.251268,145.221845 L151.903073,145.221845 L151.903073,146.819061 Z" id="Fill-26" fill="#87C7FF"></path>
            </g>
        </g>
    </g>
</svg>