<?xml version="1.0" encoding="UTF-8" standalone="no"?>
<svg width="18px" height="30px" viewBox="0 0 18 30" version="1.1" xmlns="http://www.w3.org/2000/svg" xmlns:xlink="http://www.w3.org/1999/xlink">
    <!-- Generator: Sketch 47.1 (45422) - http://www.bohemiancoding.com/sketch -->
    <title>3</title>
    <desc>Created with Sketch.</desc>
    <defs></defs>
    <g id="页面" stroke="none" stroke-width="1" fill="none" fill-rule="evenodd">
        <path d="M5.87109375,13.5117188 L8.5859375,13.5117188 C10.6562604,13.5117188 12.2252551,12.9941458 13.2929688,11.9589844 C14.3606824,10.9238229 14.8945312,9.59245605 14.8945312,7.96484375 C14.8945312,6.19400156 14.3932342,4.78125527 13.390625,3.7265625 C12.3880158,2.67186973 10.8971453,2.14453125 8.91796875,2.14453125 C7.09504297,2.14453125 5.60091729,2.68163525 4.43554688,3.75585938 C3.27017646,4.8300835 2.6875,6.24608496 2.6875,8.00390625 L0.5,8.00390625 L0.4609375,7.88671875 C0.395833008,5.67316602 1.17056484,3.83073652 2.78515625,2.359375 C4.39974766,0.888013477 6.44399805,0.15234375 8.91796875,0.15234375 C11.4570439,0.15234375 13.4785081,0.848951367 14.9824219,2.2421875 C16.4863356,3.63542363 17.2382812,5.56899805 17.2382812,8.04296875 C17.2382812,9.38412129 16.8216187,10.6438743 15.9882812,11.8222656 C15.1549438,13.0006569 13.9830805,13.8762992 12.4726562,14.4492188 C14.2434984,14.9570338 15.568355,15.813145 16.4472656,17.0175781 C17.3261763,18.2220112 17.765625,19.644523 17.765625,21.2851562 C17.765625,23.8112105 16.9485759,25.7968678 15.3144531,27.2421875 C13.6803304,28.6875072 11.580742,29.4101562 9.015625,29.4101562 C6.5286334,29.4101562 4.39323809,28.7037831 2.609375,27.2910156 C0.825511914,25.8782481 -0.0338544922,23.9153771 0.03125,21.4023438 L0.0703125,21.2851562 L2.2578125,21.2851562 C2.2578125,23.0950611 2.88606143,24.5729109 4.14257812,25.71875 C5.39909482,26.8645891 7.02342754,27.4375 9.015625,27.4375 C11.0338643,27.4375 12.6093693,26.9134167 13.7421875,25.8652344 C14.8750057,24.8170521 15.4414062,23.316416 15.4414062,21.3632812 C15.4414062,19.3710838 14.8489643,17.8964892 13.6640625,16.9394531 C12.4791607,15.9824171 10.7864693,15.5039062 8.5859375,15.5039062 L5.87109375,15.5039062 L5.87109375,13.5117188 Z" id="3" fill="#F9CF50"></path>
    </g>
</svg>