<?xml version="1.0" encoding="UTF-8" standalone="no"?>
<svg width="19px" height="30px" viewBox="0 0 19 30" version="1.1" xmlns="http://www.w3.org/2000/svg" xmlns:xlink="http://www.w3.org/1999/xlink">
    <!-- Generator: Sketch 47.1 (45422) - http://www.bohemiancoding.com/sketch -->
    <title>6</title>
    <desc>Created with Sketch.</desc>
    <defs></defs>
    <g id="页面" stroke="none" stroke-width="1" fill="none" fill-rule="evenodd">
        <path d="M10.6367188,0.15234375 C11.6132861,0.15234375 12.5768182,0.263019727 13.5273438,0.484375 C14.4778693,0.705730273 15.324215,1.0247375 16.0664062,1.44140625 L15.4609375,3.35546875 C14.7187463,2.9388 13.9830766,2.63281348 13.2539062,2.4375 C12.5247359,2.24218652 11.6523488,2.14453125 10.6367188,2.14453125 C8.5273332,2.14453125 6.77930381,2.96483555 5.39257812,4.60546875 C4.00585244,6.24610195 3.3125,8.40102832 3.3125,11.0703125 L3.3125,13.5898438 C4.09375391,12.5742137 5.0898377,11.7604197 6.30078125,11.1484375 C7.5117248,10.5364553 8.85285723,10.2304688 10.3242188,10.2304688 C12.8763148,10.2304688 14.8945238,11.1093662 16.3789062,12.8671875 C17.8632887,14.6250088 18.6054688,16.9166525 18.6054688,19.7421875 C18.6054688,22.5416807 17.8079507,24.8528555 16.2128906,26.6757812 C14.6178306,28.498707 12.5442836,29.4101562 9.9921875,29.4101562 C7.37498691,29.4101562 5.21680537,28.4336035 3.51757812,26.4804688 C1.81835088,24.527334 0.96875,21.8515795 0.96875,18.453125 L0.96875,11.2851562 C0.96875,8.00388984 1.89973027,5.32813535 3.76171875,3.2578125 C5.62370723,1.18748965 7.91535098,0.15234375 10.6367188,0.15234375 Z M9.85546875,12.1445312 C8.27994004,12.1445312 6.90300068,12.5546834 5.72460938,13.375 C4.54621807,14.1953166 3.74218965,15.2499936 3.3125,16.5390625 L3.3125,18.6289062 C3.3125,21.350274 3.93749375,23.49869 5.1875,25.0742188 C6.43750625,26.6497475 8.03905273,27.4375 9.9921875,27.4375 C11.8932387,27.4375 13.4134058,26.6920647 14.5527344,25.2011719 C15.692063,23.710279 16.2617188,21.8906357 16.2617188,19.7421875 C16.2617188,17.4635303 15.7083389,15.6276111 14.6015625,14.234375 C13.4947861,12.8411389 11.9127707,12.1445312 9.85546875,12.1445312 Z" id="6" fill="#F9CF50"></path>
    </g>
</svg>