<?xml version="1.0" encoding="UTF-8" standalone="no"?>
<svg width="20px" height="30px" viewBox="0 0 20 30" version="1.1" xmlns="http://www.w3.org/2000/svg" xmlns:xlink="http://www.w3.org/1999/xlink">
    <!-- Generator: Sketch 47.1 (45422) - http://www.bohemiancoding.com/sketch -->
    <title>8</title>
    <desc>Created with Sketch.</desc>
    <defs></defs>
    <g id="页面" stroke="none" stroke-width="1" fill="none" fill-rule="evenodd">
        <path d="M18.453125,7.88671875 C18.453125,9.42318477 18.0039107,10.7675724 17.1054688,11.9199219 C16.2070268,13.0722714 15.0091221,13.9088516 13.5117188,14.4296875 C15.2434982,14.9635443 16.6334583,15.8522073 17.6816406,17.0957031 C18.7298229,18.3391989 19.2539062,19.7942625 19.2539062,21.4609375 C19.2539062,24.0130336 18.4010502,25.9759046 16.6953125,27.3496094 C14.9895748,28.7233142 12.7955863,29.4101562 10.1132812,29.4101562 C7.37889258,29.4101562 5.16862822,28.7265693 3.48242188,27.359375 C1.79621553,25.9921807 0.953125,24.0260545 0.953125,21.4609375 C0.953125,19.7812416 1.46744277,18.3196677 2.49609375,17.0761719 C3.52474473,15.8326761 4.90493926,14.9440131 6.63671875,14.4101562 C5.13931543,13.8893203 3.95117627,13.0559953 3.07226562,11.9101562 C2.19335498,10.7643172 1.75390625,9.42318477 1.75390625,7.88671875 C1.75390625,5.43878984 2.52538291,3.53776719 4.06835938,2.18359375 C5.61133584,0.829420313 7.61326895,0.15234375 10.0742188,0.15234375 C12.5221477,0.15234375 14.5305911,0.832675488 16.0996094,2.19335938 C17.6686276,3.55404326 18.453125,5.45181074 18.453125,7.88671875 Z M16.9101562,21.4804688 C16.9101562,19.6835848 16.2591211,18.2220108 14.9570312,17.0957031 C13.6549414,15.9693954 12.0273535,15.40625 10.0742188,15.40625 C8.09504219,15.40625 6.4674543,15.9693954 5.19140625,17.0957031 C3.9153582,18.2220108 3.27734375,19.6835848 3.27734375,21.4804688 C3.27734375,23.3424572 3.90884785,24.800776 5.171875,25.8554688 C6.43490215,26.9101615 8.08202109,27.4375 10.1132812,27.4375 C12.0924578,27.4375 13.7200457,26.9069063 14.9960938,25.8457031 C16.2721418,24.7844999 16.9101562,23.3294363 16.9101562,21.4804688 Z M16.109375,7.8671875 C16.109375,6.2265543 15.5332089,4.86263564 14.3808594,3.77539062 C13.2285099,2.68814561 11.7929773,2.14453125 10.0742188,2.14453125 C8.31639746,2.14453125 6.87760977,2.66535937 5.7578125,3.70703125 C4.63801523,4.74870313 4.078125,6.13540801 4.078125,7.8671875 C4.078125,9.5468834 4.64127041,10.891271 5.76757812,11.9003906 C6.89388584,12.9095103 8.34243906,13.4140625 10.1132812,13.4140625 C11.8450607,13.4140625 13.2773381,12.9095103 14.4101562,11.9003906 C15.5429744,10.891271 16.109375,9.5468834 16.109375,7.8671875 Z" id="8" fill="#F9CF50"></path>
    </g>
</svg>