<?xml version="1.0" encoding="utf-8"?>
<!-- Generator: Adobe Illustrator 19.0.0, SVG Export Plug-In . SVG Version: 6.00 Build 0)  -->
<svg version="1.1" id="图层_1" xmlns="http://www.w3.org/2000/svg" xmlns:xlink="http://www.w3.org/1999/xlink" x="0px" y="0px"
	 viewBox="0 0 67 32" style="enable-background:new 0 0 67 32;" xml:space="preserve">
<style type="text/css">
	.st0{fill:#FFFFFF;}
</style>
<g id="ios" transform="translate(-164.000000, -215.000000)">
	<path id="Combined-Shape-Copy" class="st0" d="M213.3,243.9h1.5c0.8,0,1.4-0.6,1.4-1.4s-0.6-1.4-1.4-1.4h-2.2
		c-2.4,0-4.3-1.9-4.3-4.3l0-17.3c0-0.8-0.6-1.4-1.4-1.4h-13.1h-3c-3,0-6.4,3.5-6.4,6.5v12.1v0.9c0,3,3.4,6.5,6.4,6.5h1.3v0h13.5
		c-0.9-0.8-1.6-1.8-2.1-2.9h-11.9c-2.4,0-4.3-1.9-4.3-4.3c0-2.4,1.9-4.3,4.3-4.3h3.8c0.8,0,1.4-0.6,1.4-1.4s-0.6-1.4-1.4-1.4h-3.8
		c-2.4,0-4.3-1.9-4.3-4.3c0-2.4,1.9-4.3,4.3-4.3h9.5c2.4,0,4.3,1.9,4.3,4.3l0,0.2v12.1c0,3,3.4,6.5,6.4,6.5H213.3z M214.9,246.8
		L214.9,246.8l-1.6,0h-2.2h-17.4v0h-3c-4.6,0-9.3-4.8-9.3-9.3v-0.9v-12.1c0-4.6,4.7-9.3,9.3-9.3h3h13.2v0c2.4,0,4.3,1.9,4.3,4.3
		v17.2c0,0.8,0.6,1.4,1.4,1.4h2.2c2.4,0,4.3,1.9,4.3,4.3C219.1,244.8,217.2,246.7,214.9,246.8z M202.6,238.2c0-0.2,0-0.5,0-0.7
		v-12.1v-0.1c0-0.8-0.6-1.4-1.4-1.4h-9.5c-0.8,0-1.4,0.6-1.4,1.4s0.6,1.4,1.4,1.4h3.8c2.4,0,4.3,1.9,4.3,4.3c0,2.4-1.9,4.3-4.3,4.3
		h-3.8c-0.8,0-1.4,0.6-1.4,1.4s0.6,1.4,1.4,1.4H202.6z"/>
</g>
</svg>
