<?xml version="1.0" encoding="UTF-8"?>
<svg width="30px" height="20px" viewBox="0 0 30 20" version="1.1" xmlns="http://www.w3.org/2000/svg" xmlns:xlink="http://www.w3.org/1999/xlink">
    <!-- Generator: Sketch 47.1 (45422) - http://www.bohemiancoding.com/sketch -->
    <title>眼睛</title>
    <desc>Created with Sketch.</desc>
    <defs>
        <linearGradient x1="0%" y1="50%" x2="100%" y2="50%" id="linearGradient-1">
            <stop stop-color="#ECDAA0" offset="0%"></stop>
            <stop stop-color="#FDC432" offset="100%"></stop>
        </linearGradient>
    </defs>
    <g id="Symbols" stroke="none" stroke-width="1" fill="none" fill-rule="evenodd">
        <g id="眼睛" fill="url(#linearGradient-1)" fill-rule="nonzero">
            <path d="M15,4.875 C12.171,4.875 9.875,7.171 9.875,10 C9.875,12.829 12.171,15.125 15,15.125 C17.829,15.125 20.125,12.829 20.125,10 C20.125,7.171 17.829,4.875 15,4.875 M15,0 C6.716,0 0,10 0,10 C0,10 6.716,20 15,20 C23.284,20 30,10 30,10 C30,10 23.284,0 15,0 M15,16.25 C11.548,16.25 8.75,13.452 8.75,10 C8.75,6.548 11.548,3.75 15,3.75 C18.452,3.75 21.25,6.548 21.25,10 C21.25,13.452 18.452,16.25 15,16.25"></path>
        </g>
    </g>
</svg>