<?xml version="1.0" encoding="UTF-8"?>
<svg width="20px" height="20px" viewBox="0 0 20 20" version="1.1" xmlns="http://www.w3.org/2000/svg" xmlns:xlink="http://www.w3.org/1999/xlink">
    <!-- Generator: Sketch 47.1 (45422) - http://www.bohemiancoding.com/sketch -->
    <title>退出</title>
    <desc>Created with Sketch.</desc>
    <defs></defs>
    <g id="Symbols" stroke="none" stroke-width="1" fill="none" fill-rule="evenodd" fill-opacity="0.35">
        <g id="退出" fill-rule="nonzero" fill="#FFFFFF">
            <path d="M8.85569427,19.936274 C4.23575177,19.4238048 0.502464891,15.6330892 0.0491372073,11.0064151 C-0.351968922,6.89665686 1.73911617,3.24378541 4.98574244,1.35843241 C5.7301776,0.926001794 6.66683262,1.45736898 6.66683262,2.31889526 C6.66683262,2.72798129 6.43239109,3.08815487 6.08017324,3.29492116 C3.7757575,4.64557205 2.22244349,7.14233081 2.22244349,10.0003748 C2.22244349,14.5836946 6.20683835,18.2532408 10.8945578,17.7274318 C14.3711812,17.3383554 17.236701,14.5436753 17.7055841,11.0753372 C18.1511341,7.77708114 16.5100434,4.81343072 13.9222979,3.29603282 C13.5678578,3.08815487 13.3334163,2.72686964 13.3334163,2.31667197 C13.3334163,1.45959227 14.266738,0.924890159 15.008951,1.35509747 C17.9922472,3.08370827 20,6.3041491 20,10.0003748 C20,15.8998844 14.8911747,20.6065971 8.85569427,19.936274 Z M10.0001245,10.0003748 C9.38679876,10.0003748 8.88902718,9.502357 8.88902718,8.88872796 L8.88902718,1.11053518 C8.88902718,0.496906119 9.38679876,0 10.0001245,0 C10.6134502,0 11.1112218,0.496906119 11.1112218,1.11053518 L11.1112218,8.88872796 C11.1112218,9.502357 10.6134502,10.0003748 10.0001245,10.0003748 Z"></path>
        </g>
    </g>
</svg>