<?xml version="1.0" encoding="UTF-8"?>
<svg width="1155px" height="62px" viewBox="0 0 1155 62" version="1.1" xmlns="http://www.w3.org/2000/svg" xmlns:xlink="http://www.w3.org/1999/xlink">
    <!-- Generator: Sketch 47.1 (45422) - http://www.bohemiancoding.com/sketch -->
    <title>首页_标语</title>
    <desc>Created with Sketch.</desc>
    <defs>
        <linearGradient x1="14.2165184%" y1="0%" x2="96.8857518%" y2="0%" id="linearGradient-1">
            <stop stop-color="#FFFFFF" stop-opacity="0" offset="0%"></stop>
            <stop stop-color="#FFFFFF" offset="100%"></stop>
        </linearGradient>
        <filter x="-6.2%" y="-1205.8%" width="112.3%" height="2511.6%" filterUnits="objectBoundingBox" id="filter-2">
            <feGaussianBlur stdDeviation="8.03850446" in="SourceGraphic"></feGaussianBlur>
        </filter>
        <linearGradient x1="2.87275565%" y1="0%" x2="95.3203636%" y2="0%" id="linearGradient-3">
            <stop stop-color="#FFFFFF" stop-opacity="0" offset="0%"></stop>
            <stop stop-color="#FFFFFF" offset="100%"></stop>
        </linearGradient>
        <filter x="-6.2%" y="-1205.8%" width="112.3%" height="2511.6%" filterUnits="objectBoundingBox" id="filter-4">
            <feGaussianBlur stdDeviation="8.03850446" in="SourceGraphic"></feGaussianBlur>
        </filter>
    </defs>
    <g id="Symbols" stroke="none" stroke-width="1" fill="none" fill-rule="evenodd">
        <g id="首页_标语">
            <g id="Group-2">
                <g id="Group" transform="translate(0.000000, 32.000000)" fill-rule="nonzero">
                    <polygon id="Line" fill="url(#linearGradient-1)" filter="url(#filter-2)" points="3.14323607 3 395 3 395 1 3.14323607 1"></polygon>
                    <path d="M2.09549072,4 L392.431384,4 C393.588692,4 394.526875,3.1045695 394.526875,2 C394.526875,0.8954305 393.588692,0 392.431384,0 L2.09549072,0 C0.93818315,0 0,0.8954305 0,2 C0,3.1045695 0.93818315,4 2.09549072,4 Z" id="Line" fill="url(#linearGradient-3)"></path>
                </g>
                <g id="Group" transform="translate(957.500000, 34.000000) scale(-1, 1) translate(-957.500000, -34.000000) translate(760.000000, 32.000000)" fill-rule="nonzero">
                    <polygon id="Line" fill="url(#linearGradient-1)" filter="url(#filter-4)" points="3.14323607 3 395 3 395 1 3.14323607 1"></polygon>
                    <path d="M2.09549072,4 L392.431384,4 C393.588692,4 394.526875,3.1045695 394.526875,2 C394.526875,0.8954305 393.588692,0 392.431384,0 L2.09549072,0 C0.93818315,0 0,0.8954305 0,2 C0,3.1045695 0.93818315,4 2.09549072,4 Z" id="Line" fill="url(#linearGradient-3)"></path>
                </g>
                <text id="让一切更便捷" font-family="PingFangSC-Medium, PingFang SC" font-size="44" font-weight="400" fill="#BFD1E3">
                    <tspan x="445.5" y="47">让一切更便捷</tspan>
                </text>
            </g>
        </g>
    </g>
</svg>