<?xml version="1.0" encoding="UTF-8"?>
<svg preserveAspectRatio="none" width="10px" height="12px" viewBox="0 0 10 12" version="1.1" xmlns="http://www.w3.org/2000/svg" xmlns:xlink="http://www.w3.org/1999/xlink">
    <!-- Generator: Sketch 47.1 (45422) - http://www.bohemiancoding.com/sketch -->
    <title>箭头朝上</title>
    <desc>Created with Sketch.</desc>
    <defs></defs>
    <g id="Symbols" stroke="none" stroke-width="1" fill="none" fill-rule="evenodd" fill-opacity="0.6">
        <path d="M5.67133841,0.651769129 L5.67133841,8.96392529 C5.67133841,8.9651019 5.67427994,8.96686682 5.67427992,8.9651019 L8.8452419,5.8294382 C9.10790417,5.57522322 9.52254669,5.5677684 9.79417728,5.81237738 C10.0606793,6.05593549 10.0700921,6.46010078 9.81241472,6.71366007 L5.49602363,10.9823985 C5.36651413,11.1081488 5.19295195,11.1782494 5.01243721,11.1777156 C4.83186197,11.178564 4.65818533,11.1084172 4.52885081,10.9823985 L0.18716261,6.6907162 C0.0645055029,6.57158475 -0.00322720395,6.40690341 0.000118311656,6.23594764 C0.00346382727,6.06499187 0.0775876646,5.90308659 0.204811757,5.78884518 C0.47672463,5.54534422 0.890494417,5.55304465 1.15315883,5.80649433 L4.3247091,8.94215802 C4.32647401,8.94333463 4.32765063,8.94215802 4.32765063,8.94039311 L4.32765063,0.63706151 C4.32765063,0.298198042 4.60650703,0.0211065568 4.95713658,0.00110420026 C5.34777086,-0.0206630688 5.67133841,0.282313819 5.67133841,0.651769129 Z" id="箭头朝上" fill="#03FFFF" fill-rule="nonzero" transform="translate(5.000000, 5.588862) scale(1, -1) translate(-5.000000, -5.588862) "></path>
    </g>
</svg>
