<?xml version="1.0" encoding="UTF-8"?>
<svg width="32px" height="34px" viewBox="0 0 32 34" version="1.1" xmlns="http://www.w3.org/2000/svg" xmlns:xlink="http://www.w3.org/1999/xlink">
    <!-- Generator: Sketch 47.1 (45422) - http://www.bohemiancoding.com/sketch -->
    <title>电</title>
    <desc>Created with Sketch.</desc>
    <defs>
        <linearGradient x1="50%" y1="0%" x2="36.1979167%" y2="72.6074219%" id="linearGradient-1">
            <stop stop-color="#17EAD9" offset="0%"></stop>
            <stop stop-color="#6078EA" offset="100%"></stop>
        </linearGradient>
    </defs>
    <g id="Symbols" stroke="none" stroke-width="1" fill="none" fill-rule="evenodd">
        <g id="电" fill="url(#linearGradient-1)" fill-rule="nonzero">
            <path d="M31.8494903,1.20817584 L22.6975606,15.4811437 C22.3446183,16.043455 22.8753352,16.7176916 23.6512614,16.7176916 L26.1257896,16.7176916 C27.1508567,16.7176916 27.5738833,17.7571639 26.7252233,18.2353782 L1.70772398,33.8290249 C0.78902252,34.3623864 -0.377494976,33.5478523 0.118179898,32.7600933 L8.95220924,17.9253238 C9.30515162,17.3640658 8.77575943,16.7176916 7.99714093,16.7176916 L5.31244558,16.7176916 C4.4988277,16.7176916 4.0058024,16.0434549 4.35874478,15.4811437 L14.0413913,0.449842224 C14.2165164,0.168703597 14.569416,0 14.96005,0 L30.9671557,0 C31.7444067,3.39683974e-05 32.2737989,0.674780321 31.8494903,1.20817584 Z"></path>
        </g>
    </g>
</svg>