<?xml version="1.0" encoding="UTF-8"?>
<svg width="26px" height="32px" viewBox="0 0 26 32" version="1.1" xmlns="http://www.w3.org/2000/svg" xmlns:xlink="http://www.w3.org/1999/xlink">
    <!-- Generator: Sketch 47.1 (45422) - http://www.bohemiancoding.com/sketch -->
    <title>升起</title>
    <desc>Created with Sketch.</desc>
    <defs>
        <linearGradient x1="100%" y1="0%" x2="0%" y2="100%" id="linearGradient-1">
            <stop stop-color="#1DE9B6" offset="0%"></stop>
            <stop stop-color="#1DC4E9" offset="100%"></stop>
        </linearGradient>
    </defs>
    <g id="Symbols" stroke="none" stroke-width="1" fill="none" fill-rule="evenodd">
        <g id="升起" fill="url(#linearGradient-1)" fill-rule="nonzero">
            <path d="M12.5013521,1.67575785 L12.5013521,31.5097138 C12.5013521,31.7803518 12.7247464,32 13,32 C13.2762509,32 13.4986479,31.7803518 13.4986479,31.5097138 L13.4986479,1.67203634 L25.1480601,13.1298646 C25.2457951,13.2249801 25.3734489,13.2730281 25.5011028,13.2730281 C25.6287566,13.2730281 25.7564105,13.2249801 25.8541455,13.128884 C26.0486182,12.9376724 26.0486182,12.6268309 25.8541455,12.4356193 L13.3550373,0.143163572 C13.2636611,0.054275445 13.1410169,0.00265238748 13.012041,9.94112108e-05 C13.0080422,4.70053508e-05 13.0040266,0 13,0 C12.8488528,0 12.7133429,0.06623107 12.6218726,0.170767177 L0.14585451,12.4365999 C-0.04861817,12.6278115 -0.04861817,12.9386529 0.14585451,13.1298646 C0.34032719,13.3210762 0.656469956,13.3210762 0.850942636,13.1298646 L12.5013521,1.67575785 Z"></path>
        </g>
    </g>
</svg>