<?xml version="1.0" encoding="UTF-8"?>
<svg width="131px" height="32px" viewBox="0 0 131 32" version="1.1" xmlns="http://www.w3.org/2000/svg" xmlns:xlink="http://www.w3.org/1999/xlink">
    <!-- Generator: Sketch 47.1 (45422) - http://www.bohemiancoding.com/sketch -->
    <title>菜单_LOGO</title>
    <desc>Created with Sketch.</desc>
    <defs></defs>
    <g id="Symbols" stroke="none" stroke-width="1" fill="none" fill-rule="evenodd">
        <g id="菜单_LOGO" fill="#FFFFFF">
            <g>
                <polygon id="Fill-6" points="22.0498128 19.0784559 16.0356729 19.0784559 15.5463639 31.4543283 27.9038748 30.9637673 27.9038748 24.9399405 22.0498128 24.9399405"></polygon>
                <polygon id="Fill-11" points="40.0706535 12.6208247 46.0832809 12.6208247 46.5710774 0.252274098 34.220625 0.743340071 34.220625 6.76438959 40.0706535 6.76438959"></polygon>
                <path d="M25.7664439,13.7998627 C26.5963281,11.6810835 28.6518798,10.1755686 31.0560737,10.1755686 C33.4645531,10.1755686 35.5246424,11.6838607 36.3459556,13.7998627 C47.6736739,13.7420457 53.7715081,14.0945023 58.9305546,15.2662438 C63.8042339,16.3523959 62.4313452,19.0942861 59.3180188,19.9367988 C53.1561535,21.6329331 46.9983216,21.4377691 46.9983216,21.4377691 C46.9983216,21.4377691 51.8382206,20.5273403 54.6492897,19.5293024 C56.6493813,18.8233793 56.4487167,18.2381397 54.2560274,18.0432282 C50.728011,17.7230885 42.0873328,17.6996083 36.416289,17.7157667 C35.6511922,19.9367988 33.5404325,21.5334575 31.0560737,21.5334575 C28.5739837,21.5334575 26.4654928,19.9367988 25.7044295,17.7157667 C20.0117058,17.6996083 11.3962368,17.7230885 7.87830397,18.0432282 C5.68788347,18.2381397 5.48696678,18.8233793 7.48478959,19.5293024 C10.2998921,20.5273403 15.1418079,21.4377691 15.1418079,21.4377691 C15.1418079,21.4377691 8.97212771,21.6329331 2.81127072,19.9367988 C-0.297770133,19.0942861 -1.67418812,16.3523959 3.19545772,15.2662438 C8.36257117,14.0945023 14.4467924,13.7420457 25.7664439,13.7998627" id="Fill-1"></path>
                <polygon id="Fill-4" points="27.8400453 6.82768534 27.8400453 0.805878395 15.4792572 0.318347087 15.9753727 12.6901799 21.985227 12.6901799 21.985227 6.82768534"></polygon>
                <polygon id="Fill-9" points="34.2823874 24.8740695 34.2823874 30.8986537 46.633596 31.3907296 46.1510934 19.0143522 40.1367014 19.0143522 40.1367014 24.8740695"></polygon>
                <path d="M77.2496697,6.23199329 L80.4035828,5.71921437 L80.0453612,7.44261608 L77.2496697,7.85894914 L77.2496697,13.6987208 L80.2682098,13.6901366 L79.6160499,15.1267255 L75.2967191,15.142379 L75.2967191,4.26267987 L77.2496697,4.27429377 L77.2496697,6.23199329 Z M72.2673391,6.16155246 L72.2673391,4.27429377 L74.2127269,4.26267987 L74.2127269,13.6151513 L72.2438946,15.142379 L69.5523168,15.1267255 L69.5523168,13.6901366 L72.2673391,13.6987208 L72.2673391,7.59460668 L69.4703872,7.59460668 L69.4703872,6.16155246 L72.2673391,6.16155246 Z" id="Fill-14"></path>
                <path d="M97.4895937,12.4016502 L98.3219989,13.8528827 L105.912465,13.8596996 L105.32232,15.1104661 L97.2864082,15.1104661 L96.9261698,14.5012413 L96.7239927,15.1104661 L95.0793497,15.1104661 L95.9241073,12.3112638 L95.1542208,10.9761703 L96.2505654,10.9761703 L96.5500498,9.97055807 L95.3493394,9.96626597 L95.3493394,8.75993527 L96.4713973,5.76127688 L95.4595032,5.76127688 L95.4595032,4.34943065 L98.2435985,4.36281189 L98.2435985,5.55601383 L97.0557447,8.61198429 L98.1765422,8.61198429 L98.1765422,9.98267692 L97.4895937,12.4016502 Z M102.88132,6.34449663 L103.489616,6.34449663 L103.489616,5.78475716 L102.88132,5.78475716 L102.88132,6.34449663 Z M102.88132,8.24639893 L103.489616,8.24639893 L103.489616,7.49805983 L102.88132,7.49805983 L102.88132,8.24639893 Z M101.10559,11.6245289 L101.10559,11.100136 L98.888952,11.100136 L98.888952,9.98267692 L101.10559,9.98267692 L101.10559,9.37294719 L98.7253448,9.37294719 L98.7253448,8.24639893 L101.10559,8.24639893 L101.10559,7.49805983 L98.7709733,7.49805983 L98.7709733,6.34449663 L101.10559,6.34449663 L101.10559,5.78475716 L98.8256771,5.78475716 L98.8256771,4.66275347 L101.10559,4.66275347 L101.10559,4.27419278 L102.88132,4.27419278 L102.88132,4.66275347 L105.264591,4.66275347 L105.264591,6.34449663 L105.794486,6.34449663 L105.401224,7.50613906 L105.264591,7.49805983 L105.264591,8.2350375 L103.692298,9.37294719 L102.88132,9.37294719 L102.88132,9.99833043 L105.503069,9.99833043 L104.995609,11.100136 L102.88132,11.100136 L102.88132,11.6245289 L105.845409,11.6245289 L105.365427,12.7500672 L102.88132,12.7500672 L102.88132,13.0500088 L101.10559,13.8193034 L101.10559,12.7500672 L98.7823174,12.7500672 L98.7823174,11.6245289 L101.10559,11.6245289 Z" id="Fill-16"></path>
                <path d="M121.89593,13.8404862 L128.510803,13.8404862 L128.510803,5.78473191 L121.89593,5.78473191 L121.89593,13.8404862 Z M130.355102,13.751867 L128.47904,15.1265993 L120.065748,15.1265993 L120.065748,14.813024 L120.065748,5.50852308 L120.065748,4.47968306 L130.355102,4.47968306 L130.355102,13.751867 Z M125.647803,8.86822226 L123.904341,12.750042 L122.11651,12.750042 L123.852914,8.86822226 L125.647803,8.86822226 Z M127.766882,7.04231526 L128.45131,7.04231526 L128.091071,8.31201746 L127.766882,8.31201746 L127.766882,12.0814853 L126.020394,13.3635588 L125.112362,13.3635588 L125.112362,12.1372825 L126.020394,12.1372825 L126.020394,8.31201746 L122.11651,8.31201746 L122.11651,7.04231526 L126.020394,7.04231526 L126.020394,6.31341682 L127.766882,6.31341682 L127.766882,7.04231526 Z" id="Fill-18"></path>
                <polygon id="Fill-20" points="82.2993591 14.5900876 82.7382499 8.75208326 84.1524815 8.75208326 83.7604797 14.5900876"></polygon>
                <polygon id="Fill-21" points="90.8079415 4.39846151 92.4200647 4.39846151 92.4200647 12.2181506 93.2171771 12.1653831 92.7583711 13.5507194 92.4200647 13.5802591 92.4200647 14.8080502 90.8079415 15.4788792 90.8079415 13.6433781 87.8940192 13.8529332 87.8940192 12.4981466 90.8079415 12.2966707"></polygon>
                <polygon id="Fill-22" points="87.4002734 8.75208326 87.7768976 14.5900876 86.3843458 14.5900876 86.0276368 8.75208326"></polygon>
                <polygon id="Fill-23" points="85.8581811 8.13864214 85.8581811 14.7812878 84.3088285 15.3337054 84.3088285 8.13864214 82.3405004 8.13864214 82.3405004 6.85303394 84.3088285 6.85303394 84.3088285 5.96810529 82.4352867 6.16150196 82.4352867 4.7595023 87.7768472 4.27424328 87.4314823 5.63306953 85.8581811 5.82823354 85.8581811 6.85303394 87.7768472 6.85303394 87.1859454 8.13864214"></polygon>
                <polygon id="Fill-24" points="88.0950367 7.06630049 91.1171061 7.06630049 91.1171061 5.48882995 88.0950367 5.48882995"></polygon>
                <polygon id="Fill-25" points="88.0950367 10.5444109 91.1171061 10.5444109 91.1171061 8.97274736 88.0950367 8.97274736"></polygon>
                <polygon id="Fill-26" points="107.461969 14.9254264 109.222826 12.9417218 111.231741 12.9417218 109.601971 14.9254264"></polygon>
                <polygon id="Fill-27" points="116.07343 12.8666607 117.712527 14.9253506 115.704368 14.9172714 114.092749 12.8666607"></polygon>
                <path d="M109.932942,9.58171966 L112.428897,9.58171966 L112.428897,9.17422327 L109.932942,9.17422327 L109.932942,9.58171966 Z M107.493707,12.5137244 L107.493707,11.3763196 L111.698841,11.3763196 L111.698841,11.007957 L113.56129,11.007957 L113.56129,11.3763196 L117.910872,11.3763196 L117.377951,12.5137244 L113.56129,12.5137244 L113.56129,14.6451274 L111.698841,15.2780849 L111.698841,12.5137244 L107.493707,12.5137244 Z M108.078307,11.2359429 L108.078307,6.9183495 L107.289009,6.9183495 L108.602152,4.3251677 L110.509222,4.3251677 L110.296205,4.7990653 L112.24966,4.7990653 L112.24966,4.17393453 L114.378318,4.16560282 L114.378318,4.7990653 L118.03717,4.7990653 L117.496182,5.96020279 L114.277229,5.96020279 L114.277229,6.42576868 L118.00339,6.42576868 L117.42963,7.57832197 L114.277229,7.57832197 L114.277229,8.0244472 L117.972634,8.0244472 L117.42963,9.17422327 L114.277229,9.17422327 L114.277229,9.58171966 L117.954988,9.58171966 L117.409967,10.7158422 L109.932942,10.7158422 L109.932942,10.8400604 L108.078307,11.2359429 Z M109.932942,6.4255162 L112.428897,6.4255162 L112.428897,5.96020279 L109.932942,5.96020279 L109.932942,6.4255162 Z M109.932942,8.0244472 L112.428897,8.0244472 L112.428897,7.57832197 L109.932942,7.57832197 L109.932942,8.0244472 Z" id="Fill-28"></path>
                <path d="M82.5221573,27.0837149 L84.4554447,27.0837149 C85.2558343,27.0837149 85.7958137,27.0339771 86.0761391,26.9249074 C86.3446162,26.8279566 86.5679691,26.6502135 86.7371223,26.4136434 C86.8997211,26.1765683 86.9836675,25.9245972 86.9836675,25.6574775 C86.9836675,25.3383478 86.855353,25.0752677 86.6214124,24.8692472 C86.3892364,24.6468158 85.9841258,24.5463303 85.4330544,24.5463303 L83.0444903,24.5463303 L82.5221573,27.0837149 Z M83.4069974,22.8562554 L84.9293762,22.8562554 C85.6130476,22.8562554 86.1051296,22.8080325 86.4078911,22.7148688 C86.7035941,22.6191804 86.929972,22.4591106 87.0829914,22.242991 C87.2355066,22.0137428 87.3060921,21.7812123 87.3060921,21.5325234 C87.3060921,21.2805522 87.2400442,21.082106 87.0885374,20.9232986 C86.9549291,20.7594416 86.7565333,20.6635007 86.4913333,20.6087134 C86.3446162,20.5811935 85.9964783,20.5630152 85.4370879,20.5630152 L83.8799205,20.5630152 L83.4069974,22.8562554 Z M80.2132539,28.644522 L82.2398151,18.9370693 L85.5555708,18.9370693 C86.2629387,18.9370693 86.7721629,18.9683763 87.0582865,19.0065002 C87.540789,19.0837579 87.9368243,19.2049464 88.2710972,19.4097045 C88.6005805,19.6078982 88.8526717,19.8639089 89.0218249,20.2019744 C89.1972803,20.5317082 89.2829913,20.9013332 89.2829913,21.3002454 C89.2829913,21.8382719 89.1342575,22.3040902 88.8332606,22.6959331 C88.5294907,23.0928255 88.0724494,23.394282 87.441213,23.5929806 C87.9368243,23.7325999 88.3275657,23.9694225 88.6046139,24.3269286 C88.8864519,24.6798901 89.0233374,25.0634013 89.0233374,25.5085166 C89.0233374,26.0912314 88.8574614,26.6469313 88.5294907,27.1695568 C88.1962262,27.6853654 87.7406973,28.0613023 87.159375,28.2948426 C86.5775485,28.5271206 85.7890072,28.644522 84.7753485,28.644522 L80.2132539,28.644522 Z" id="Fill-29"></path>
                <path d="M96.2118946,26.646805 L97.8595627,25.4169941 C97.8903179,26.0123327 98.1298045,26.3503981 98.3075288,26.5644978 C98.6027276,26.9101376 99.0012838,27.1472126 99.7868,27.1472126 C100.439212,27.1472126 100.903816,27.0338509 101.203553,26.7970283 C101.485895,26.5644978 101.635133,26.2822296 101.635133,25.9517384 C101.635133,25.6573513 101.514381,25.4169941 101.27792,25.222335 C101.111791,25.0751414 100.652733,24.8418536 99.8994848,24.5080802 C99.1522865,24.1811237 98.6085257,23.9099643 98.2619003,23.6890478 C97.9125019,23.4726758 97.642008,23.1921749 97.4426039,22.8485549 C97.2449644,22.4915537 97.1496739,22.0868346 97.1496739,21.6134419 C97.1496739,20.7994591 97.4363016,20.1155014 98.0274555,19.5734352 C98.6201219,19.0331364 99.4815176,18.7652593 100.589711,18.7652593 C101.723617,18.7652593 102.452665,19.0838841 103.09701,19.5847966 C103.636989,19.9839613 103.894122,20.6085871 103.901433,20.5967208 L102.348047,21.7846207 C102.302166,21.3266291 102.131752,20.9688705 101.84815,20.7211915 C101.568076,20.472755 101.144563,20.356616 100.586181,20.356616 C100.03511,20.356616 99.6478978,20.4495272 99.4000921,20.6391367 C99.1641347,20.8373305 99.05145,21.0822323 99.05145,21.3826788 C99.05145,21.6528282 99.1618659,21.8934379 99.3771518,22.0673939 C99.590421,22.2544787 100.071159,22.5069548 100.805501,22.8238123 C101.91924,23.3118485 102.630137,23.7021765 102.929369,24.0076726 C103.382629,24.4429413 103.603965,25.0163145 103.603965,25.7108762 C103.603965,26.5644978 103.26818,27.2946587 102.593836,27.8988339 C101.91924,28.5120983 100.978183,28.8143122 99.7719266,28.8143122 C98.9385131,28.8143122 98.2861011,28.6741879 97.6992327,28.3573305 C96.4597003,27.681957 96.2401288,26.646805 96.2118946,26.646805" id="Fill-30"></path>
                <path d="M113.316434,27.0837149 L114.337404,27.0837149 C115.065191,27.0837149 115.602901,27.0339771 115.934654,26.9446006 C116.258843,26.8544666 116.566142,26.6959116 116.836384,26.4404058 C117.227377,26.0788601 117.565432,25.6132942 117.833404,25.0161883 C118.102134,24.4102457 118.233473,23.7020503 118.233473,22.9022061 C118.233473,22.2104216 118.127091,21.6915833 117.906259,21.3570525 C117.680637,20.9997988 117.408379,20.77661 117.077131,20.6635007 C116.84798,20.5811935 116.43808,20.5397874 115.850959,20.5397874 L114.692852,20.5397874 L113.316434,27.0837149 Z M111.001985,28.644522 L113.036361,18.9370693 L115.644749,18.9370693 C116.378838,18.9370693 116.84798,18.960802 117.046124,18.9756981 C117.448209,19.0065002 117.806683,19.0923421 118.121797,19.2200949 C118.441196,19.3481003 118.725555,19.5185217 118.981176,19.7437303 C119.24083,19.9686865 119.461914,20.2246973 119.644932,20.5397874 C119.842067,20.8601796 119.989793,21.2098589 120.087352,21.6266969 C120.189953,22.0407577 120.245665,22.4702195 120.245665,22.9648201 C120.245665,24.0075463 120.039707,24.9361534 119.637873,25.7567006 C119.24083,26.5570498 118.741185,27.2008638 118.134653,27.674004 C117.673579,28.0459012 117.072089,28.3135259 116.337243,28.4889967 C115.924822,28.580898 115.290308,28.644522 114.428409,28.644522 L111.001985,28.644522 Z" id="Fill-31"></path>
            </g>
        </g>
    </g>
</svg>