<?xml version="1.0" encoding="UTF-8"?>
<svg width="131px" height="32px" viewBox="0 0 131 32" version="1.1" xmlns="http://www.w3.org/2000/svg" xmlns:xlink="http://www.w3.org/1999/xlink">
    <!-- Generator: Sketch 47.1 (45422) - http://www.bohemiancoding.com/sketch -->
    <title>菜单_LOGO</title>
    <desc>Created with Sketch.</desc>
    <defs></defs>
    <g id="Symbols" stroke="none" stroke-width="1" fill="none" fill-rule="evenodd">
        <g id="菜单_LOGO" fill="#FFFFFF">
            <g id="Page-1" transform="translate(32.000000, 0.000000)">
                <path d="M10.9024826,15.9736869 C10.8965476,15.3448363 10.3488853,14.803797 9.73745328,14.8226499 C9.14142699,14.8409967 8.63518347,15.3634361 8.62710176,15.9683726 C8.61851494,16.6022844 9.14369997,17.1488909 9.76308747,17.1507888 C10.3791918,17.1525602 10.9084177,16.6058272 10.9024826,15.9736869 M16.6038782,15.9868459 C16.6038782,11.8538932 16.611076,7.72106701 16.5999636,3.5881143 C16.5961753,2.16516591 15.9176903,1.67258739 14.5837027,2.0955748 C10.9426387,3.2502811 7.3039739,4.41295874 3.66404638,5.57133438 C3.38169155,5.66117018 3.09479076,5.75378962 2.88188815,5.96420783 C2.59183044,6.25104972 2.64448784,6.49904713 3.04604793,6.6043195 C3.24468127,6.65632304 3.46377144,6.63784976 3.67364341,6.63797629 C6.26206438,6.63987423 8.85048534,6.636711 11.4389063,6.64088647 C12.5294324,6.64253135 12.9565004,7.07247787 12.9571318,8.17543369 C12.9601624,13.3836323 12.9601624,18.5919574 12.9570055,23.8002826 C12.9563741,24.9023527 12.5293061,25.331287 11.4377698,25.3330584 C8.78633675,25.3371073 6.13465113,25.3322992 3.48321806,25.3387522 C3.20263111,25.3393849 2.81887605,25.2532184 2.73591222,25.6295165 C2.64777104,26.0287164 3.04263846,26.1231073 3.31122912,26.2711466 C3.38446964,26.3115094 3.46415027,26.3425091 3.54408346,26.3679415 C7.30460528,27.5627575 11.0631067,28.763647 14.8276694,29.9454306 C15.8397776,30.2631456 16.5058875,29.7732242 16.5893564,28.7012681 C16.6089293,28.4496013 16.6042571,28.195657 16.6043833,27.942725 C16.605141,23.957432 16.6048884,19.9721389 16.6038782,15.9868459 M0,6.87673706 C0.0429340974,6.80588066 0.111628653,6.73932625 0.124761436,6.66328215 C0.384260171,5.16163254 1.35128758,4.31464548 2.72707284,3.87027461 C5.62133611,2.93534969 8.51812492,2.00814306 11.4198385,1.09675259 C12.5791854,0.732601294 13.7106252,0.267100038 14.9134113,0.0542777727 C16.1573636,-0.16600972 17.1415647,0.290887544 17.8607108,1.30375451 C18.3083619,1.93412343 18.5265681,2.65407508 18.5263156,3.43741791 C18.5244214,11.8040407 18.5287148,20.1706634 18.5222747,28.5372861 C18.5208857,30.3329898 17.4522055,31.6405435 15.7835844,31.9643319 C15.265092,32.0650492 14.7757696,31.9356098 14.3003376,31.7857991 C10.4188427,30.5633996 6.53823165,29.3379635 2.66633372,28.08545 C1.31744541,27.6490505 0.374158031,26.7870065 0.124761436,25.3105362 C0.111881207,25.2344921 0.0429340974,25.1679377 0,25.0969547 C0,19.0235489 0,12.950143 0,6.87673706" id="Fill-1"></path>
                <path d="M66.5263158,23.2352394 C66.0481525,24.6025352 64.9862923,24.9370917 63.6479979,24.8206861 C62.9858863,24.7631724 62.4716497,24.3401527 62.4866163,23.8047371 C62.5018388,23.2590468 62.9459754,22.9018106 63.6318801,22.8832659 C64.4949533,22.8599598 64.4967442,22.8599598 64.4973838,21.9947492 C64.498663,20.4705752 64.4797309,18.9461506 64.5068498,17.4226031 C64.5165717,16.8792934 64.3292975,16.6918416 63.7700332,16.6925934 C62.5724504,16.6943476 62.2193924,16.0897653 62.7583175,15.0310884 C63.1854408,14.1919406 63.6055287,13.3484073 64.062969,12.5251729 C64.6038128,11.5518267 64.4949533,10.5055546 64.4862548,9.46692604 C64.4842081,9.23511727 64.3415778,9.12460087 64.1192536,9.12284664 C63.4590608,9.11758396 62.79874,9.11758396 62.1384193,9.12222013 C61.7188432,9.12510208 61.757347,9.42958603 61.757219,9.70186736 C61.7563236,11.1841905 61.7563236,12.6665136 61.7563236,14.1488367 C61.7561957,17.2805106 61.757347,20.4123097 61.7554282,23.5439836 C61.7549165,24.3410299 61.3633547,24.8322138 60.758679,24.8092836 C60.1762613,24.7871051 59.7914793,24.2989284 59.7912235,23.5619018 C59.7894326,18.7599517 59.7881534,13.9580017 59.7918631,9.15592638 C59.7928864,7.92433264 60.4982348,7.22339304 61.7632313,7.19382175 C62.4449146,7.1779084 63.1320984,7.24005821 63.8082811,7.1782843 C65.0992453,7.06050039 66.0601769,7.43816073 66.5263158,8.70020287 L66.5263158,11.4568477 C66.2337638,12.5363248 65.8012678,13.5592906 65.2436664,14.5331381 C65.1708802,14.6601943 65.1254688,14.8254677 65.309545,14.9082924 C65.951957,15.1973642 66.2561497,15.7552089 66.5263158,16.3436272 L66.5263158,23.2352394 Z" id="Fill-4"></path>
                <path d="M35.1560531,25.2598219 C32.5832673,25.2598219 30.0103538,25.2567579 27.437568,25.2631412 C27.0427756,25.2640348 26.6643159,25.230076 26.3759414,24.935298 C26.1064515,24.6597973 25.9866357,24.3236559 26.1332474,23.9425765 C26.2936398,23.5260062 26.5912015,23.291869 27.0542595,23.2919966 C28.5851966,23.2927626 30.1161337,23.2902093 31.6470708,23.2890604 C32.5188296,23.2885497 33.3908436,23.2769322 34.2623472,23.2927626 C34.6835527,23.3004225 34.8800557,23.1666298 34.8758449,22.7085685 C34.8590018,20.9004519 34.8588742,19.0919524 34.8757173,17.2838358 C34.8800557,16.8248809 34.6869979,16.7027056 34.263368,16.7088336 C33.0303754,16.7267066 31.7968724,16.7245363 30.5637523,16.7088336 C30.2129816,16.7043653 29.9747536,16.813391 29.7526031,17.0938706 C28.7537554,18.3551988 27.5414339,19.3867304 26.2144006,20.2865119 C25.5378688,20.7453392 24.9514221,20.6993799 24.6001411,20.1735286 C24.2539641,19.6550818 24.4077213,19.1428906 25.0782559,18.6776801 C26.6664851,17.5759329 28.0807964,16.3068171 29.0591006,14.6090029 C29.6909727,13.5126176 30.0730051,12.3338885 30.3165923,11.0919653 C30.4313041,10.5072606 30.2140024,10.4445771 29.7400984,10.453003 C28.6560143,10.4725357 27.5714197,10.4625779 26.4869528,10.457599 C25.7421554,10.454152 25.3219707,10.1072867 25.3099763,9.50190026 C25.2975992,8.86893818 25.7287574,8.50368919 26.5083895,8.50049757 C27.6140379,8.4960293 28.7205795,8.47445395 29.8250796,8.5098171 C30.3562757,8.52692418 30.6033081,8.41470682 30.5627315,7.81736322 C30.5304488,7.34130118 30.7924103,6.97847782 31.2725667,6.79591716 C31.6741219,6.64323005 31.9755115,6.80689633 32.2558473,7.05418305 C32.480805,7.25257415 32.5446047,7.52820245 32.50977,7.81097998 C32.4370384,8.40104669 32.7245198,8.51262572 33.2546951,8.50930644 C36.5078407,8.4891354 39.7611139,8.49641229 43.0143871,8.50139122 C43.9502008,8.50279553 44.4705509,9.23022956 44.0631262,9.95153569 C43.8245154,10.3739785 43.4363582,10.4651312 42.9780213,10.4637269 C39.7248757,10.454535 36.4714749,10.4763657 33.2184569,10.4435558 C32.6110839,10.4373003 32.3469533,10.6021155 32.2799636,11.2115873 C32.1683142,12.2275437 31.9016315,13.214648 31.4876992,14.150048 C31.2548304,14.6766653 31.4550338,14.7599027 31.9357005,14.7582431 C35.2951364,14.7467532 38.6546999,14.7522428 42.0142633,14.7528812 C42.2056624,14.7528812 42.3994858,14.7389657 42.5878224,14.764371 C43.102941,14.834076 43.4872703,15.287286 43.4645576,15.7756039 C43.4400585,16.3008169 43.0286782,16.7034716 42.4478459,16.7084506 C40.8532368,16.721983 39.2583724,16.7133018 37.6636357,16.7149615 C36.8348778,16.7157275 36.8337294,16.7171318 36.8333466,17.5544852 C36.8324534,19.2351923 36.8505726,20.9161547 36.8228835,22.5963511 C36.8142067,23.1190108 36.9710263,23.3059121 37.5057953,23.2982522 C39.2915482,23.2728469 41.0778116,23.2874007 42.8639474,23.289954 C43.7516562,23.291103 44.2344921,23.6492028 44.2096103,24.2782072 C44.1853664,24.889594 43.6650162,25.2584176 42.8107385,25.2590559 C40.2591342,25.2610985 37.7076574,25.2598219 35.1560531,25.2598219" id="Fill-6"></path>
                <path d="M52.3901979,15.5977629 C53.6311612,15.5977629 54.8753357,15.6517411 56.112317,15.5839574 C57.6297063,15.5006271 58.3837126,16.4631544 57.9215466,17.9961835 C57.4288093,19.6302039 56.5215612,21.0521673 55.3809181,22.3400559 C55.2624864,22.4737576 55.0126496,22.5889275 55.0942159,22.7840697 C55.1936368,23.0224939 55.4714759,22.9069508 55.6698039,22.911677 C56.289836,22.9266019 56.9106387,22.9154082 57.5310561,22.9206319 C58.1052312,22.9254825 58.4663065,23.1826871 58.5206411,23.7582881 C58.5730491,24.3144869 58.2603998,24.7077562 57.6677278,24.8096182 C57.4181479,24.8525271 57.1563651,24.8385973 56.9002342,24.8354879 C54.8075136,24.8104888 52.7079852,24.9485435 50.6284951,24.5986806 C49.4563815,24.401424 48.4503547,23.885398 47.5959,23.0911481 C47.0921159,22.6228815 47.0223671,22.0901894 47.3894795,21.6619711 C47.7756026,21.2116142 48.3329507,21.2080074 48.9221545,21.6530162 C49.0064183,21.7166954 49.0850302,21.787464 49.1696793,21.8506458 C50.8096107,23.0744821 51.8148667,23.0210014 53.2956476,21.6430663 C54.3594772,20.6531768 55.1638362,19.4916517 55.7513702,18.1869726 C56.0280532,17.5726914 55.9859214,17.511997 55.3107839,17.5110021 C53.0214052,17.5077683 50.7320264,17.5112508 48.4427761,17.508639 C47.5959,17.5077683 47.155699,17.1699696 47.1657182,16.5420073 C47.1756089,15.9227511 47.6200487,15.5997529 48.4747604,15.5983848 C49.779949,15.5962704 51.0850092,15.5977629 52.3901979,15.5977629" id="Fill-8"></path>
                <path d="M52.4289421,7.58373786 C52.9280607,7.58451301 53.427554,7.57211056 53.9262979,7.58722605 C54.8156183,7.61409803 55.488604,8.05399749 55.8834273,8.85976928 C56.6921842,10.5101997 57.4777089,12.1663146 58.710267,13.5468625 C59.0654956,13.9447745 59.0051667,14.4413893 58.6386967,14.8292243 C58.2745999,15.2147339 57.8365597,15.2709325 57.4015171,14.9399421 C56.9774662,14.6173491 56.6720746,14.1760286 56.3649343,13.7428471 C55.5754126,12.6289519 54.932404,11.4239762 54.3725818,10.1743 C54.1823522,9.74938681 53.934042,9.53518613 53.4742683,9.5473302 C52.7675584,9.56606307 52.0598492,9.56205811 51.3528894,9.54823454 C50.9239672,9.53983705 50.6802784,9.73013717 50.4954197,10.1364467 C49.8576571,11.5386989 49.1377073,12.8957338 48.202422,14.1156958 C47.9964544,14.3841572 47.7743741,14.6466758 47.5250646,14.8705659 C47.1065095,15.2466444 46.6497335,15.2643437 46.2387976,14.8595845 C45.8347314,14.4618017 45.7660339,13.9584689 46.142746,13.5361396 C47.3745546,12.1552041 48.1540839,10.494955 48.9703352,8.84969229 C49.3695301,8.0454708 50.0416415,7.60854276 50.9315864,7.58541736 C51.4303303,7.57236894 51.9298236,7.58296271 52.4289421,7.58373786" id="Fill-10"></path>
                <path d="M51.7940521,13.4564878 C51.7940521,13.2135821 51.7845167,12.970144 51.7960666,12.7277708 C51.8202408,12.2203974 52.0920657,11.8955027 52.5924707,11.8113841 C53.1392096,11.7195458 53.571927,11.9125394 53.7494727,12.4637024 C53.9501182,13.0863395 53.9251382,13.7314703 53.7825107,14.3579673 C53.659894,14.8967521 53.2557827,15.2116643 52.7078352,15.1503057 C52.1445774,15.0872168 51.7870685,14.7331734 51.7894859,14.1191877 C51.790426,13.8982434 51.7896202,13.6774321 51.7896202,13.4564878 C51.7910975,13.4564878 51.7925748,13.4564878 51.7940521,13.4564878" id="Fill-12"></path>
            </g>
        </g>
    </g>
</svg>