<?xml version="1.0" encoding="UTF-8"?>
<svg width="24px" height="24px" viewBox="0 0 24 24" version="1.1" xmlns="http://www.w3.org/2000/svg" xmlns:xlink="http://www.w3.org/1999/xlink">
    <!-- Generator: Sketch 47.1 (45422) - http://www.bohemiancoding.com/sketch -->
    <title>帖子</title>
    <desc>Created with Sketch.</desc>
    <defs>
        <linearGradient x1="0%" y1="50%" x2="100%" y2="50%" id="linearGradient-1">
            <stop stop-color="#ECDAA0" offset="0%"></stop>
            <stop stop-color="#FDC432" offset="100%"></stop>
        </linearGradient>
    </defs>
    <g id="Symbols" stroke="none" stroke-width="1" fill="none" fill-rule="evenodd">
        <g id="帖子" fill="url(#linearGradient-1)" fill-rule="nonzero">
            <path d="M23.0666667,7.4 C22.4666667,5.93333333 21.6,4.6 20.4666667,3.53333333 C19.3333333,2.4 18,1.53333333 16.6,0.933333333 C15.1333333,0.333333333 13.6,0 12,0 C10.4,0 8.86666667,0.333333333 7.4,0.933333333 C5.93333333,1.53333333 4.66666667,2.4 3.53333333,3.53333333 C2.4,4.66666667 1.53333333,6 0.933333333,7.4 C0.333333333,8.86666667 0,10.4 0,12 C0,13.6 0.333333333,15.1333333 0.933333333,16.6 C1.53333333,18.0666667 2.4,19.4 3.53333333,20.4666667 C4.66666667,21.6 6,22.4666667 7.4,23.0666667 C8.86666667,23.6666667 10.4,24 12,24 C13.6,24 15.1333333,23.6666667 16.6,23.0666667 C18.0666667,22.4666667 19.4,21.6 20.4666667,20.4666667 C21.6,19.3333333 22.4666667,18 23.0666667,16.6 C23.6666667,15.1333333 24,13.6 24,12 C24,10.4 23.6666667,8.86666667 23.0666667,7.4 Z M18.8666667,9.86666667 L12.6666667,16.0666667 C12.5333333,16.2 12.4,16.2 12.2666667,16.2 C12.1333333,16.2 12,16.2 11.9333333,16.0666667 C11.7333333,15.8666667 11.7333333,15.5333333 11.9333333,15.3333333 L18.1333333,9.13333333 C18.2666667,9 18.3333333,8.8 18.3333333,8.53333333 C18.3333333,8.26666667 18.2,8 18.0666667,7.8 L15.1333333,4.86666667 C14.8,4.53333333 14.3333333,4.73333333 14.0666667,5.06666667 L8.13333333,11 L6.53333333,12.6 L5.93333333,17.1333333 L10.0666667,16.4666667 L7.73333333,14.0666667 C7.53333333,13.8666667 7.53333333,13.5333333 7.73333333,13.3333333 C7.93333333,13.1333333 8.26666667,13.1333333 8.46666667,13.3333333 L11.5333333,16.4 C11.6666667,16.5333333 11.7333333,16.7333333 11.6666667,16.9333333 C11.6,17.1333333 11.4666667,17.2666667 11.2666667,17.2666667 L5.4,18.2 L5.33333333,18.2 C5.2,18.2 5.06666667,18.1333333 5,18.0666667 C4.86666667,17.9333333 4.8,17.8 4.86666667,17.6 L5.6,12.2 C5.6,12.0666667 5.66666667,12 5.73333333,11.9333333 L6.73333333,10.9333333 L13.4,4.26666667 C14.2,3.46666667 15.2666667,3.4 15.9333333,4.06666667 L18.8666667,7 C19.2666667,7.4 19.4666667,7.93333333 19.4666667,8.46666667 C19.4,9.06666667 19.2,9.53333333 18.8666667,9.86666667 L18.8666667,9.86666667 Z"></path>
        </g>
    </g>
</svg>