<?xml version="1.0" encoding="UTF-8"?>
<svg width="25px" height="22px" viewBox="0 0 25 22" version="1.1" xmlns="http://www.w3.org/2000/svg" xmlns:xlink="http://www.w3.org/1999/xlink">
    <!-- Generator: Sketch 47.1 (45422) - http://www.bohemiancoding.com/sketch -->
    <title>皇冠</title>
    <desc>Created with Sketch.</desc>
    <defs>
        <linearGradient x1="50%" y1="50%" x2="50%" y2="100%" id="linearGradient-1">
            <stop stop-color="#F1E143" offset="0%"></stop>
            <stop stop-color="#F6B83C" offset="100%"></stop>
        </linearGradient>
    </defs>
    <g id="Symbols" stroke="none" stroke-width="1" fill="none" fill-rule="evenodd">
        <g id="皇冠">
            <g>
                <path d="M0,6.17658187 L0.0800091349,5.94660215 C0.275930973,5.33404603 0.815419504,4.90256279 1.44600535,4.85407758 C2.0765912,4.80559238 2.67353554,5.14969627 2.95748086,5.72535582 C3.24344533,6.29655713 3.16094734,6.98735753 2.74888558,7.4720373 C2.70030859,7.52734889 2.65173162,7.57974932 2.60029717,7.64670545 C3.76042976,8.37157827 4.91484741,9.08480653 6.06069265,9.80385708 C6.49502801,10.0775038 6.9350783,10.3511506 7.36941364,10.616064 C7.45815993,10.6930034 7.57777421,10.7218445 7.69095721,10.6935939 C7.8041402,10.6653433 7.89712177,10.5834379 7.94090752,10.4734183 C9.2610584,8.02418273 10.5850192,5.56427299 11.91279,3.09368908 C11.3437879,2.84848944 10.962879,2.29298278 10.932678,1.66432141 C10.9071572,1.21104276 11.0785256,0.769252907 11.401303,0.456200045 C11.7165289,0.141318984 12.1475763,-0.0233714099 12.5883046,0.00268200905 C13.029033,0.028735428 13.4384906,0.243111821 13.7158532,0.593023426 C14.3730712,1.41687485 14.1359012,2.37754968 13.0900674,3.10242249 C13.4301063,3.73705008 13.7615728,4.37749996 14.1073265,5.01212755 C15.0598164,6.78986114 16.0170686,8.56662435 16.9790833,10.3424172 C17.1991085,10.7557985 17.3419819,10.7936432 17.7334553,10.552019 C19.2155294,9.63015932 20.698556,8.70538851 22.1825351,7.77770656 L22.3997028,7.63797204 C22.0925432,7.35487558 21.905099,6.9614676 21.8767859,6.54047386 C21.8280029,5.7311281 22.3839791,5.0136853 23.1680393,4.87421478 C23.9520995,4.73474427 24.713821,5.2177918 24.9371357,5.99609145 C24.9542805,6.05722531 24.9799977,6.12127028 25,6.18240415 L25,6.73843108 C24.7485427,7.5622825 24.2284832,8.03970878 23.3426677,8.04553105 C23.3083781,8.14159853 23.2798034,8.23184375 23.2483712,8.33664463 L20.6452166,17.4252106 C20.5309178,17.821125 20.3966168,17.9259259 20.002286,17.9259259 L5.02057377,17.9259259 C4.60052577,17.9259259 4.47193965,17.8269473 4.35764087,17.4252106 C3.65279842,14.9662712 2.94795596,12.5044207 2.2431135,10.0396591 C2.05452051,9.37592011 1.8602126,8.71218114 1.67161961,8.04261992 C1.05659795,8.08260002 0.476285809,7.74933048 0.191450459,7.19256827 C0.118185084,7.04450895 0.0542391329,6.89185123 4.26057128e-16,6.73551994 L0,6.17658187 Z M12.0918701,19.5605249 L18.9630977,19.5605249 C19.5650234,19.5303844 20.0857873,20.0016888 20.1538757,20.6382089 C20.2219641,21.2747289 19.814041,21.8583093 19.2211193,21.972623 C19.1363098,21.9916816 19.0497736,22.0006814 18.9630977,21.9994572 L5.22064253,21.9994572 C4.71508339,22.0154301 4.25934836,21.6774938 4.09880945,21.1675964 C3.92765249,20.6697089 4.09489958,20.1117784 4.50547394,19.8109776 C4.73229919,19.6574536 4.99393451,19.5719491 5.26271127,19.5635064 C7.54283699,19.545617 9.81735355,19.5635064 12.0918701,19.5635064 L12.0918701,19.5605249 Z" fill="url(#linearGradient-1)" fill-rule="nonzero"></path>
                <text id="1" font-family="Roboto-Regular, Roboto" font-size="12" font-weight="normal" fill="#FFFFFF">
                    <tspan x="10" y="18">1</tspan>
                </text>
            </g>
        </g>
    </g>
</svg>