<?xml version="1.0" encoding="UTF-8"?>
<svg width="24px" height="36px" viewBox="0 0 24 36" version="1.1" xmlns="http://www.w3.org/2000/svg" xmlns:xlink="http://www.w3.org/1999/xlink">
    <!-- Generator: Sketch 47.1 (45422) - http://www.bohemiancoding.com/sketch -->
    <title>水</title>
    <desc>Created with Sketch.</desc>
    <defs>
        <linearGradient x1="50%" y1="7.45082345%" x2="50%" y2="87.830144%" id="linearGradient-1">
            <stop stop-color="#17EAD9" offset="0%"></stop>
            <stop stop-color="#6078EA" offset="100%"></stop>
        </linearGradient>
    </defs>
    <g id="Symbols" stroke="none" stroke-width="1" fill="none" fill-rule="evenodd">
        <g id="水" fill="url(#linearGradient-1)" fill-rule="nonzero">
            <path d="M12,36 C5.37195687,36 0,30.5933038 0,23.9238973 C0,21.3576616 0.797534681,18.9801949 2.15469955,17.0236315 L12.033282,0 L21.8453005,17.0236315 C23.2024653,18.9801949 24,21.3576617 24,23.9238973 C24,30.5933038 18.6280431,36 12,36 Z M20.1602465,26.3383525 C19.6228043,26.3383525 19.1728814,26.7311958 19.0791988,27.25031 C18.805547,28.3599646 17.8613252,29.3752347 16.6767334,29.6507351 C16.1614792,29.7451196 15.7719569,30.1979096 15.7719569,30.7387068 C15.7719569,31.3458281 16.2650231,31.8598405 16.8690293,31.8598405 C17.7417566,31.8598405 18.7993837,31.2361381 19.6893683,30.3522409 C20.5941449,29.4466607 21.2585516,28.2375199 21.2585516,27.4429052 C21.2573189,26.8357839 20.76302,26.3383525 20.1602465,26.3383525 Z"></path>
        </g>
    </g>
</svg>